<?xml version="1.0" standalone="no"?><!DOCTYPE svg PUBLIC "-//W3C//DTD SVG 1.1//EN" "http://www.w3.org/Graphics/SVG/1.1/DTD/svg11.dtd" ><svg xmlns="http://www.w3.org/2000/svg"><metadata>Generated by Glyphter</metadata><defs><font id="cov" horiz-adv-x="0"><font-face units-per-em="1024" ascent="1024" descent="0" font-family="cov" font-weight="normal" /><missing-glyph horiz-adv-x="0" /><glyph unicode="&#x0041;" d="M1024,219.728C1024,219.728,1024,146.576,1024,146.576C1024,136.688,1020.384,128.112,1013.152,120.848C1005.92,113.584,997.344,109.968,987.424,110C987.424,110,36.576,110,36.576,110C26.688,110,18.112,113.616,10.848,120.848C3.584,128.08,-0.032,136.656,0,146.576C0,146.576,0,219.728,0,219.728C0,229.616,3.616,238.192,10.848,245.456C18.08,252.72,26.656,256.336,36.576,256.304C36.576,256.304,987.424,256.304,987.424,256.304C997.312,256.304,1005.888,252.688,1013.152,245.456C1020.416,238.224,1024.032,229.648,1024,219.728C1024,219.728,1024,219.728,1024,219.728M1024,439.152C1024,439.152,1024,366,1024,366C1024,356.112,1020.384,347.536,1013.152,340.272C1005.92,333.008,997.344,329.392,987.424,329.424C987.424,329.424,36.576,329.424,36.576,329.424C26.688,329.424,18.112,333.04,10.848,340.272C3.584,347.504,-0.032,356.08,0,366C0,366,0,439.152,0,439.152C0,449.04,3.616,457.616,10.848,464.88C18.08,472.144,26.656,475.76,36.576,475.728C36.576,475.728,987.424,475.728,987.424,475.728C997.312,475.728,1005.888,472.112,1013.152,464.88C1020.416,457.648,1024.032,449.072,1024,439.152C1024,439.152,1024,439.152,1024,439.152M1024,658.576C1024,658.576,1024,585.424,1024,585.424C1024,575.536,1020.384,566.96,1013.152,559.696C1005.92,552.432,997.344,548.816,987.424,548.848C987.424,548.848,36.576,548.848,36.576,548.848C26.688,548.848,18.112,552.464,10.848,559.696C3.584,566.928,-0.032,575.504,0,585.424C0,585.424,0,658.576,0,658.576C0,668.464,3.616,677.04,10.848,684.304C18.08,691.568,26.656,695.184,36.576,695.152C36.576,695.152,987.424,695.152,987.424,695.152C997.312,695.152,1005.888,691.536,1013.152,684.304C1020.416,677.072,1024.032,668.496,1024,658.576C1024,658.576,1024,658.576,1024,658.576M1024,878C1024,878,1024,804.848,1024,804.848C1024,794.96,1020.384,786.384,1013.152,779.12C1005.92,771.856,997.344,768.24,987.424,768.272C987.424,768.272,36.576,768.272,36.576,768.272C26.688,768.272,18.112,771.888,10.848,779.12C3.584,786.352,-0.032,794.928,0,804.848C0,804.848,0,878,0,878C0,887.888,3.616,896.464,10.848,903.728C18.08,910.992,26.656,914.608,36.576,914.576C36.576,914.576,987.424,914.576,987.424,914.576C997.312,914.576,1005.888,910.96,1013.152,903.728C1020.416,896.496,1024.032,887.92,1024,878C1024,878,1024,878,1024,878" /><glyph unicode="&#x0042;" d="M896,0C896,0,256,0,256,0C220.672,0,192,28.608,192,64C192,64,192,128,192,128C227.328,128,256,156.608,256,192C256,192,256,256,256,256C256,291.328,227.328,320,192,320C192,320,192,704,192,704C227.328,704,256,732.672,256,768C256,768,256,832,256,832C256,867.328,227.328,896,192,896C192,896,192,960,192,960C192,995.328,220.672,1024,256,1024C256,1024,896,1024,896,1024C931.392,1024,960,995.328,960,960C960,960,960,64,960,64C960,28.608,931.392,0,896,0C896,0,896,0,896,0M832,512C832,653.376,717.376,768,576,768C434.624,768,320,653.376,320,512C320,370.624,434.624,256,576,256C576,256,608,256,608,256C625.664,256,640,270.336,640,288C640,305.664,625.664,320,608,320C608,320,576,320,576,320C470.016,320,384,405.952,384,512C384,618.048,470.016,704,576,704C682.048,704,768,618.048,768,512C768,512,768,416,768,416C768,398.336,753.664,384,736,384C718.336,384,704,398.336,704,416C704,416,704,512,704,512C704,582.656,646.656,640,576,640C505.344,640,448,582.656,448,512C448,441.344,505.344,384,576,384C600,384,622.208,390.976,641.344,402.496C648,355.968,687.616,320,736,320C788.992,320,832,363.008,832,416C832,416,832,512,832,512C832,512,832,512,832,512M576,448C540.608,448,512,476.608,512,512C512,547.392,540.608,576,576,576C611.392,576,640,547.392,640,512C640,476.608,611.392,448,576,448C576,448,576,448,576,448M160,768C160,768,96,768,96,768C78.336,768,64,782.336,64,800C64,817.664,78.336,832,96,832C96,832,160,832,160,832C177.664,832,192,817.664,192,800C192,782.336,177.664,768,160,768C160,768,160,768,160,768M64,960C64,995.328,92.672,1024,128,1024C128,1024,128,896,128,896C128,896,64,896,64,896C64,896,64,960,64,960C64,960,64,960,64,960M128,320C128,320,64,320,64,320C64,320,64,704,64,704C64,704,128,704,128,704C128,704,128,320,128,320C128,320,128,320,128,320M96,256C96,256,160,256,160,256C177.664,256,192,241.664,192,224C192,206.336,177.664,192,160,192C160,192,96,192,96,192C78.336,192,64,206.336,64,224C64,241.664,78.336,256,96,256C96,256,96,256,96,256M128,0C92.672,0,64,28.608,64,64C64,64,64,128,64,128C64,128,128,128,128,128C128,128,128,0,128,0C128,0,128,0,128,0" /><glyph unicode="&#x0043;" d="M992.576,687.296C940.864,828.8,828.864,940.864,687.232,992.576C720.512,1012.032,758.656,1024,800,1024C923.776,1024,1024,923.712,1024,800C1024,758.656,1011.968,720.512,992.576,687.296C992.576,687.296,992.576,687.296,992.576,687.296M960,512C960,390.144,910.976,279.872,832,199.104C832,199.104,832,192,832,192C832,192,832,64,832,64C832,28.608,803.392,0,768,0C732.608,0,704,28.608,704,64C704,64,704,108.736,704,108.736C645.632,80.896,580.992,64,512,64C442.944,64,378.368,80.896,320,108.736C320,108.736,320,64,320,64C320,28.608,291.328,0,256,0C220.672,0,192,28.608,192,64C192,64,192,192,192,192C192,192,192,199.104,192,199.104C113.024,279.872,64,390.144,64,512C64,759.424,264.576,960,512,960C759.424,960,960,759.424,960,512C960,512,960,512,960,512M512,832C335.296,832,192,688.768,192,512C192,335.232,335.296,192,512,192C688.768,192,832,335.232,832,512C832,688.768,688.768,832,512,832C512,832,512,832,512,832M640,448C640,448,512,448,512,448C476.672,448,448,476.608,448,512C448,512,448,640,448,640C448,675.392,476.672,704,512,704C547.392,704,576,675.392,576,640C576,640,576,576,576,576C576,576,640,576,640,576C675.392,576,704,547.392,704,512C704,476.608,675.392,448,640,448C640,448,640,448,640,448M31.424,687.296C11.968,720.512,0,758.656,0,800C0,923.712,100.288,1024,224,1024C265.344,1024,303.488,1012.032,336.704,992.576C195.136,940.864,83.136,828.8,31.424,687.296C31.424,687.296,31.424,687.296,31.424,687.296" /><glyph unicode="&#x0044;" d="M576,576C576,576,576,1024,576,1024C841.088,1024,1024,841.088,1024,576C1024,576,576,576,576,576C576,576,576,576,576,576M480,0C214.912,0,0,214.912,0,480C0,769.088,210.912,960,512,960C512,960,512,512,512,512C512,512,960,512,960,512C960,246.912,745.088,0,480,0C480,0,480,0,480,0" /><glyph unicode="&#x0045;" d="M768.499,608.064C768.499,608.064,768.499,672.063,768.499,672.063C768.499,689.759,754.195,704.063,736.499,704.063C736.499,704.063,32.5,704.063,32.5,704.063C14.804,704.063,0.5,689.759,0.5,672.063C0.5,672.063,0.5,224.032,0.5,224.032C0.5,218.272,2.452,213.184,5.076,208.512C27.38,89.856,131.38,0,256.5,0C256.5,0,512.5,0,512.5,0C593.172,0,664.691,37.664,711.571,96C711.571,96,768.499,96,768.499,96C909.875,96,1024.499,210.656,1024.499,352.032C1024.499,493.44,909.875,608.064,768.499,608.064C768.499,608.064,768.499,608.064,768.499,608.064M768.499,224.032C768.499,224.032,768.499,480.064,768.499,480.064C839.187,480.064,896.499,422.752,896.499,352.032C896.499,281.344,839.187,224.032,768.499,224.032C768.499,224.032,768.499,224.032,768.499,224.032M166.836,751.871C162.068,743.231,162.612,736.095,171.7,736.095C180.724,736.095,193.108,743.263,196.212,751.807C227.988,834.655,61.108,902.015,161.94,1004.191C172.276,1014.783,176.468,1023.935,167.316,1023.999C158.132,1024.095,139.284,1015.359,129.364,1005.055C32.212,905.247,212.02,835.103,166.836,751.871C166.836,751.871,166.836,751.871,166.836,751.871M287.7,751.487C286.516,743.231,291.572,736.095,300.564,736.095C309.492,736.095,318.164,743.231,319.06,751.423C326.132,810.751,278.708,865.183,307.188,916.511C307.636,925.791,296.724,935.007,282.58,936.255C268.468,937.535,255.892,930.527,255.412,921.311C251.988,854.367,296.052,811.647,287.7,751.487C287.7,751.487,287.7,751.487,287.7,751.487M429.364,736.095C438.292,736.095,445.364,743.231,447.06,751.135C463.284,827.807,595.796,851.423,495.892,988.351C485.204,1002.495,466.228,1015.487,457.044,1015.615C447.828,1015.775,447.028,1003.135,453.14,989.151C552.564,895.327,457.108,827.999,414.836,751.135C413.428,743.231,420.468,736.095,429.364,736.095C429.364,736.095,429.364,736.095,429.364,736.095M558.228,736.095C567.188,736.095,573.204,743.295,575.796,751.711C600.116,833.087,874.643,885.695,643.796,997.695C619.732,1009.087,588.5,1018.623,581.684,1018.239C574.74,1017.759,591.092,1005.951,611.636,993.055C800.339,869.375,624.5,906.687,543.828,751.455C541.204,743.295,549.3,736.095,558.228,736.095C558.228,736.095,558.228,736.095,558.228,736.095" /><glyph unicode="&#x0046;" d="M960,144C960,144,768,304,768,304C768,304,768,144,768,144C768,108.672,739.328,80,704,80C704,80,64,80,64,80C28.672,80,0,108.672,0,144C0,144,0,688,0,688C0,723.328,28.672,752,64,752C64,752,310.336,752,310.336,752C310.336,752,215.68,880,215.68,880C215.68,880,32,880,32,880C14.336,880,0,894.304,0,912C0,929.696,14.336,944,32,944C32,944,224,944,224,944C241.664,944,256,929.696,256,912C256,912,386.304,752,386.304,752C386.304,752,704,752,704,752C739.328,752,768,723.328,768,688C768,688,768,528,768,528C768,528,960,720,960,720C995.328,720,1024,691.328,1024,656C1024,656,1024,208,1024,208C1024,172.672,999.328,144,960,144C960,144,960,144,960,144M672,688C672,688,480,688,480,688C462.304,688,448,673.696,448,656C448,638.304,462.304,624,480,624C480,624,672,624,672,624C689.696,624,704,638.304,704,656C704,673.696,689.696,688,672,688C672,688,672,688,672,688" /><glyph unicode="&#x0047;" d="M992,832C992,832,816,832,816,832C816,832,768,928,768,928C768,945.664,753.696,960,736,960C736,960,288,960,288,960C270.304,960,256,945.664,256,928C256,928,208,832,208,832C208,832,32,832,32,832C14.336,832,0,817.664,0,800C0,800,0,96,0,96C0,78.304,14.336,64,32,64C32,64,992,64,992,64C1009.696,64,1024,78.304,1024,96C1024,96,1024,800,1024,800C1024,817.664,1009.696,832,992,832C992,832,992,832,992,832M512,192C370.624,192,256,306.624,256,448C256,589.376,370.624,704,512,704C653.376,704,768,589.376,768,448C768,306.624,653.376,192,512,192C512,192,512,192,512,192M512,576C441.312,576,384,518.688,384,448C384,377.312,441.312,320,512,320C582.688,320,640,377.312,640,448C640,518.688,582.688,576,512,576C512,576,512,576,512,576" /><glyph unicode="&#x0048;" d="M992,544C992,544,827.264,544,827.264,544C821.44,587.424,809.632,628.192,793.376,665.376C793.376,665.376,896,768,896,768C913.696,768,928,782.336,928,800C928,800,928,960,928,960C928,977.664,913.696,992,896,992C878.304,992,864,977.664,864,960C864,960,864,800,864,800C864,800,758.208,729.472,758.208,729.472C741.92,753.504,723.552,775.296,703.008,793.632C693.376,922.976,611.552,1024,512,1024C412.448,1024,330.624,922.976,320.96,793.632C300.448,775.328,282.048,753.536,265.792,729.472C265.792,729.472,160,800,160,800C160,800,160,960,160,960C160,977.664,145.664,992,128,992C110.336,992,96,977.664,96,960C96,960,96,800,96,800C96,782.336,110.336,768,128,768C128,768,230.624,665.376,230.624,665.376C214.368,628.192,202.56,587.424,196.736,544C196.736,544,32,544,32,544C14.336,544,0,529.696,0,512C0,494.304,14.336,480,32,480C32,480,196.576,480,196.576,480C200.128,453.312,206.08,363.68,213.76,339.2C213.76,339.2,120.416,222.464,120.416,222.464C106.496,218.944,96,206.976,96,192C96,192,96,32,96,32C96,14.304,110.336,0,128,0C145.664,0,160,14.304,160,32C160,32,160,192,160,192C160,192,240.672,272.672,240.672,272.672C294.688,166.56,388.672,96,496,96C501.408,96,506.656,96.96,512,97.344C517.344,96.96,522.592,96,528,96C635.328,96,729.312,166.56,783.328,272.672C783.328,272.672,864,192,864,192C864,192,864,32,864,32C864,14.304,878.304,0,896,0C913.696,0,928,14.304,928,32C928,32,928,192,928,192C928,206.976,917.504,218.944,903.616,222.432C903.616,222.432,810.24,339.2,810.24,339.2C817.92,363.712,823.872,453.312,827.424,480C827.424,480,992,480,992,480C1009.696,480,1024,494.304,1024,512C1024,529.696,1009.696,544,992,544C992,544,992,544,992,544" /><glyph unicode="&#x0049;" d="M0,407.808C0,407.808,321.344,201.184,321.344,201.184C321.344,201.184,321.344,350.336,321.344,350.336C321.344,350.336,130.016,468.48,130.016,468.48C130.016,468.48,321.344,586.624,321.344,586.624C321.344,586.624,321.344,736.8,321.344,736.8C321.344,736.8,0,529.12,0,529.12C0,529.12,0,407.808,0,407.808C0,407.808,0,407.808,0,407.808M389.312,128C389.312,128,499.904,128,499.904,128C499.904,128,661.952,896,661.952,896C661.952,896,550.624,896,550.624,896C550.624,896,389.312,128,389.312,128C389.312,128,389.312,128,389.312,128M702.688,736.8C702.688,736.8,702.688,586.624,702.688,586.624C702.688,586.624,893.952,468.48,893.952,468.48C893.952,468.48,702.688,350.368,702.688,350.368C702.688,350.368,702.688,201.216,702.688,201.216C702.688,201.216,1024,407.808,1024,407.808C1024,407.808,1024,529.12,1024,529.12C1024,529.12,702.688,736.8,702.688,736.8C702.688,736.8,702.688,736.8,702.688,736.8" /><glyph unicode="&#x004a;" d="M832,544C814.304,544,800,529.696,800,512C800,512,800,288,800,288C800,270.304,814.304,256,832,256C849.696,256,864,270.304,864,288C864,288,864,512,864,512C864,529.696,849.696,544,832,544C832,544,832,544,832,544M736,64C736,64,288,64,288,64C270.336,64,256,49.696,256,32C256,14.304,270.336,0,288,0C288,0,736,0,736,0C753.696,0,768,14.304,768,32C768,49.696,753.696,64,736,64C736,64,736,64,736,64M640,992C640,1009.696,625.696,1024,608,1024C608,1024,448,1024,448,1024C448,1024,416,1009.696,416,992C416,992,0,608,0,608C0,590.304,14.336,576,32,576C32,576,416,576,416,576C398.304,576,384,529.696,384,512C384,512,384,128,384,128C384,110.304,398.304,96,416,96C416,96,608,96,608,96C625.696,96,640,110.304,640,128C640,128,640,512,640,512C640,529.696,625.696,576,608,576C608,576,992,576,992,576C1009.696,576,1024,590.304,1024,608C1024,608,640,992,640,992C640,992,640,992,640,992" /><glyph unicode="&#x004b;" d="M896,544C896,544,894.432,544,894.432,544C878.688,375.2,742.144,192,576,192C576,192,576,64,576,64C576,64,768,64,768,64C785.696,64,800,49.696,800,32C800,14.304,785.696,0,768,0C768,0,256,0,256,0C238.304,0,224,14.304,224,32C224,49.696,238.304,64,256,64C256,64,448,64,448,64C448,64,448,192,448,192C281.856,192,145.344,375.2,129.568,544C129.568,544,128,544,128,544C128,544,128,736,128,736C128,771.328,156.672,800,192,800C227.328,800,256,771.328,256,736C256,736,256,576,256,576C256,434.624,370.624,320,512,320C653.376,320,768,434.624,768,576C768,576,768,736,768,736C768,771.328,796.672,800,832,800C867.328,800,896,771.328,896,736C896,736,896,544,896,544C896,544,896,544,896,544M512,448C423.616,448,384,519.616,384,608C384,608,384,864,384,864C384,952.352,423.616,1024,512,1024C600.384,1024,640,952.352,640,864C640,864,640,608,640,608C640,519.616,600.384,448,512,448C512,448,512,448,512,448M560,576C568.832,576,576,583.168,576,592C576,600.8,568.832,608,560,608C551.168,608,544,600.8,544,592C544,583.168,551.168,576,560,576C560,576,560,576,560,576M464,768C455.168,768,448,760.8,448,752C448,743.168,455.168,736,464,736C472.832,736,480,743.168,480,752C480,760.8,472.832,768,464,768C464,768,464,768,464,768M480,816C480,824.832,472.832,832,464,832C455.168,832,448,824.832,448,816C448,807.168,455.168,800,464,800C472.832,800,480,807.168,480,816C480,816,480,816,480,816M496,672C487.168,672,480,664.8,480,656C480,647.168,487.168,640,496,640C504.832,640,512,647.168,512,656C512,664.8,504.832,672,496,672C496,672,496,672,496,672M528,672C536.832,672,544,679.168,544,688C544,696.8,536.832,704,528,704C519.168,704,512,696.8,512,688C512,679.168,519.168,672,528,672C528,672,528,672,528,672M496,704C504.832,704,512,711.168,512,720C512,728.8,504.832,736,496,736C487.168,736,480,728.8,480,720C480,711.168,487.168,704,496,704C496,704,496,704,496,704M464,704C455.168,704,448,696.8,448,688C448,679.168,455.168,672,464,672C472.832,672,480,679.168,480,688C480,696.8,472.832,704,464,704C464,704,464,704,464,704M496,768C504.832,768,512,775.168,512,784C512,792.832,504.832,800,496,800C487.168,800,480,792.832,480,784C480,775.168,487.168,768,496,768C496,768,496,768,496,768M528,800C536.832,800,544,807.168,544,816C544,824.832,536.832,832,528,832C519.168,832,512,824.832,512,816C512,807.168,519.168,800,528,800C528,800,528,800,528,800M528,768C519.168,768,512,760.8,512,752C512,743.168,519.168,736,528,736C536.832,736,544,743.168,544,752C544,760.8,536.832,768,528,768C528,768,528,768,528,768M560,768C568.832,768,576,775.168,576,784C576,792.832,568.832,800,560,800C551.168,800,544,792.832,544,784C544,775.168,551.168,768,560,768C560,768,560,768,560,768M560,736C551.168,736,544,728.8,544,720C544,711.168,551.168,704,560,704C568.832,704,576,711.168,576,720C576,728.8,568.832,736,560,736C560,736,560,736,560,736M560,672C551.168,672,544,664.8,544,656C544,647.168,551.168,640,560,640C568.832,640,576,647.168,576,656C576,664.8,568.832,672,560,672C560,672,560,672,560,672M528,608C536.832,608,544,615.168,544,624C544,632.8,536.832,640,528,640C519.168,640,512,632.8,512,624C512,615.168,519.168,608,528,608C528,608,528,608,528,608M496,576C504.832,576,512,583.168,512,592C512,600.8,504.832,608,496,608C487.168,608,480,600.8,480,592C480,583.168,487.168,576,496,576C496,576,496,576,496,576M464,608C472.832,608,480,615.168,480,624C480,632.8,472.832,640,464,640C455.168,640,448,632.8,448,624C448,615.168,455.168,608,464,608C464,608,464,608,464,608M464,896C455.168,896,448,888.832,448,880C448,871.168,455.168,864,464,864C472.832,864,480,871.168,480,880C480,888.832,472.832,896,464,896C464,896,464,896,464,896M496,864C487.168,864,480,856.832,480,848C480,839.168,487.168,832,496,832C504.832,832,512,839.168,512,848C512,856.832,504.832,864,496,864C496,864,496,864,496,864M528,896C519.168,896,512,888.832,512,880C512,871.168,519.168,864,528,864C536.832,864,544,871.168,544,880C544,888.832,536.832,896,528,896C528,896,528,896,528,896M560,864C551.168,864,544,856.832,544,848C544,839.168,551.168,832,560,832C568.832,832,576,839.168,576,848C576,856.832,568.832,864,560,864C560,864,560,864,560,864" /><glyph unicode="&#x004c;" d="M68.489,986.297C109.366,1027.27,232.924,1034.115,233.852,1012.429C234.78,990.775,345.128,750.438,346.088,728.752C347.048,707.098,273.354,633.213,251.796,611.591C230.43,590.193,395.985,402.632,399.119,399.081C402.638,395.915,589.751,229.976,611.117,251.406C632.675,273.028,706.401,346.881,727.959,345.922C749.581,344.994,989.374,234.39,1010.996,233.398C1032.618,232.47,1025.805,108.656,984.928,67.651C949.968,32.627,768.964,-94.546,454.23,132.549C419.718,152.444,365.055,198.086,282.15,281.152C282.118,281.184,282.054,281.248,281.99,281.28C281.926,281.376,281.862,281.408,281.798,281.472C281.734,281.536,281.67,281.6,281.606,281.664C281.574,281.728,281.51,281.792,281.478,281.824C198.636,364.921,153.09,419.744,133.227,454.32C-93.324,769.821,33.561,951.273,68.489,986.297C68.489,986.297,68.489,986.297,68.489,986.297" /><glyph unicode="&#x004d;" d="M704,704C668.672,704,640,675.328,640,640C640,604.672,668.672,576,704,576C739.328,576,768,604.672,768,640C768,675.328,739.328,704,704,704C704,704,704,704,704,704M320,576C355.328,576,384,604.672,384,640C384,675.328,355.328,704,320,704C284.672,704,256,675.328,256,640C256,604.672,284.672,576,320,576C320,576,320,576,320,576M512,1024C229.216,1024,0,794.784,0,512C0,229.216,229.216,0,512,0C794.784,0,1024,229.216,1024,512C1024,794.784,794.784,1024,512,1024C512,1024,512,1024,512,1024M320,768C390.688,768,448,710.688,448,640C448,569.312,390.688,512,320,512C249.312,512,192,569.312,192,640C192,710.688,249.312,768,320,768C320,768,320,768,320,768M512,128C380.8,128,268.192,207.04,218.816,320C218.816,320,805.184,320,805.184,320C755.808,207.04,643.2,128,512,128C512,128,512,128,512,128M704,512C633.312,512,576,569.312,576,640C576,710.688,633.312,768,704,768C774.688,768,832,710.688,832,640C832,569.312,774.688,512,704,512C704,512,704,512,704,512" /><glyph unicode="&#x004e;" d="M960,1024C960,1024,64,1024,64,1024C28.672,1024,0,995.328,0,960C0,960,0,320,0,320C0,284.672,28.672,256,64,256C64,256,320,256,320,256C320,256,192,0,192,0C192,0,224,0,224,0C224,0,454.4,256,454.4,256C454.4,256,569.6,256,569.6,256C569.6,256,800,0,800,0C800,0,832,0,832,0C832,0,704,256,704,256C704,256,960,256,960,256C995.328,256,1024,284.672,1024,320C1024,320,1024,960,1024,960C1024,995.328,995.328,1024,960,1024C960,1024,960,1024,960,1024M960,352C960,334.304,945.696,320,928,320C928,320,96,320,96,320C78.304,320,64,334.304,64,352C64,352,64,928,64,928C64,945.696,78.304,960,96,960C96,960,928,960,928,960C945.696,960,960,945.696,960,928C960,928,960,352,960,352C960,352,960,352,960,352M668.096,523.808C668.096,523.808,523.424,895.936,523.424,895.936C523.424,895.936,365.408,598.656,365.408,598.656C365.408,598.656,277.216,689.376,277.216,689.376C277.216,689.376,128,596.384,128,596.384C128,596.384,170.112,572.128,170.112,572.128C170.112,572.128,265.728,631.712,265.728,631.712C265.728,631.712,381.088,512.928,381.088,512.928C381.088,512.928,514.688,764.224,514.688,764.224C514.688,764.224,662.4,384.096,662.4,384.096C662.4,384.096,788.384,649.312,788.384,649.312C788.384,649.312,839.712,540.064,839.712,540.064C839.712,540.064,896,549.504,896,549.504C896,549.504,788.672,777.728,788.672,777.728C788.672,777.728,668.096,523.808,668.096,523.808C668.096,523.808,668.096,523.808,668.096,523.808" /><glyph unicode="&#x004f;" d="M512,1024C229.216,1024,0,794.784,0,512C0,229.216,229.216,0,512,0C794.784,0,1024,229.216,1024,512C1024,794.784,794.784,1024,512,1024C512,1024,512,1024,512,1024M704,384C704,348.672,675.328,320,640,320C640,320,384,320,384,320C348.672,320,320,348.672,320,384C320,384,320,640,320,640C320,675.328,348.672,704,384,704C384,704,640,704,640,704C675.328,704,704,675.328,704,640C704,640,704,384,704,384C704,384,704,384,704,384" /><glyph unicode="&#x0050;" d="M192,1024C192,1024,192,0,192,0C192,0,832,511.264,832,511.264C832,511.264,192,1024,192,1024C192,1024,192,1024,192,1024" /><glyph unicode="&#x0051;" d="M245.512,605.008C249.187,622.394,225.921,637.446,200.897,638.054C170.92,638.789,147.814,639.044,127.009,639.14C109.911,639.204,97.096,624.855,97,607.213C97,607.213,97,127.834,97,127.834C97.096,110.193,109.879,95.844,127.105,95.908C148.038,96.004,171.623,96.259,203.071,96.994C229.341,97.634,254.013,112.654,249.794,130.04C217.132,287.755,216.877,447.293,245.512,605.008C245.512,605.008,245.512,605.008,245.512,605.008M864.007,511.338C864.007,511.338,576.379,511.338,576.379,511.338C576.379,511.338,576.379,575.255,576.379,575.255C576.379,575.255,864.007,575.255,864.007,575.255C899.289,575.255,927.924,603.89,927.924,639.172C927.924,674.454,899.289,703.089,864.007,703.089C864.007,703.089,584.369,703.089,584.369,703.089C584.369,703.089,588.364,751.091,588.364,751.091C588.364,751.091,608.338,910.82,608.338,910.82C608.338,972.596,558.29,1022.675,496.483,1022.675C434.707,1022.675,384.627,1036.513,384.627,974.737C384.627,974.737,366.347,862.882,366.347,862.882C366.347,862.882,352.701,767.294,352.701,767.294C352.701,767.294,320.71,559.276,320.71,559.276C320.71,555.984,321.19,553.395,321.829,551.03C321.829,551.03,320.71,543.296,320.71,543.296C320.71,543.296,291.5,524.089,291.5,524.089C291.5,524.089,288.752,515.908,288.752,511.338C288.752,511.338,288.752,159.793,288.752,159.793C288.752,142.12,303.069,127.834,320.71,127.834C320.71,127.834,323.938,127.834,323.938,127.834C338.735,54.905,403.195,0,480.503,0C480.503,0,736.172,0,736.172,0C813.48,0,877.94,54.905,892.737,127.834C892.737,127.834,640.296,127.834,640.296,127.834C605.014,127.834,576.379,156.469,576.379,191.752C576.379,191.752,832.048,191.752,832.048,191.752C867.33,191.752,895.965,220.387,895.965,255.669C895.965,290.951,867.33,319.586,832.048,319.586C832.048,319.586,576.379,319.586,576.379,319.586C576.379,319.586,576.379,383.503,576.379,383.503C576.379,383.503,864.007,383.503,864.007,383.503C899.289,383.503,927.924,412.138,927.924,447.42C927.924,482.703,899.289,511.338,864.007,511.338C864.007,511.338,864.007,511.338,864.007,511.338" /><glyph unicode="&#x0052;" d="M898.094,928.095C877.14,927.999,853.532,927.744,822.086,927.008C795.759,926.368,771.063,911.333,775.286,893.963C807.979,736.254,808.235,576.722,779.572,419.014C775.926,401.644,799.15,386.577,824.23,385.969C854.236,385.233,877.364,384.977,898.189,384.881C915.304,384.817,928.164,399.149,928.228,416.807C928.228,416.807,928.228,896.17,928.228,896.17C928.1,913.828,915.368,928.159,898.094,928.095C898.094,928.095,898.094,928.095,898.094,928.095M704.301,896.17C704.301,896.17,701.07,896.17,701.07,896.17C686.259,969.106,621.736,1024,544.353,1024C544.353,1024,288.437,1024,288.437,1024C211.054,1024,146.532,969.106,131.72,896.17C131.72,896.17,384.406,896.17,384.406,896.17C419.722,896.17,448.385,867.539,448.385,832.255C448.385,832.255,192.469,832.255,192.469,832.255C157.152,832.255,128.49,803.624,128.49,768.34C128.49,733.055,157.152,704.425,192.469,704.425C192.469,704.425,448.385,704.425,448.385,704.425C448.385,704.425,448.385,640.51,448.385,640.51C448.385,640.51,160.479,640.51,160.479,640.51C125.163,640.51,96.5,611.879,96.5,576.595C96.5,541.31,125.163,512.679,160.479,512.679C160.479,512.679,448.385,512.679,448.385,512.679C448.385,512.679,448.385,448.764,448.385,448.764C448.385,448.764,160.479,448.764,160.479,448.764C125.163,448.764,96.5,420.134,96.5,384.849C96.5,349.565,125.163,320.934,160.479,320.934C160.479,320.934,440.387,320.934,440.387,320.934C440.387,320.934,436.389,272.982,436.389,272.982C436.389,272.982,416.395,113.162,416.395,113.162C416.395,51.39,466.523,1.327,528.359,1.327C590.226,1.327,640.322,-12.525,640.322,49.279C640.322,49.279,658.588,161.115,658.588,161.115C658.588,161.115,672.279,256.699,672.279,256.699C672.279,256.699,704.301,464.727,704.301,464.727C704.301,468.054,703.821,470.613,703.181,472.98C703.181,472.98,704.301,480.722,704.301,480.722C704.301,480.722,733.539,499.916,733.539,499.916C733.539,499.916,736.29,508.137,736.29,512.679C736.29,512.679,736.29,864.212,736.29,864.212C736.29,881.871,721.991,896.17,704.301,896.17C704.301,896.17,704.301,896.17,704.301,896.17" /><glyph unicode="&#x0053;" d="M128,768C128,768,192,768,192,768C192,768,192,832,192,832C192,832,128,832,128,832C128,832,128,768,128,768C128,768,128,768,128,768M896,960C896,960,128,960,128,960C57.312,960,0,902.688,0,832C0,832,0,64,0,64C0,64,1024,64,1024,64C1024,64,1024,832,1024,832C1024,902.688,966.688,960,896,960C896,960,896,960,896,960M960,128C960,128,64,128,64,128C64,128,64,640,64,640C64,640,960,640,960,640C960,640,960,128,960,128C960,128,960,128,960,128M960,704C960,704,64,704,64,704C64,704,64,832,64,832C64,867.328,92.672,896,128,896C128,896,896,896,896,896C931.328,896,960,867.328,960,832C960,832,960,704,960,704C960,704,960,704,960,704M864,832C864,832,416,832,416,832C398.336,832,384,817.664,384,800C384,782.336,398.336,768,416,768C416,768,864,768,864,768C881.696,768,896,782.336,896,800C896,817.664,881.696,832,864,832C864,832,864,832,864,832M256,768C256,768,320,768,320,768C320,768,320,832,320,832C320,832,256,832,256,832C256,832,256,768,256,768C256,768,256,768,256,768" /><glyph unicode="&#x0054;" d="M928.077,1021.878C928.077,1021.878,928.077,1023.477,928.077,1023.477C928.077,1023.477,616.456,1023.477,616.456,1023.477C610.956,1024.18,605.361,1023.988,600.181,1021.814C590.717,1019.288,582.851,1013.021,579.014,1004.164C579.014,1004.164,9.328,434.511,9.328,434.511C-3.109,422.041,-3.109,401.865,9.328,389.427C9.328,389.427,388.927,9.828,388.927,9.828C401.397,-2.609,421.573,-2.609,434.011,9.828C434.011,9.828,1002.034,577.883,1002.034,577.883C1014.695,582.136,1024,593.743,1024,607.843C1024,607.843,1024,911.599,1024,911.599C1024,967.906,982.242,1014.044,928.077,1021.878C928.077,1021.878,928.077,1021.878,928.077,1021.878M832.154,767.683C796.855,767.683,768.206,796.332,768.206,831.631C768.206,866.931,796.855,895.58,832.154,895.58C867.454,895.58,896.103,866.931,896.103,831.631C896.103,796.332,867.454,767.683,832.154,767.683C832.154,767.683,832.154,767.683,832.154,767.683" /><glyph unicode="&#x0055;" d="M918.056,688.941C918.056,718.385,907.768,743.381,887.16,763.988C866.552,784.596,841.557,794.885,812.112,794.885C812.112,794.885,776.798,794.885,776.798,794.885C776.798,794.885,776.798,583.028,776.798,583.028C776.798,583.028,812.112,583.028,812.112,583.028C841.557,583.028,866.552,593.317,887.16,613.925C907.768,634.532,918.056,659.528,918.056,688.972C918.056,688.972,918.056,688.941,918.056,688.941M0,265.228C0,265.228,988.685,265.228,988.685,265.228C988.685,226.236,974.906,192.961,947.315,165.37C919.725,137.78,886.449,124,847.458,124C847.458,124,141.258,124,141.258,124C102.267,124,68.992,137.78,41.401,165.37C13.811,192.961,0.031,226.236,0.031,265.228C0.031,265.228,0,265.228,0,265.228M1024,688.941C1024,630.454,1003.299,580.525,961.929,539.155C920.559,497.785,870.63,477.084,812.143,477.084C812.143,477.084,776.829,477.084,776.829,477.084C776.829,477.084,776.829,459.442,776.829,459.442C776.829,425.611,764.686,396.537,740.402,372.284C716.117,348.03,687.075,335.888,653.243,335.857C653.243,335.857,264.844,335.857,264.844,335.857C231.013,335.857,201.939,347.999,177.685,372.284C153.432,396.568,141.289,425.611,141.258,459.442C141.258,459.442,141.258,865.514,141.258,865.514C141.258,875.061,144.75,883.341,151.732,890.355C158.715,897.368,166.995,900.86,176.573,900.829C176.573,900.829,812.143,900.829,812.143,900.829C870.63,900.829,920.559,880.128,961.929,838.758C1003.299,797.387,1024,747.459,1024,688.972C1024,688.972,1024,688.941,1024,688.941" /><glyph unicode="&#x0056;" d="M363.04,128.477C363.04,146.247,356.805,161.367,344.373,173.799C331.941,186.23,316.822,192.465,299.051,192.465C281.281,192.465,266.161,186.23,253.729,173.799C241.298,161.367,235.063,146.247,235.063,128.477C235.063,110.706,241.298,95.587,253.729,83.155C266.161,70.723,281.281,64.488,299.051,64.488C316.822,64.488,331.941,70.723,344.373,83.155C356.805,95.587,363.04,110.706,363.04,128.477C363.04,128.477,363.04,128.477,363.04,128.477M363.04,896.486C363.04,914.256,356.805,929.376,344.373,941.808C331.941,954.24,316.822,960.474,299.051,960.474C281.281,960.474,266.161,954.24,253.729,941.808C241.298,929.376,235.063,914.256,235.063,896.486C235.063,878.716,241.298,863.596,253.729,851.164C266.161,838.732,281.281,832.498,299.051,832.498C316.822,832.498,331.941,838.732,344.373,851.164C356.805,863.596,363.04,878.716,363.04,896.486C363.04,896.486,363.04,896.486,363.04,896.486M789.678,811.143C789.678,828.914,783.444,844.033,771.012,856.465C758.58,868.897,743.46,875.132,725.69,875.132C707.92,875.132,692.8,868.897,680.368,856.465C667.936,844.033,661.702,828.914,661.702,811.143C661.702,793.373,667.936,778.253,680.368,765.821C692.8,753.39,707.92,747.155,725.69,747.155C743.46,747.155,758.58,753.39,771.012,765.821C783.444,778.253,789.678,793.373,789.678,811.143C789.678,811.143,789.678,811.143,789.678,811.143M853.704,811.143C853.704,788.034,847.917,766.568,836.382,746.819C824.846,727.07,809.278,711.614,789.716,700.489C788.82,572.923,738.607,480.935,639.041,424.488C608.838,407.576,563.703,389.582,503.709,370.505C446.814,352.734,409.146,336.943,390.703,323.167C372.261,309.391,363.04,287.141,363.04,256.491C363.04,256.491,363.04,239.168,363.04,239.168C382.602,228.08,398.17,212.625,409.706,192.838C421.241,173.052,427.028,151.623,427.028,128.514C427.028,92.936,414.596,62.734,389.695,37.833C364.794,12.932,334.592,0.5,299.014,0.5C263.436,0.5,233.234,12.932,208.333,37.833C183.432,62.734,171,92.936,171,128.514C171,151.623,176.787,173.089,188.322,192.838C199.858,212.587,215.426,228.043,234.988,239.168C234.988,239.168,234.988,785.832,234.988,785.832C215.426,796.92,199.858,812.375,188.322,832.162C176.787,851.948,171,873.377,171,896.486C171,932.064,183.432,962.266,208.333,987.167C233.234,1012.068,263.436,1024.5,299.014,1024.5C334.592,1024.5,364.794,1012.068,389.695,987.167C414.596,962.266,427.028,932.064,427.028,896.486C427.028,873.377,421.241,851.911,409.706,832.162C398.17,812.413,382.602,796.957,363.04,785.832C363.04,785.832,363.04,454.504,363.04,454.504C387.045,466.039,421.241,478.733,465.705,492.508C490.158,500.087,509.571,506.62,524.018,512.183C538.466,517.745,554.109,524.614,571.02,532.865C587.932,541.116,601.036,549.889,610.369,559.185C619.702,568.48,628.7,579.83,637.361,593.195C646.022,606.56,652.256,622.016,656.027,639.525C659.798,657.034,661.702,677.38,661.702,700.526C642.139,711.614,626.572,727.07,615.036,746.856C603.5,766.643,597.713,788.072,597.713,811.181C597.713,846.759,610.145,876.961,635.046,901.862C659.947,926.763,690.149,939.195,725.727,939.195C761.305,939.195,791.508,926.763,816.409,901.862C841.31,876.961,853.741,846.759,853.741,811.181C853.741,811.181,853.704,811.143,853.704,811.143" /><glyph unicode="&#x0057;" d="M1024,585.161C1024,518.891,1001.153,457.645,955.426,401.455C909.7,345.265,847.622,300.882,769.16,268.307C690.698,235.732,604.973,219.445,512.016,219.445C485.361,219.445,457.746,220.981,429.171,224.021C353.749,157.367,266.136,111.256,166.331,85.753C147.675,80.409,125.948,76.217,101.181,73.177C94.685,72.409,88.893,74.137,83.741,78.329C78.59,82.521,75.262,88.057,73.726,94.905C73.726,94.905,73.726,95.481,73.726,95.481C72.574,96.985,72.478,99.289,73.438,102.328C74.398,105.368,74.782,107.288,74.59,108.056C74.398,108.824,75.262,110.648,77.15,113.496C77.15,113.496,80.573,118.648,80.573,118.648C80.573,118.648,81.917,120.28,84.573,123.512C87.229,126.744,88.765,128.472,89.149,128.664C91.805,131.704,97.725,138.295,106.877,148.375C116.028,158.455,122.588,165.718,126.588,170.102C130.588,174.486,136.476,182.006,144.315,192.662C152.155,203.317,158.331,213.013,162.875,221.813C167.419,230.612,172.571,241.844,178.298,255.54C184.026,269.235,188.986,283.699,193.146,298.962C133.34,332.849,86.173,374.768,51.71,424.686C17.247,474.605,0,528.139,0,585.257C0,634.76,13.536,682.118,40.575,727.269C67.614,772.419,103.997,811.394,149.723,844.129C195.45,876.864,249.912,902.879,313.142,922.143C376.372,941.406,442.642,951.038,511.984,951.006C604.941,951.006,690.634,934.718,769.128,902.143C847.622,869.568,909.7,825.186,955.394,768.996C1001.089,712.805,1023.936,651.559,1023.968,585.289C1023.968,585.289,1024,585.161,1024,585.161" /><glyph unicode="&#x0058;" d="M804.583,622.048C804.583,569.09,786.663,520.163,750.857,475.205C715.05,430.246,666.187,394.727,604.301,368.648C542.415,342.569,475.089,329.513,402.291,329.513C369.524,329.513,335.99,332.553,301.719,338.665C254.488,305.162,201.53,280.779,142.876,265.515C129.148,262.091,112.764,259.019,93.725,256.363C93.725,256.363,91.997,256.363,91.997,256.363C87.805,256.363,83.901,257.899,80.285,260.939C76.67,263.979,74.462,267.979,73.726,272.939C73.342,274.091,73.15,275.339,73.15,276.651C73.15,277.963,73.246,279.211,73.438,280.363C73.63,281.515,74.014,282.667,74.59,283.787C74.59,283.787,76.03,286.635,76.03,286.635C76.03,286.635,76.702,287.69,78.046,289.77C79.39,291.85,80.157,292.81,80.317,292.618C80.477,292.426,81.341,293.386,82.877,295.466C84.413,297.546,85.181,298.41,85.149,298.026C87.037,300.298,91.421,305.066,98.301,312.298C105.181,319.529,110.109,325.161,113.148,329.161C116.188,333.161,120.476,338.697,126.012,345.737C131.548,352.776,136.316,360.104,140.284,367.752C144.251,375.4,148.155,383.783,151.995,392.903C104.765,420.326,67.614,454.053,40.575,494.052C13.536,534.051,0,576.705,0,622.048C0,675.006,17.919,723.933,53.726,768.891C89.533,813.85,138.396,849.369,200.282,875.448C262.168,901.527,329.494,914.583,402.259,914.583C475.025,914.583,542.351,901.527,604.269,875.448C666.187,849.369,715.018,813.85,750.825,768.891C786.631,723.933,804.519,675.006,804.551,622.048C804.551,622.048,804.583,622.048,804.583,622.048M1024,475.749C1024,430.022,1010.464,387.271,983.425,347.465C956.386,307.658,919.235,274.027,872.005,246.604C875.813,237.452,879.717,229.068,883.716,221.453C887.716,213.837,892.452,206.509,897.988,199.437C903.524,192.365,907.812,186.862,910.852,182.862C913.891,178.862,918.851,173.262,925.699,165.998C932.547,158.735,936.931,153.999,938.851,151.727C939.235,151.343,940.003,150.479,941.123,149.167C942.243,147.855,943.107,146.895,943.683,146.319C944.258,145.743,945.026,144.783,945.954,143.471C946.882,142.159,947.554,141.103,947.97,140.335C947.97,140.335,949.41,137.487,949.41,137.487C949.41,137.487,949.794,136.335,950.562,134.063C951.33,131.791,951.426,130.543,950.85,130.351C950.274,130.159,950.082,128.911,950.274,126.64C949.122,121.296,946.658,117.104,942.851,114.064C939.043,111.024,934.851,109.68,930.275,110.064C911.236,112.72,894.852,115.792,881.124,119.216C822.47,134.447,769.512,158.831,722.281,192.365C688.01,186.254,654.476,183.214,621.709,183.214C518.48,183.214,428.563,208.365,351.989,258.635C374.1,257.131,390.836,256.363,402.259,256.363C463.602,256.363,522.448,264.939,578.83,282.091C635.212,299.242,685.483,323.817,729.673,355.816C777.288,390.855,813.863,431.238,839.398,476.965C864.933,522.691,877.701,571.074,877.669,622.112C877.669,651.455,873.285,680.382,864.517,708.957C913.667,681.918,952.514,647.999,981.089,607.233C1009.664,566.466,1023.936,522.659,1023.936,475.813C1023.936,475.813,1024,475.749,1024,475.749" /><glyph unicode="&#x0059;" d="M969.15,805.069C984.383,805.069,997.343,799.725,1007.999,789.069C1018.656,778.412,1024,765.452,1024,750.219C1024,750.219,1024,55.35,1024,55.35C1024,40.117,1018.656,27.157,1007.999,16.501C997.343,5.844,984.383,0.5,969.15,0.5C969.15,0.5,420.557,0.5,420.557,0.5C405.325,0.5,392.364,5.844,381.708,16.501C371.052,27.157,365.707,40.117,365.707,55.35C365.707,55.35,365.707,219.931,365.707,219.931C365.707,219.931,54.85,219.931,54.85,219.931C39.617,219.931,26.657,225.275,16.001,235.931C5.344,246.588,0,259.548,0,274.781C0,274.781,0,658.793,0,658.793C0,674.025,3.808,690.794,11.424,709.066C19.041,727.339,28.193,741.835,38.849,752.491C38.849,752.491,272.009,985.651,272.009,985.651C282.665,996.307,297.161,1005.459,315.434,1013.076C333.706,1020.692,350.475,1024.5,365.707,1024.5C365.707,1024.5,603.443,1024.5,603.443,1024.5C618.675,1024.5,631.636,1019.156,642.292,1008.499C652.948,997.843,658.293,984.883,658.293,969.65C658.293,969.65,658.293,782.22,658.293,782.22C684.181,797.453,708.566,805.069,731.447,805.069C731.447,805.069,969.182,805.069,969.182,805.069C969.182,805.069,969.15,805.069,969.15,805.069M658.261,683.337C658.261,683.337,487.407,512.484,487.407,512.484C487.407,512.484,658.261,512.484,658.261,512.484C658.261,512.484,658.261,683.337,658.261,683.337C658.261,683.337,658.261,683.337,658.261,683.337M292.553,902.768C292.553,902.768,121.7,731.915,121.7,731.915C121.7,731.915,292.553,731.915,292.553,731.915C292.553,731.915,292.553,902.768,292.553,902.768C292.553,902.768,292.553,902.768,292.553,902.768M404.557,533.061C404.557,533.061,585.138,713.642,585.138,713.642C585.138,713.642,585.138,951.378,585.138,951.378C585.138,951.378,365.707,951.378,365.707,951.378C365.707,951.378,365.707,713.642,365.707,713.642C365.707,698.41,360.363,685.449,349.707,674.793C339.051,664.137,326.09,658.793,310.858,658.793C310.858,658.793,73.122,658.793,73.122,658.793C73.122,658.793,73.122,293.053,73.122,293.053C73.122,293.053,365.707,293.053,365.707,293.053C365.707,293.053,365.707,439.33,365.707,439.33C365.707,454.562,369.516,471.331,377.132,489.603C384.748,507.876,393.9,522.372,404.557,533.029C404.557,533.029,404.557,533.061,404.557,533.061M950.846,73.622C950.846,73.622,950.846,731.915,950.846,731.915C950.846,731.915,731.415,731.915,731.415,731.915C731.415,731.915,731.415,494.179,731.415,494.179C731.415,478.947,726.071,465.987,715.414,455.33C704.758,444.674,691.798,439.33,676.565,439.33C676.565,439.33,438.83,439.33,438.83,439.33C438.83,439.33,438.83,73.59,438.83,73.59C438.83,73.59,950.846,73.59,950.846,73.59C950.846,73.59,950.846,73.622,950.846,73.622" /><glyph unicode="&#x005a;" d="M296.96,399.66C296.96,399.66,296.96,717.1,296.96,717.1C296.96,717.1,102.4,717.1,102.4,717.1C46.08,717.1,0,671.02,0,614.7C0,614.7,0,307.5,0,307.5C0,251.18,46.08,205.1,102.4,205.1C102.4,205.1,153.6,205.1,153.6,205.1C153.6,205.1,153.6,51.5,153.6,51.5C153.6,51.5,307.2,205.1,307.2,205.1C307.2,205.1,563.2,205.1,563.2,205.1C619.52,205.1,665.6,251.18,665.6,307.5C665.6,307.5,665.6,400.684,665.6,400.684C662.336,399.98,658.848,399.596,655.36,399.596C655.36,399.596,296.96,399.596,296.96,399.596C296.96,399.596,296.96,399.66,296.96,399.66M921.6,973.1C921.6,973.1,460.8,973.1,460.8,973.1C404.48,973.1,358.4,927.02,358.4,870.7C358.4,870.7,358.4,461.1,358.4,461.1C358.4,461.1,716.8,461.1,716.8,461.1C716.8,461.1,870.4,307.5,870.4,307.5C870.4,307.5,870.4,461.1,870.4,461.1C870.4,461.1,921.6,461.1,921.6,461.1C977.92,461.1,1024,507.18,1024,563.5C1024,563.5,1024,870.7,1024,870.7C1024,927.02,977.92,973.1,921.6,973.1C921.6,973.1,921.6,973.1,921.6,973.1" /><glyph unicode="&#x0061;" d="M709.318,764.251C622.665,782.081,534.7,791.108,447.95,791.108C361.201,791.108,273.268,782.081,186.583,764.251C175.379,761.946,166.224,753.816,162.607,742.9C116.447,602.661,116.447,460.469,162.607,320.23C166.192,309.346,175.347,301.216,186.583,298.911C273.268,281.113,361.201,272.054,447.95,272.054C534.668,272.054,622.665,281.113,709.318,298.943C720.586,301.248,729.709,309.378,733.326,320.262C779.454,460.501,779.454,602.693,733.326,742.932C729.709,753.816,720.554,761.946,709.318,764.251C709.318,764.251,709.318,764.251,709.318,764.251M702.884,330.249C532.939,295.358,362.962,295.358,193.049,330.249C148.842,464.47,148.842,598.659,193.049,732.913C362.994,767.836,532.971,767.836,702.884,732.913C747.091,598.691,747.091,464.502,702.884,330.249C702.884,330.249,702.884,330.249,702.884,330.249M987.3,838.004C981.122,864.061,959.29,883.523,932.721,886.724C793.154,903.69,651.603,912.269,511.972,912.269C372.373,912.269,230.822,903.69,91.255,886.756C64.686,883.523,42.886,864.093,36.708,838.004C-12.236,632.399,-12.236,423.913,36.708,218.276C42.886,192.219,64.686,172.756,91.255,169.587C158.509,161.393,226.212,155.407,293.915,151.149C290.266,148.812,287.897,146.444,287.897,144.011C287.897,126.309,388.218,112,511.972,112C635.726,112,736.047,126.309,736.047,144.011C736.047,146.444,733.678,148.812,730.029,151.149C797.732,155.407,865.435,161.393,932.657,169.587C959.226,172.788,981.058,192.219,987.236,218.276C1036.244,423.913,1036.244,632.399,987.3,838.004C987.3,838.004,987.3,838.004,987.3,838.004M925.007,233.097C649.65,199.709,374.294,199.709,98.969,233.097C52.138,429.803,52.138,626.509,98.969,823.183C374.326,856.602,649.682,856.602,925.007,823.183C971.838,626.509,971.838,429.803,925.007,233.097C925.007,233.097,925.007,233.097,925.007,233.097M848.117,656.183C874.622,656.183,896.133,677.694,896.133,704.199C896.133,730.704,874.622,752.215,848.117,752.215C821.612,752.215,800.101,730.704,800.101,704.199C800.101,677.694,821.612,656.183,848.117,656.183C848.117,656.183,848.117,656.183,848.117,656.183M848.117,720.204C856.92,720.204,864.122,713.002,864.122,704.199C864.122,695.396,856.92,688.194,848.117,688.194C839.314,688.194,832.112,695.396,832.112,704.199C832.112,713.002,839.282,720.204,848.117,720.204C848.117,720.204,848.117,720.204,848.117,720.204M880.128,336.075C880.128,336.075,784.095,336.075,784.095,336.075C775.228,336.075,768.09,328.937,768.09,320.07C768.09,311.267,775.228,304.065,784.095,304.065C784.095,304.065,880.128,304.065,880.128,304.065C888.931,304.065,896.133,311.267,896.133,320.07C896.133,328.937,888.931,336.075,880.128,336.075C880.128,336.075,880.128,336.075,880.128,336.075M912.138,432.108C912.138,432.108,816.106,432.108,816.106,432.108C807.239,432.108,800.101,424.969,800.101,416.102C800.101,407.299,807.239,400.097,816.106,400.097C816.106,400.097,912.138,400.097,912.138,400.097C920.941,400.097,928.144,407.299,928.144,416.102C928.144,424.969,920.941,432.108,912.138,432.108C912.138,432.108,912.138,432.108,912.138,432.108M912.138,528.14C912.138,528.14,816.106,528.14,816.106,528.14C807.239,528.14,800.101,520.969,800.101,512.134C800.101,503.299,807.239,496.129,816.106,496.129C816.106,496.129,912.138,496.129,912.138,496.129C920.941,496.129,928.144,503.299,928.144,512.134C928.144,520.969,920.941,528.14,912.138,528.14C912.138,528.14,912.138,528.14,912.138,528.14M431.945,662.457C431.945,662.457,285.144,650.965,285.144,650.965C276.405,649.973,268.05,642.034,266.578,633.327C266.578,633.327,256.814,544.145,256.814,544.145C256.366,535.342,263.184,528.14,271.955,528.14C280.694,528.14,288.185,535.342,288.537,544.145C288.537,544.145,293.883,604.806,293.883,604.806C295.067,613.512,303.198,621.387,311.937,622.283C311.937,622.283,431.945,630.51,431.945,630.51C440.748,630.83,447.95,638.257,447.95,647.092C447.95,655.927,440.78,662.809,431.945,662.457C431.945,662.457,431.945,662.457,431.945,662.457" /><glyph unicode="&#x0062;" d="M794.624,657.76C788.672,666.656,778.688,672,768,672C768,672,736,672,736,672C718.304,672,704,657.696,704,640C704,640,704,448,704,448C704,430.304,718.304,416,736,416C736,416,864,416,864,416C881.696,416,896,430.304,896,448C896,448,896,496,896,496C896,502.304,894.112,508.512,890.624,513.76C890.624,513.76,794.624,657.76,794.624,657.76C794.624,657.76,794.624,657.76,794.624,657.76M864,448C864,448,736,448,736,448C736,448,736,640,736,640C736,640,768,640,768,640C768,640,864,496,864,496C864,496,864,448,864,448C864,448,864,448,864,448M1007.872,533.248C1007.872,533.248,879.872,725.248,879.872,725.248C862.016,752.032,832.128,768,800,768C800,768,672,768,672,768C672,768,672,832,672,832C672,884.928,628.928,928,576,928C576,928,96,928,96,928C43.072,928,0,884.928,0,832C0,832,0,480,0,480C0,427.072,43.072,384,96,384C96,384,96,384,96,384C96,384,96,288,96,288C96,235.072,139.072,192,192,192C192,192,228.544,192,228.544,192C242.848,136.928,292.544,96,352.032,96C411.456,96,461.152,136.928,475.456,192C475.456,192,644.48,192,644.48,192C658.784,136.928,708.48,96,767.968,96C827.392,96,877.088,136.928,891.392,192C891.392,192,928,192,928,192C980.928,192,1024,235.072,1024,288C1024,288,1024,480,1024,480C1024,499.008,1018.432,517.44,1007.872,533.248C1007.872,533.248,1007.872,533.248,1007.872,533.248M96,448C78.336,448,64,462.304,64,480C64,480,64,832,64,832C64,849.696,78.336,864,96,864C96,864,576,864,576,864C593.696,864,608,849.696,608,832C608,832,608,768,608,768C608,768,608,704,608,704C608,704,608,480,608,480C608,462.304,593.696,448,576,448C576,448,96,448,96,448C96,448,96,448,96,448M352.032,160C316.672,160,288.032,188.672,288.032,224C288.032,259.328,316.672,288,352.032,288C387.36,288,416.032,259.328,416.032,224C416.032,188.672,387.328,160,352.032,160C352.032,160,352.032,160,352.032,160M768,160C732.64,160,704,188.672,704,224C704,259.328,732.64,288,768,288C803.328,288,832,259.328,832,224C832,188.672,803.328,160,768,160C768,160,768,160,768,160M960,288C960,270.304,945.696,256,928,256C928,256,891.424,256,891.424,256C877.12,311.072,827.424,352,768,352C708.512,352,658.816,311.072,644.512,256C644.512,256,475.488,256,475.488,256C461.184,311.072,411.488,352,352.064,352C292.576,352,242.88,311.072,228.576,256C228.576,256,192,256,192,256C174.336,256,160,270.304,160,288C160,288,160,384,160,384C160,384,576,384,576,384C628.928,384,672,427.072,672,480C672,480,672,704,672,704C672,704,800,704,800,704C810.688,704,820.672,698.656,826.624,689.76C826.624,689.76,954.624,497.76,954.624,497.76C958.112,492.512,960,486.304,960,480C960,480,960,288,960,288C960,288,960,288,960,288" /><glyph unicode="&#x0063;" d="M1009.837,1018.88C1004.525,1022.304,998.478,1024,992.462,1024C986.286,1024,980.078,1022.24,974.702,1018.624C974.702,1018.624,14.732,378.644,14.732,378.644C4.845,372.084,-0.595,360.533,0.685,348.693C1.901,336.885,9.581,326.678,20.62,322.326C20.62,322.326,270.98,222.137,270.98,222.137C270.98,222.137,388.705,16.127,388.705,16.127C394.337,6.24,404.8,0.128,416.128,0C416.256,0,416.352,0,416.48,0C427.712,0,438.143,5.952,443.903,15.552C443.903,15.552,510.365,126.364,510.365,126.364C510.365,126.364,820.595,2.304,820.595,2.304C824.403,0.768,828.403,0.032,832.467,0.032C837.907,0.032,843.283,1.408,848.146,4.16C856.594,8.896,862.386,17.215,864.018,26.783C864.018,26.783,1024.013,986.753,1024.013,986.753C1026.093,999.329,1020.525,1011.936,1009.837,1018.88C1009.837,1018.88,1009.837,1018.88,1009.837,1018.88M100.842,359.157C100.842,359.157,842.419,853.573,842.419,853.573C842.419,853.573,303.235,276.407,303.235,276.407C300.387,278.103,297.86,280.343,294.724,281.591C294.724,281.591,100.842,359.157,100.842,359.157C100.842,359.157,100.842,359.157,100.842,359.157M326.531,253.912C326.467,254.04,326.371,254.104,326.307,254.232C326.307,254.232,932.464,903.012,932.464,903.012C932.464,903.012,415.712,97.853,415.712,97.853C415.712,97.853,326.531,253.912,326.531,253.912C326.531,253.912,326.531,253.912,326.531,253.912M807.412,76.542C807.412,76.542,534.108,185.85,534.108,185.85C527.612,188.41,520.861,189.274,514.173,189.658C514.173,189.658,935.024,842.054,935.024,842.054C935.024,842.054,807.412,76.542,807.412,76.542C807.412,76.542,807.412,76.542,807.412,76.542" /><glyph unicode="&#x0064;" d="M768,1024C768,1024,256,1024,256,1024C202.944,1024,160,981.024,160,928C160,928,160,96,160,96C160,42.944,202.976,0,256,0C256,0,768,0,768,0C820.992,0,864,43.008,864,96C864,96,864,928,864,928C864,981.056,820.992,1024,768,1024C768,1024,768,1024,768,1024M800,96C800,78.368,785.632,64,768,64C768,64,256,64,256,64C238.336,64,224,78.304,224,96C224,96,224,160.128,224,160.128C224,160.128,800,160.128,800,160.128C800,160.128,800,96,800,96C800,96,800,96,800,96M800,192.128C800,192.128,224,192.128,224,192.128C224,192.128,224,832,224,832C224,832,800,832,800,832C800,832,800,192.128,800,192.128C800,192.128,800,192.128,800,192.128M800,864C800,864,224,864,224,864C224,864,224,928,224,928C224,945.664,238.336,960,256,960C256,960,768,960,768,960C785.632,960,800,945.664,800,928C800,928,800,864,800,864C800,864,800,864,800,864M576,912C576,903.168,568.8,896,560,896C560,896,464,896,464,896C455.136,896,448,903.168,448,912C448,912,448,912,448,912C448,920.864,455.136,928,464,928C464,928,560,928,560,928C568.8,928,576,920.864,576,912C576,912,576,912,576,912C576,912,576,912,576,912M544,112.128C544,103.328,536.8,96.128,528,96.128C528,96.128,496,96.128,496,96.128C487.168,96.128,480,103.328,480,112.128C480,112.128,480,112.128,480,112.128C480,120.992,487.168,128.128,496,128.128C496,128.128,528,128.128,528,128.128C536.8,128.128,544,120.992,544,112.128C544,112.128,544,112.128,544,112.128C544,112.128,544,112.128,544,112.128" /><glyph unicode="&#x0065;" d="M1024,768C1024,812.992,993.376,851.456,949.568,861.568C949.568,861.568,533.152,957.664,533.152,957.664C526.176,959.232,519.072,960,512,960C504.928,960,497.824,959.232,490.4,957.568C490.4,957.568,74.432,861.568,74.432,861.568C30.592,851.456,0,812.992,0,768C0,723.008,30.624,684.544,74.4,674.432C74.4,674.432,160,654.688,160,654.688C160,654.688,160,384,160,384C160,299.072,257.216,224,512,224C766.784,224,864,299.072,864,384C864,384,864,654.688,864,654.688C864,654.688,949.568,674.432,949.568,674.432C993.376,684.544,1024,723.008,1024,768C1024,768,1024,768,1024,768M800,384C800,348.64,704,288,512,288C320,288,224,348.64,224,384C224,384,224,639.904,224,639.904C224,639.904,490.816,578.336,490.816,578.336C497.792,576.768,504.928,576,512,576C519.072,576,526.208,576.768,533.568,578.432C533.568,578.432,800,639.904,800,639.904C800,639.904,800,384,800,384C800,384,800,384,800,384M519.2,640.8C516.8,640.288,514.4,640,512,640C509.6,640,507.168,640.288,504.8,640.8C504.8,640.8,88.8,736.8,88.8,736.8C74.272,740.16,64,753.088,64,768C64,782.912,74.272,795.84,88.8,799.2C88.8,799.2,504.8,895.2,504.8,895.2C507.168,895.712,509.568,896,512,896C514.432,896,516.832,895.712,519.2,895.2C519.2,895.2,935.2,799.2,935.2,799.2C949.696,795.84,960,782.912,960,768C960,753.088,949.696,740.16,935.2,736.8C935.2,736.8,519.2,640.8,519.2,640.8C519.2,640.8,519.2,640.8,519.2,640.8M928,608C928,608,928,320,928,320C928,302.304,942.304,288,960,288C977.664,288,992,302.304,992,320C992,320,992,608,992,608C992,625.696,977.664,640,960,640C942.304,640,928,625.696,928,608C928,608,928,608,928,608M960,256C924.64,256,896,163.328,896,128C896,92.672,924.64,64,960,64C995.328,64,1024,92.672,1024,128C1024,163.328,995.328,256,960,256C960,256,960,256,960,256" /><glyph unicode="&#x0066;" d="M1024,192C1024,85.952,937.984,0,832,0C726.016,0,640,85.952,640,192C640,275.52,693.632,345.792,768,372.224C768,372.224,768,704,768,704C768,739.392,739.392,768,704,768C704,768,704,704.064,704,704.064C704,678.208,688.384,654.784,664.512,644.928C640.576,635.008,613.056,640.512,594.752,658.752C594.752,658.752,466.752,786.816,466.752,786.816C454.272,799.296,448,815.616,448,832.064C448,848.384,454.272,864.768,466.752,877.248C466.752,877.248,594.752,1005.248,594.752,1005.248C613.056,1023.552,640.576,1028.992,664.512,1019.136C688.384,1009.28,704,985.92,704,960.064C704,960.064,704,896,704,896C809.984,896,896,810.048,896,704C896,704,896,372.224,896,372.224C970.368,345.792,1024,275.52,1024,192C1024,192,1024,192,1024,192M832,256C796.608,256,768,227.392,768,192C768,156.608,796.608,128,832,128C867.392,128,896,156.608,896,192C896,227.392,867.392,256,832,256C832,256,832,256,832,256M384,192C384,85.952,298.048,0,192,0C85.952,0,0,85.952,0,192C0,275.52,53.568,345.792,128,372.224C128,372.224,128,651.776,128,651.776C53.568,678.208,0,748.48,0,832C0,938.048,85.952,1024,192,1024C298.048,1024,384,938.048,384,832C384,748.48,330.432,678.208,256,651.776C256,651.776,256,372.288,256,372.288C330.432,345.792,384,275.52,384,192C384,192,384,192,384,192M192,896C156.672,896,128,867.392,128,832C128,796.608,156.672,768,192,768C227.328,768,256,796.608,256,832C256,867.392,227.328,896,192,896C192,896,192,896,192,896M192,256C156.672,256,128,227.392,128,192C128,156.608,156.672,128,192,128C227.328,128,256,156.608,256,192C256,227.392,227.328,256,192,256C192,256,192,256,192,256" /><glyph unicode="&#x0067;" d="M950.857,902.19C910.531,902.19,877.714,869.374,877.714,829.048C877.714,807.397,887.369,788.112,902.363,774.702C902.363,774.702,687.811,432.613,687.811,432.613C678.766,436.636,668.794,438.952,658.286,438.952C637.123,438.952,618.203,429.785,604.818,415.376C604.818,415.376,383.61,555.445,383.61,555.445C387.706,564.563,390.095,574.608,390.095,585.238C390.095,625.564,357.278,658.381,316.952,658.381C276.626,658.381,243.81,625.564,243.81,585.238C243.81,563.198,253.806,543.644,269.263,530.235C269.263,530.235,101.157,262.654,101.157,262.654C92.526,266.262,83.066,268.286,73.143,268.286C32.817,268.286,0,235.469,0,195.143C0,154.817,32.817,122,73.143,122C113.469,122,146.286,154.817,146.286,195.143C146.286,216.793,136.655,236.054,121.661,249.464C121.661,249.464,289.987,517.41,289.987,517.41C298.35,514.046,307.419,512.095,316.952,512.095C337.896,512.095,356.669,521.043,370.005,535.184C370.005,535.184,591.336,395.042,591.336,395.042C587.41,386.07,585.143,376.22,585.143,365.81C585.143,325.483,617.96,292.667,658.286,292.667C698.612,292.667,731.429,325.483,731.429,365.81C731.429,386.85,722.383,405.697,708.096,419.058C708.096,419.058,922.892,761.512,922.892,761.512C931.523,757.928,940.958,755.905,950.857,755.905C991.183,755.905,1024,788.722,1024,829.048C1024,869.374,991.183,902.19,950.857,902.19C950.857,902.19,950.857,902.19,950.857,902.19M121.905,195.143C121.905,168.251,100.035,146.381,73.143,146.381C46.251,146.381,24.381,168.251,24.381,195.143C24.381,222.035,46.251,243.905,73.143,243.905C100.035,243.905,121.905,222.035,121.905,195.143C121.905,195.143,121.905,195.143,121.905,195.143M316.952,536.476C290.06,536.476,268.19,558.346,268.19,585.238C268.19,612.13,290.06,634,316.952,634C343.845,634,365.714,612.13,365.714,585.238C365.714,558.346,343.845,536.476,316.952,536.476C316.952,536.476,316.952,536.476,316.952,536.476M658.286,317.048C631.394,317.048,609.524,338.917,609.524,365.81C609.524,392.702,631.394,414.571,658.286,414.571C685.178,414.571,707.048,392.702,707.048,365.81C707.048,338.917,685.178,317.048,658.286,317.048C658.286,317.048,658.286,317.048,658.286,317.048M950.857,780.286C923.965,780.286,902.095,802.155,902.095,829.048C902.095,855.94,923.965,877.81,950.857,877.81C977.749,877.81,999.619,855.94,999.619,829.048C999.619,802.155,977.749,780.286,950.857,780.286C950.857,780.286,950.857,780.286,950.857,780.286" /><glyph unicode="&#x0068;" d="M73.143,892.462C65.068,892.462,58.514,885.909,58.514,877.834C58.514,877.834,58.514,380.462,58.514,380.462C58.514,356.267,78.204,336.577,102.4,336.577C102.4,336.577,921.6,336.577,921.6,336.577C945.796,336.577,965.486,356.267,965.486,380.462C965.486,380.462,965.486,877.834,965.486,877.834C965.486,885.909,958.932,892.462,950.857,892.462C942.782,892.462,936.229,885.909,936.229,877.834C936.229,877.834,936.229,380.462,936.229,380.462C936.229,372.388,929.675,365.834,921.6,365.834C921.6,365.834,102.4,365.834,102.4,365.834C94.325,365.834,87.771,372.388,87.771,380.462C87.771,380.462,87.771,877.834,87.771,877.834C87.771,885.909,81.218,892.462,73.143,892.462C73.143,892.462,73.143,892.462,73.143,892.462M1009.371,980.234C1009.371,980.234,14.629,980.234,14.629,980.234C6.554,980.234,0,973.68,0,965.605C0,957.53,6.554,950.977,14.629,950.977C14.629,950.977,1009.371,950.977,1009.371,950.977C1017.446,950.977,1024,957.53,1024,965.605C1024,973.68,1017.446,980.234,1009.371,980.234C1009.371,980.234,1009.371,980.234,1009.371,980.234M405.328,741.905C399.974,747.259,391.431,747.64,385.609,742.812C385.609,742.812,210.066,596.526,210.066,596.526C203.864,591.348,203.015,582.132,208.194,575.9C213.372,569.698,222.559,568.849,228.82,574.028C228.82,574.028,394.094,711.77,394.094,711.77C394.094,711.77,560.187,545.678,560.187,545.678C563.024,542.81,566.769,541.377,570.514,541.377C574.259,541.377,578.004,542.81,580.871,545.648C580.871,545.648,789.943,754.749,789.943,754.749C789.943,754.749,789.943,643.777,789.943,643.777C789.943,635.702,796.496,629.148,804.571,629.148C812.646,629.148,819.2,635.702,819.2,643.777C819.2,643.777,819.2,790.062,819.2,790.062C819.2,791.964,818.82,793.866,818.088,795.651C816.596,799.22,813.758,802.087,810.16,803.579C808.375,804.311,806.473,804.691,804.571,804.691C804.571,804.691,658.286,804.691,658.286,804.691C650.211,804.691,643.657,798.137,643.657,790.062C643.657,781.988,650.211,775.434,658.286,775.434C658.286,775.434,769.258,775.434,769.258,775.434C769.258,775.434,570.514,576.69,570.514,576.69C570.514,576.69,405.328,741.905,405.328,741.905C405.328,741.905,405.328,741.905,405.328,741.905M294.239,51.846C297.984,44.678,306.82,41.928,313.988,45.673C313.988,45.673,512,149.39,512,149.39C512,149.39,710.012,45.673,710.012,45.673C712.177,44.532,714.489,44.005,716.8,44.005C722.066,44.005,727.157,46.873,729.761,51.846C733.506,59.014,730.756,67.85,723.588,71.595C723.588,71.595,521.918,177.213,521.918,177.213C524.785,179.876,526.629,183.62,526.629,187.863C526.629,187.863,526.629,263.434,526.629,263.434C526.629,271.509,520.075,278.062,512,278.062C503.925,278.062,497.371,271.509,497.371,263.434C497.371,263.434,497.371,187.863,497.371,187.863C497.371,183.65,499.215,179.905,502.082,177.242C502.082,177.242,300.412,71.624,300.412,71.624C293.244,67.85,290.494,59.014,294.239,51.846C294.239,51.846,294.239,51.846,294.239,51.846" /><glyph unicode="&#x0069;" d="M586.384,865.897C586.384,922.801,540.774,980.202,438.874,980.202C349.145,980.202,288.818,934.269,288.818,865.897C288.818,825.992,304.968,807.794,315.646,795.741C321.293,789.392,323.575,786.525,323.575,783.658C323.575,778.918,323.575,776.051,307.25,775.408C307.25,775.408,128.845,775.408,128.845,775.408C60.239,775.408,0.029,720.728,0.029,658.382C0.029,658.382,0.029,549.198,0.029,549.198C1.141,521.58,16.735,504.407,40.754,504.407C54.417,504.407,64.539,512.218,74.37,519.795C87.535,529.889,102.426,541.357,131.683,541.357C181.301,541.357,234.08,500.34,234.08,424.332C234.08,347.417,180.599,293.79,132.59,293.79C103.626,293.79,88.471,306.341,75.072,317.4C65.037,325.709,54.68,334.31,40.725,334.31C16.735,334.31,1.112,317.137,0,288.934C0,288.934,0,168.924,0,168.924C0.029,103.537,61.438,44,128.845,44C128.845,44,308.157,44,308.157,44C335.307,45.112,352.831,61.115,352.831,84.842C352.831,99.09,344.727,108.247,337.559,116.322C327.963,127.117,318.075,138.264,318.075,167.052C318.075,218.719,365.002,252.1,437.587,252.1C510.201,252.1,557.128,218.719,557.128,167.052C557.128,138.264,547.21,127.117,537.643,116.322C530.475,108.247,522.342,99.09,522.342,84.842C522.342,60.793,539.457,45.17,567.631,44.029C567.631,44.029,682.93,44,682.93,44C745.89,44,789.891,93.063,789.891,163.307C789.891,163.307,789.891,299.349,789.891,299.349C790.652,302.918,799.663,316.552,813.413,316.552C816.222,316.552,819.06,314.241,825.379,308.623C837.374,297.886,855.542,281.649,895.389,281.649C959.285,281.678,1024,330.653,1024,424.332C1024,525.383,965.224,570.614,906.975,570.614C867.654,570.614,844.951,552.65,829.914,540.772C823.243,535.506,816.982,530.532,813.413,530.532C799.633,530.532,790.622,544.224,789.95,547.238C789.92,547.472,789.92,547.706,789.891,547.94C789.891,547.94,789.891,652.765,789.891,652.765C789.891,723.829,744.895,775.408,682.93,775.408C682.93,775.408,568.216,775.408,568.216,775.408C567.836,775.437,567.455,775.466,567.046,775.495C551.598,776.081,551.598,778.918,551.598,783.658C551.598,786.525,553.88,789.363,559.527,795.741C570.205,807.765,586.384,825.992,586.384,865.897C586.384,865.897,586.384,865.897,586.384,865.897M537.643,815.138C530.475,807.063,522.342,797.877,522.342,783.629C522.342,767.538,529.685,748.17,565.378,746.268C566.051,746.181,566.724,746.151,567.426,746.151C567.426,746.151,682.93,746.151,682.93,746.151C733.953,746.151,760.693,699.166,760.693,652.765C760.693,652.765,760.693,546.477,760.693,546.477C760.693,545.424,760.488,544.4,760.693,543.405C763.385,525.53,785.327,501.305,813.413,501.305C827.164,501.305,837.286,509.322,848.082,517.835C862.008,528.865,877.835,541.357,906.975,541.357C960.28,541.357,994.744,495.425,994.744,424.332C994.744,346.393,943.223,310.935,895.389,310.935C866.747,310.935,855.63,320.852,844.864,330.449C836.789,337.646,827.632,345.808,813.413,345.808C785.327,345.808,763.356,321.555,760.693,303.679C760.488,302.684,760.693,301.66,760.693,300.607C760.693,300.607,760.693,163.278,760.693,163.278C760.693,118.487,736.615,73.256,682.93,73.256C682.93,73.256,568.216,73.256,568.216,73.256C551.598,73.929,551.598,81.594,551.598,84.842C551.598,87.68,553.88,90.547,559.527,96.925C570.205,108.978,586.384,127.176,586.384,167.081C586.384,223.985,540.393,281.386,437.587,281.386C348.618,281.386,288.818,235.453,288.818,167.081C288.818,127.176,304.968,108.978,315.676,96.925C321.293,90.576,323.604,87.709,323.604,84.842C323.604,81.565,323.604,73.9,307.572,73.256C307.572,73.256,128.845,73.256,128.845,73.256C78.612,73.256,29.286,120.652,29.286,168.924C29.286,168.924,29.286,288.349,29.286,288.349C29.929,305.054,37.507,305.054,40.754,305.054C44.148,305.054,50.116,300.11,56.465,294.873C71.034,282.79,93.123,264.534,132.619,264.534C195.725,264.534,263.336,328.752,263.336,424.332C263.336,519.356,195.52,570.614,131.683,570.614C92.479,570.614,70.859,553.996,56.552,542.966C50.058,537.963,44.44,533.663,40.754,533.663C37.536,533.663,29.958,533.663,29.286,549.783C29.286,549.783,29.286,658.382,29.286,658.382C29.286,710.108,81.771,746.151,128.845,746.151C128.845,746.151,307.747,746.151,307.747,746.151C308.215,746.151,308.654,746.181,309.122,746.21C309.122,746.21,309.122,746.21,309.122,746.21C345.254,747.556,352.831,767.333,352.831,783.658C352.831,797.906,344.727,807.063,337.559,815.138C327.963,825.933,318.075,837.08,318.075,865.897C318.075,916.774,366.611,950.946,438.874,950.946C510.698,950.946,557.128,917.564,557.128,865.897C557.128,837.109,547.21,825.933,537.643,815.138C537.643,815.138,537.643,815.138,537.643,815.138" /><glyph unicode="&#x006a;" d="M512,0C794.304,0,1024,229.696,1024,512C1024,794.304,794.304,1024,512,1024C229.696,1024,0,794.304,0,512C0,229.696,229.696,0,512,0C512,0,512,0,512,0M512,992C776.672,992,992,776.672,992,512C992,247.328,776.672,32,512,32C247.328,32,32,247.328,32,512C32,776.672,247.328,992,512,992C512,992,512,992,512,992M343.488,587.328C359.712,582.048,376.576,584.48,392.48,594.432C399.936,599.104,402.24,608.992,397.536,616.48C392.864,623.936,383.008,626.24,375.488,621.536C367.776,616.736,360.352,615.52,353.472,617.728C346.144,620.128,339.232,626.304,333.44,635.584C328.256,643.84,326.592,653.632,328.768,663.136C330.976,672.672,336.736,680.736,345.024,685.92C364.8,698.4,390.528,691.264,407.2,678.752C435.392,657.664,448,620.992,448,560C448,469.952,407.04,357.984,328.736,318.272C320.864,314.272,317.696,304.64,321.696,296.736C324.576,291.2,330.176,288,336,288C338.432,288,340.896,288.576,343.264,289.728C437.184,337.376,480,463.264,480,560C480,631.104,462.976,676.96,426.4,704.384C395.936,727.328,356.384,730.752,328.064,713.056C312.544,703.36,301.728,688.192,297.632,670.336C293.504,652.48,296.608,634.112,306.304,618.624C316.128,602.944,328.96,592.128,343.488,587.328C343.488,587.328,343.488,587.328,343.488,587.328M599.488,587.328C615.68,582.048,632.576,584.48,648.48,594.432C655.936,599.104,658.24,608.992,653.536,616.48C648.864,623.936,639.008,626.24,631.488,621.536C623.808,616.736,616.352,615.52,609.472,617.728C602.144,620.128,595.232,626.304,589.44,635.584C584.256,643.84,582.592,653.632,584.768,663.136C586.976,672.672,592.736,680.736,601.024,685.92C620.832,698.4,646.56,691.264,663.2,678.752C691.392,657.664,704,620.992,704,560C704,469.952,663.04,357.984,584.736,318.272C576.864,314.272,573.696,304.64,577.696,296.736C580.576,291.2,586.176,288,592,288C594.432,288,596.896,288.576,599.264,289.728C693.184,337.376,736,463.264,736,560C736,631.104,718.976,676.96,682.4,704.384C651.936,727.328,612.384,730.752,584.064,713.056C568.544,703.36,557.728,688.192,553.632,670.336C549.504,652.48,552.608,634.112,562.304,618.624C572.128,602.944,584.96,592.128,599.488,587.328C599.488,587.328,599.488,587.328,599.488,587.328" /><glyph unicode="&#x006b;" d="M852.632,895.375C852.632,895.375,1007.896,895.375,1007.896,895.375C1016.698,895.375,1023.841,902.518,1023.841,911.319C1023.841,920.12,1016.698,927.263,1007.896,927.263C1007.896,927.263,816.566,927.263,816.566,927.263C807.765,927.263,800.622,920.12,800.622,911.319C800.622,911.319,800.622,719.989,800.622,719.989C800.622,711.188,807.765,704.045,816.566,704.045C825.367,704.045,832.51,711.188,832.51,719.989C832.51,719.989,832.51,870.406,832.51,870.406C832.51,870.406,851.994,850.923,851.994,850.923C942.334,760.583,992.112,640.459,992.112,512.714C992.112,384.969,942.334,264.846,851.994,174.506C717.903,40.383,517.038,-1.901,340.153,66.883C331.958,70.135,322.711,66.022,319.522,57.826C316.333,49.599,320.383,40.352,328.61,37.195C388.688,13.852,451.316,2.5,513.467,2.5C646.441,2.5,777.056,54.478,874.539,151.993C970.906,248.328,1024,376.487,1024,512.746C1024,649.005,970.906,777.133,874.539,873.468C874.539,873.468,852.632,895.375,852.632,895.375C852.632,895.375,852.632,895.375,852.632,895.375M210.687,321.384C201.885,321.384,194.742,314.241,194.742,305.44C194.742,305.44,194.742,151.1,194.742,151.1C194.742,151.1,172.006,173.836,172.006,173.836C81.666,264.176,31.888,384.3,31.888,512.045C31.888,639.789,81.666,759.945,172.006,850.285C303.864,982.175,502.083,1025.511,676.991,960.491C685.154,957.43,694.402,961.607,697.495,969.898C700.556,978.157,696.347,987.341,688.088,990.402C501.572,1059.664,290.121,1013.521,149.461,872.83C53.094,776.495,0,648.336,0,512.076C0,375.817,53.094,247.658,149.461,151.323C149.461,151.323,170.699,130.054,170.699,130.054C170.699,130.054,19.356,130.054,19.356,130.054C10.555,130.054,3.412,122.911,3.412,114.109C3.412,105.308,10.555,98.165,19.356,98.165C19.356,98.165,206.095,98.165,206.095,98.165C207.37,97.846,218.085,98.962,221.21,102.087C221.337,102.215,221.369,102.374,221.497,102.502C224.622,105.436,226.631,109.486,226.631,114.109C226.631,114.109,226.631,305.44,226.631,305.44C226.631,314.241,219.488,321.384,210.687,321.384C210.687,321.384,210.687,321.384,210.687,321.384" /><glyph unicode="&#x006c;" d="M632.895,376.98C628.398,377.667,623.814,375.891,620.72,372.539C617.597,369.216,616.251,364.575,617.11,360.077C625.017,318.537,651.631,261.527,733.336,226.032C743.019,221.85,757.973,218.584,776.938,214.487C847.929,199.132,966.647,173.406,995.811,64.6C997.529,58.211,1003.316,54,1009.648,54C1010.88,54,1012.111,54.172,1013.372,54.487C1021.021,56.55,1025.547,64.399,1023.513,72.048C989.794,197.728,855.291,226.863,783.012,242.505C766.281,246.143,751.814,249.266,744.738,252.36C695.635,273.674,663.921,305.302,650.17,346.498C786.593,336.357,848.358,390.702,851.08,393.166C854.46,396.231,856.208,400.786,855.692,405.341C855.177,409.896,852.541,413.936,848.559,416.228C769.834,461.205,769.834,616.622,769.834,675.15C769.834,838.817,659.595,968.565,518.274,970.599C517.873,970.627,514.808,970.685,514.235,970.685C514.235,970.685,514.235,970.685,514.206,970.685C370.822,969.883,254.166,839.992,254.166,681.109C254.166,622.581,254.166,467.135,175.441,422.186C171.287,419.809,168.623,415.54,168.25,410.785C167.907,406.029,169.969,401.388,173.722,398.437C177.676,395.372,265.053,328.507,372.569,348.818C358.188,309.341,326.904,278.974,279.233,258.262C272.329,255.254,258.578,251.959,242.65,248.177C169.883,230.874,34.406,198.645,0.487,72.077C-1.547,64.399,2.979,56.578,10.628,54.516C18.392,52.596,26.127,57.037,28.189,64.657C57.668,174.781,177.647,203.286,249.296,220.36C267.259,224.629,281.439,228.009,290.664,231.991C372.369,267.486,398.954,324.496,406.89,366.036C407.835,370.992,406.116,376.092,402.335,379.415C398.582,382.767,393.397,383.913,388.526,382.394C310.976,357.986,239.327,391.562,208.014,410.183C282.815,472.808,282.815,616.937,282.815,681.109C282.815,824.264,386.693,941.32,515.438,942.094C515.581,942.094,518.36,941.922,518.474,941.922C645.443,940.117,741.185,825.438,741.185,675.15C741.185,610.949,741.185,466.505,816.301,403.88C790.432,389.098,731.445,365.177,632.895,376.98C632.895,376.98,632.895,376.98,632.895,376.98" /><glyph unicode="&#x006d;" d="M10.629,54.458C18.307,52.539,26.157,56.98,28.162,64.6C57.672,174.702,177.6,203.237,249.281,220.312C267.245,224.581,281.426,227.962,290.652,231.944C372.304,267.384,398.919,324.397,406.884,365.996C407.858,371.01,406.053,376.167,402.157,379.548C359.64,416.248,323.771,471.341,301.138,534.715C300.507,536.52,299.505,538.181,298.187,539.614C268.248,572.16,251.058,606.568,251.058,633.986C251.058,650.002,257.103,660.745,270.711,668.853C274.866,671.346,277.473,675.729,277.673,680.542C284.005,826.484,387.946,941.37,515.438,942.115C515.581,942.115,518.36,941.914,518.504,941.914C646.625,940.138,749.908,822.788,753.604,674.784C753.718,670.687,755.552,666.848,758.703,664.212C767.671,656.62,771.854,646.993,771.854,633.929C771.854,610.981,759.62,582.761,737.445,554.512C736.385,553.165,735.583,551.618,735.039,549.985C712.119,477.329,670.978,413.182,622.216,373.932C618.09,370.609,616.142,365.28,617.116,360.094C625.081,318.524,651.696,261.539,733.348,226.042C743.003,221.859,757.987,218.593,776.982,214.496C847.947,199.14,966.701,173.384,995.838,64.6C997.557,58.212,1003.344,54,1009.647,54C1010.879,54,1012.111,54.172,1013.371,54.487C1021.021,56.55,1025.547,64.4,1023.513,72.049C989.85,197.736,855.31,226.873,783.056,242.516C766.296,246.154,751.827,249.277,744.78,252.371C691.491,275.52,658.658,310.788,647.055,357.373C696.533,399.86,737.932,465.411,761.597,538.926C786.723,571.587,800.532,605.222,800.532,633.958C800.532,653.124,794.344,669.111,782.082,681.602C775.263,842.156,660.692,968.587,518.504,970.621C518.504,970.621,514.235,970.679,514.235,970.679C374.624,969.934,259.567,846.826,249.511,689.051C231.576,675.872,222.465,657.393,222.465,633.929C222.465,600.036,241.632,559.497,275.181,522.309C298.359,458.621,334.285,402.668,377.059,363.504C365.514,316.747,332.652,281.365,279.249,258.187C272.345,255.179,258.593,251.884,242.663,248.102C169.864,230.798,34.408,198.567,0.487,71.992C-1.547,64.343,2.979,56.521,10.629,54.458C10.629,54.458,10.629,54.458,10.629,54.458" /><glyph unicode="&#x006e;" d="M1019.277,583.345C1013.788,587.956,1005.566,587.224,1000.931,581.686C1000.931,581.686,943.184,512.399,943.184,512.399C941.939,512.789,940.671,513.18,939.28,512.35C939.28,512.35,905.344,512.35,905.344,512.35C905.344,512.35,948.526,564.999,948.526,564.999C953.137,570.537,952.381,578.734,946.867,583.345C941.354,587.956,933.132,587.224,928.521,581.686C928.521,581.686,871.432,512.35,871.432,512.35C871.432,512.35,832.91,512.35,832.91,512.35C832.91,512.35,876.092,564.999,876.092,564.999C880.703,570.537,879.947,578.734,874.433,583.345C868.944,587.956,860.722,587.224,856.087,581.686C856.087,581.686,798.998,512.35,798.998,512.35C798.998,512.35,780.651,512.35,780.651,512.35C780.188,728.043,605.311,902.7,390.35,902.7C175.121,902.7,0,727.579,0,512.35C0,297.121,175.121,122,390.35,122C597.065,122,766.306,283.654,779.432,487.953C779.432,487.953,799.022,487.953,799.022,487.953C799.022,487.953,856.111,418.617,856.111,418.617C858.673,415.519,862.405,413.933,866.114,413.933C869.066,413.933,872.018,414.909,874.458,416.958C879.996,421.545,880.752,429.767,876.117,435.305C876.117,435.305,832.91,487.953,832.91,487.953C832.91,487.953,871.432,487.953,871.432,487.953C871.432,487.953,928.521,418.617,928.521,418.617C931.083,415.519,934.815,413.933,938.524,413.933C941.476,413.933,944.428,414.909,946.867,416.958C952.406,421.545,953.162,429.767,948.526,435.305C948.526,435.305,905.344,487.953,905.344,487.953C905.344,487.953,939.28,487.953,939.28,487.953C940.671,487.124,941.939,487.514,943.208,487.904C943.208,487.904,1000.955,418.617,1000.955,418.617C1003.517,415.519,1007.25,413.933,1010.958,413.933C1013.91,413.933,1016.862,414.909,1019.302,416.958C1024.84,421.545,1025.596,429.767,1020.961,435.305C1020.961,435.305,966.922,500.152,966.922,500.152C966.922,500.152,1020.961,564.999,1020.961,564.999C1025.572,570.537,1024.816,578.758,1019.277,583.345C1019.277,583.345,1019.277,583.345,1019.277,583.345M390.35,146.397C188.564,146.397,24.397,310.564,24.397,512.35C24.397,714.137,188.564,878.303,390.35,878.303C591.868,878.303,755.791,714.6,756.255,512.35C756.255,512.35,683.064,512.35,683.064,512.35C682.625,674.223,551.516,805.113,390.35,805.113C228.916,805.113,97.588,673.784,97.588,512.35C97.588,350.916,228.916,219.588,390.35,219.588C543.27,219.588,668.987,337.473,681.844,487.953C681.844,487.953,755.035,487.953,755.035,487.953C741.982,297.096,583.622,146.397,390.35,146.397C390.35,146.397,390.35,146.397,390.35,146.397M585.476,512.35C585.037,620.404,497.696,707.525,390.35,707.525C282.735,707.525,195.175,619.965,195.175,512.35C195.175,404.735,282.735,317.175,390.35,317.175C489.401,317.175,571.277,391.415,583.695,487.953C583.695,487.953,657.423,487.953,657.423,487.953C644.663,350.94,529.803,243.984,390.35,243.984C242.383,243.984,121.984,364.383,121.984,512.35C121.984,660.317,242.383,780.716,390.35,780.716C538.049,780.716,658.228,660.781,658.667,512.35C658.667,512.35,585.476,512.35,585.476,512.35C585.476,512.35,585.476,512.35,585.476,512.35M487.864,512.35C487.401,566.609,443.901,609.938,390.35,609.938C336.531,609.938,292.763,566.17,292.763,512.35C292.763,458.531,336.531,414.763,390.35,414.763C435.387,414.763,473.007,445.576,484.205,487.953C484.205,487.953,559.055,487.953,559.055,487.953C546.783,404.906,475.91,341.572,390.35,341.572C296.203,341.572,219.572,418.203,219.572,512.35C219.572,606.498,296.203,683.128,390.35,683.128C484.229,683.128,560.64,606.961,561.08,512.35C561.08,512.35,487.864,512.35,487.864,512.35C487.864,512.35,487.864,512.35,487.864,512.35M402.549,487.953C402.549,487.953,458.783,487.953,458.783,487.953C448.464,459.214,421.798,439.159,390.35,439.159C349.998,439.159,317.159,471.998,317.159,512.35C317.159,552.703,349.998,585.541,390.35,585.541C430.434,585.541,463.004,553.142,463.468,512.35C463.468,512.35,402.549,512.35,402.549,512.35C395.352,513.18,389.521,507.349,389.521,500.152C389.521,492.955,395.352,487.124,402.549,487.953C402.549,487.953,402.549,487.953,402.549,487.953" /><glyph unicode="&#x006f;" d="M800.817,917.604C799.247,921.513,796.108,924.563,792.17,926.014C788.231,927.436,783.848,927.169,780.147,925.215C780.147,925.215,427.569,739.183,427.569,739.183C420.936,735.689,417.975,727.782,420.669,720.793C420.669,720.793,427.925,701.811,427.925,701.811C427.925,701.811,224.392,590.198,224.392,590.198C217.729,586.556,214.915,578.501,217.817,571.542C217.817,571.542,224.569,555.284,224.569,555.284C224.569,555.284,8.421,451.992,8.421,451.992C1.314,448.587,-1.885,440.236,1.136,432.951C1.136,432.951,45.497,326.046,45.497,326.046C47.866,320.361,53.344,316.896,59.178,316.896C60.837,316.896,62.495,317.162,64.124,317.755C64.124,317.755,289.926,397.741,289.926,397.741C289.926,397.741,296.678,381.483,296.678,381.483C299.017,375.827,304.496,372.332,310.359,372.332C311.722,372.332,313.084,372.51,314.476,372.924C314.476,372.924,529.943,435.024,529.943,435.024C529.943,435.024,536.399,418.174,536.399,418.174C538.59,412.34,544.187,408.668,550.169,408.668C551.62,408.668,553.071,408.875,554.522,409.319C554.522,409.319,939.497,527.773,939.497,527.773C943.465,528.987,946.722,531.801,948.499,535.532C950.276,539.263,950.424,543.587,948.884,547.407C948.884,547.407,800.817,917.604,800.817,917.604C800.817,917.604,800.817,917.604,800.817,917.604M67.47,350.359C67.47,350.359,33.888,431.322,33.888,431.322C33.888,431.322,235.941,527.892,235.941,527.892C235.941,527.892,278.555,425.133,278.555,425.133C278.555,425.133,67.47,350.359,67.47,350.359C67.47,350.359,67.47,350.359,67.47,350.359M318.918,405.025C318.918,405.025,311.87,422.024,311.87,422.024C311.87,422.024,311.87,422.024,311.87,422.024C311.87,422.024,257.292,553.655,257.292,553.655C257.292,553.655,257.292,553.655,257.292,553.655C257.292,553.655,250.244,570.624,250.244,570.624C250.244,570.624,437.875,673.53,437.875,673.53C437.875,673.53,508.177,491.882,508.177,491.882C508.177,491.882,519.282,462.831,519.282,462.831C519.282,462.831,318.918,405.025,318.918,405.025C318.918,405.025,318.918,405.025,318.918,405.025M559.053,441.687C559.053,441.687,553.041,457.412,553.041,457.412C552.953,457.737,553.012,458.122,552.864,458.448C552.864,458.448,534.563,505.741,534.563,505.741C534.563,505.741,453.007,719.135,453.007,719.135C453.007,719.135,779.436,891.337,779.436,891.337C779.436,891.337,915.421,551.375,915.421,551.375C915.421,551.375,559.053,441.687,559.053,441.687C559.053,441.687,559.053,441.687,559.053,441.687M845.237,976.831C842.187,984.442,833.54,988.114,825.988,985.093C818.407,982.043,814.706,973.426,817.726,965.845C817.726,965.845,995.407,521.643,995.407,521.643C997.746,515.839,1003.314,512.315,1009.177,512.315C1011.013,512.315,1012.879,512.641,1014.685,513.381C1022.266,516.431,1025.968,525.049,1022.947,532.63C1022.947,532.63,845.237,976.831,845.237,976.831C845.237,976.831,845.237,976.831,845.237,976.831M520.555,364.248C520.555,364.248,431.715,364.248,431.715,364.248C397.956,364.248,372.488,338.78,372.488,305.021C372.488,305.021,372.488,266.079,372.488,266.079C372.488,266.079,198.391,62.961,198.391,62.961C193.061,56.771,193.771,47.414,199.99,42.083C202.774,39.685,206.209,38.5,209.614,38.5C213.79,38.5,217.936,40.247,220.838,43.682C220.838,43.682,394.106,245.794,394.106,245.794C394.106,245.794,461.329,245.794,461.329,245.794C461.329,245.794,461.329,53.307,461.329,53.307C461.329,45.133,467.962,38.5,476.135,38.5C484.309,38.5,490.942,45.133,490.942,53.307C490.942,53.307,490.942,245.794,490.942,245.794C490.942,245.794,558.165,245.794,558.165,245.794C558.165,245.794,731.403,43.682,731.403,43.682C734.335,40.247,738.481,38.5,742.656,38.5C746.062,38.5,749.497,39.685,752.281,42.083C758.499,47.414,759.21,56.742,753.88,62.961C753.88,62.961,579.782,266.079,579.782,266.079C579.782,266.079,579.782,302.8,579.782,302.8C579.782,337.24,553.782,364.248,520.555,364.248C520.555,364.248,520.555,364.248,520.555,364.248M550.169,275.407C550.169,275.407,402.102,275.407,402.102,275.407C402.102,275.407,402.102,305.021,402.102,305.021C402.102,322.463,414.273,334.634,431.715,334.634C431.715,334.634,520.555,334.634,520.555,334.634C537.435,334.634,550.169,320.953,550.169,302.8C550.169,302.8,550.169,275.407,550.169,275.407C550.169,275.407,550.169,275.407,550.169,275.407" /><glyph unicode="&#x0070;" d="M528,16C528,16,528,320,528,320C528,328.832,523.744,352,514.912,352C506.08,352,496,344.832,496,336C496,336,496,16,496,16C496,7.168,506.048,0,514.912,0C523.776,0,528,7.168,528,16C528,16,528,16,528,16M530.912,974.016C530.912,974.016,530.912,1008,530.912,1008C530.912,1016.832,523.744,1024,514.912,1024C506.08,1024,498.912,1016.832,498.912,1008C498.912,1008,498.912,974.016,498.912,974.016C498.912,965.184,506.08,958.016,514.912,958.016C523.744,958.016,530.912,965.152,530.912,974.016C530.912,974.016,530.912,974.016,530.912,974.016M172.48,912.928C172.48,912.928,58.336,823.392,58.336,823.392C51.776,817.344,48,808.8,48,800C48,791.2,51.776,782.656,59.328,775.744C59.328,775.744,171.488,687.904,171.488,687.904C181.312,678.848,198.816,672,212.224,672C212.224,672,654.72,672,654.72,672C673.056,672,688,686.816,688,705.056C688,705.056,688,894.944,688,894.944C688,913.184,673.056,928,654.72,928C654.72,928,212.224,928,212.224,928C198.816,928,181.312,921.152,172.48,912.928C172.48,912.928,172.48,912.928,172.48,912.928M656,705.056C656,704.576,655.424,704,654.72,704C654.72,704,212.224,704,212.224,704C206.784,704,197.152,707.744,192.224,712.256C192.224,712.256,79.072,799.072,79.072,799.072C79.072,799.072,193.184,888.608,193.184,888.608C197.184,892.256,206.784,896,212.224,896C212.224,896,656,894.944,656,894.944C656,894.944,656,705.056,656,705.056C656,705.056,656,705.056,656,705.056M852.512,624.096C842.688,633.152,825.184,640,811.776,640C811.776,640,369.28,640,369.28,640C350.944,640,336,625.184,336,606.944C336,606.944,336,417.024,336,417.024C336,398.816,350.944,384,369.28,384C369.28,384,811.776,384,811.776,384C825.184,384,842.688,390.848,851.552,399.072C851.552,399.072,965.664,488.608,965.664,488.608C972.224,494.656,976,503.2,976,512C976,520.8,972.224,529.344,964.672,536.256C964.672,536.256,852.512,624.096,852.512,624.096C852.512,624.096,852.512,624.096,852.512,624.096M368,608C368,608,811.776,608,811.776,608C817.216,608,826.848,604.256,831.776,599.744C831.776,599.744,944.928,512.928,944.928,512.928C944.928,512.928,830.816,423.392,830.816,423.392C826.816,419.744,817.216,416,811.776,416C811.776,416,368,416,368,416C368,416,368,608,368,608C368,608,368,608,368,608" /><glyph unicode="&#x0071;" d="M20.597,842.719C-6.412,815.678,-0.641,777.603,20.852,756.142C21.713,755.313,108.035,672.849,229.435,551.45C232.56,548.325,236.642,546.794,240.723,546.794C244.805,546.794,248.887,548.357,252.012,551.45C258.23,557.668,258.23,567.777,252.012,573.995C233.708,592.299,216.297,609.615,199.779,626.005C199.779,626.005,250.449,676.676,250.449,676.676C256.668,682.894,256.668,693.003,250.449,699.221C244.231,705.439,234.122,705.439,227.904,699.221C227.904,699.221,177.106,648.423,177.106,648.423C148.693,676.485,123.661,700.975,103.284,720.842C103.284,720.842,218.561,836.118,218.561,836.118C224.779,842.337,224.779,852.445,218.561,858.664C212.343,864.882,202.234,864.882,196.016,858.664C196.016,858.664,80.388,743.036,80.388,743.036C56.918,765.772,43.397,778.687,43.174,778.91C36.446,785.639,27.613,804.581,43.174,820.142C43.174,820.142,202.617,979.585,202.617,979.585C208.771,985.835,225.162,998.239,243.147,980.35C243.944,979.457,324.462,888.001,447.361,765.103C453.579,758.884,463.688,758.884,469.906,765.103C476.124,771.321,476.124,781.43,469.906,787.648C347.773,909.749,267.86,1000.503,266.394,1002.162C236.673,1031.818,200.831,1022.921,180.071,1002.162C180.071,1002.162,20.597,842.719,20.597,842.719C20.597,842.719,20.597,842.719,20.597,842.719M696.888,252.782C690.67,259.001,680.561,259.001,674.343,252.782C674.343,252.782,623.608,202.08,623.608,202.08C608.142,217.737,591.911,234.128,574.819,251.22C568.601,257.438,558.492,257.438,552.274,251.22C546.055,245.002,546.055,234.893,552.274,228.675C670.389,110.592,752.884,22.388,754.064,21.113C765.002,10.143,779.989,4.116,796.252,4.116C796.252,4.116,796.252,4.116,796.252,4.116C812.994,4.116,829.927,10.653,840.418,21.176C840.418,21.176,999.797,182.436,999.797,182.436C1019.854,202.494,1021.002,236.519,1002.284,255.302C1002.284,255.302,788.44,469.114,788.44,469.114C782.222,475.332,772.113,475.332,765.895,469.114C759.676,462.896,759.676,452.787,765.895,446.569C765.895,446.569,979.739,232.756,979.739,232.756C986.116,226.379,984.905,212.603,977.22,204.918C977.22,204.918,817.809,43.658,817.809,43.658C814.142,39.959,805.819,36.005,796.252,36.005C796.252,36.005,796.252,36.005,796.252,36.005C790.768,36.005,782.923,37.344,776.992,43.307C776.673,43.658,763.312,57.912,740.129,82.179C740.129,82.179,856.33,198.381,856.33,198.381C862.549,204.599,862.549,214.708,856.33,220.926C850.112,227.144,840.003,227.144,833.785,220.926C833.785,220.926,718.062,105.203,718.062,105.203C698.164,125.898,673.769,151.058,645.994,179.375C645.994,179.375,696.888,230.269,696.888,230.269C703.106,236.456,703.106,246.532,696.888,252.782C696.888,252.782,696.888,252.782,696.888,252.782M4.525,7.783C7.587,4.658,11.7,3,15.941,3C17.472,3,19.003,3.223,20.502,3.67C20.502,3.67,339.386,98.665,339.386,98.665C341.969,99.431,344.265,100.802,346.147,102.715C346.147,102.715,891.121,651.357,891.121,651.357C891.886,652.122,892.269,653.11,892.843,653.971C892.843,653.971,1009.427,770.556,1009.427,770.556C1018.802,779.963,1024,792.431,1024,805.729C1024,818.994,1018.802,831.463,1009.427,840.806C1009.427,840.806,842.491,1007.71,842.491,1007.71C823.74,1026.461,790.991,1026.461,772.24,1007.71C772.24,1007.71,653.009,888.479,653.009,888.479C652.244,887.714,651.83,886.725,651.256,885.833C651.256,885.833,105.452,339.997,105.452,339.997C103.667,338.212,102.327,336.043,101.562,333.652C101.562,333.652,0.794,23.855,0.794,23.855C-1.055,18.211,0.38,12.056,4.525,7.783C4.525,7.783,4.525,7.783,4.525,7.783M665.191,854.677C665.191,854.677,698.323,821.545,698.323,821.545C698.323,821.545,203.318,325.201,203.318,325.201C203.318,325.201,148.247,337.701,148.247,337.701C148.247,337.701,665.191,854.677,665.191,854.677C665.191,854.677,665.191,854.677,665.191,854.677M223.217,299.977C223.217,299.977,720.9,798.968,720.9,798.968C720.9,798.968,798.58,721.288,798.58,721.288C798.58,721.288,296.401,225.55,296.401,225.55C296.401,225.55,223.217,225.55,223.217,225.55C223.217,225.55,223.217,299.977,223.217,299.977C223.217,299.977,223.217,299.977,223.217,299.977M857.287,662.549C857.287,662.549,339.291,141.045,339.291,141.045C339.291,141.045,320.891,204.886,320.891,204.886C320.891,204.886,821.126,698.743,821.126,698.743C821.126,698.743,857.287,662.549,857.287,662.549C857.287,662.549,857.287,662.549,857.287,662.549M127.328,309.767C127.328,309.767,191.328,295.226,191.328,295.226C191.328,295.226,191.328,209.605,191.328,209.605C191.328,200.804,198.471,193.661,207.272,193.661C207.272,193.661,290.948,193.661,290.948,193.661C290.948,193.661,311.165,123.507,311.165,123.507C311.165,123.507,40.496,42.861,40.496,42.861C40.496,42.861,127.328,309.767,127.328,309.767C127.328,309.767,127.328,309.767,127.328,309.767M794.818,985.165C801.546,991.894,813.249,991.894,819.978,985.165C819.978,985.165,986.914,818.229,986.914,818.229C990.262,814.881,992.112,810.416,992.112,805.665C992.112,800.945,990.262,796.449,986.882,793.069C986.882,793.069,879.386,685.541,879.386,685.541C879.386,685.541,687.321,877.605,687.321,877.605C687.321,877.605,794.818,985.165,794.818,985.165C794.818,985.165,794.818,985.165,794.818,985.165" /><glyph unicode="&#x0072;" d="M876.032,741.211C883.469,741.211,889.506,747.247,889.506,754.684C889.506,754.684,889.506,799.552,889.506,799.552C889.506,823.885,869.699,843.691,845.366,843.691C845.366,843.691,772.958,843.691,772.958,843.691C772.958,843.691,756.44,892.439,756.44,892.439C754.122,899.311,746.739,903.137,739.759,901.008C739.759,901.008,347.594,781.793,347.594,781.793C340.48,779.611,336.465,772.092,338.621,764.978C340.399,759.157,345.735,755.439,351.528,755.439C352.822,755.439,354.142,755.627,355.463,756.005C355.463,756.005,735.124,871.447,735.124,871.447C735.124,871.447,771.315,764.601,771.315,764.601C773.713,757.541,781.42,753.714,788.399,756.166C795.459,758.538,799.232,766.218,796.834,773.251C796.834,773.251,782.093,816.771,782.093,816.771C782.093,816.771,845.393,816.771,845.393,816.771C854.878,816.771,862.585,809.064,862.585,799.579C862.585,799.579,862.585,754.684,862.585,754.684C862.558,747.247,868.595,741.211,876.032,741.211C876.032,741.211,876.032,741.211,876.032,741.211M983.579,539.105C976.141,539.105,970.105,533.069,970.105,525.632C970.105,518.194,976.141,512.158,983.579,512.158C993.037,512.158,997.053,508.143,997.053,498.684C997.053,498.684,997.053,337,997.053,337C997.053,327.541,993.037,323.526,983.579,323.526C983.579,323.526,768,323.526,768,323.526C758.541,323.526,754.526,327.541,754.526,337C754.526,337,754.526,471.737,754.526,471.737C754.526,481.195,758.541,485.211,768,485.211C768,485.211,929.684,485.211,929.684,485.211C937.122,485.211,943.158,491.247,943.158,498.684C943.158,498.684,943.158,660.368,943.158,660.368C943.158,684.917,927.286,700.789,902.737,700.789C902.737,700.789,80.842,700.789,80.842,700.789C47.616,700.789,26.947,721.458,26.947,754.684C26.947,787.91,47.616,808.579,80.842,808.579C80.842,808.579,217.627,808.579,217.627,808.579C217.627,808.579,136.084,781.685,136.084,781.685C129.024,779.368,125.171,771.742,127.488,764.682C129.347,759.023,134.629,755.439,140.288,755.439C141.689,755.439,143.091,755.654,144.519,756.112C144.519,756.112,632.778,917.069,632.778,917.069C639.838,919.413,643.692,927.013,641.347,934.1C639.03,941.16,631.404,945.013,624.317,942.669C624.317,942.669,298.253,835.149,298.253,835.149C297.634,835.257,297.068,835.526,296.421,835.526C296.421,835.526,80.842,835.526,80.842,835.526C32.499,835.526,0,803.028,0,754.684C0,754.684,0,161.842,0,161.842C0,113.499,32.499,81,80.842,81C80.842,81,902.737,81,902.737,81C927.286,81,943.158,96.872,943.158,121.421C943.158,121.421,943.158,256.158,943.158,256.158C943.158,263.595,937.122,269.632,929.684,269.632C922.247,269.632,916.211,263.595,916.211,256.158C916.211,256.158,916.211,121.421,916.211,121.421C916.211,111.963,912.195,107.947,902.737,107.947C902.737,107.947,80.842,107.947,80.842,107.947C47.616,107.947,26.947,128.616,26.947,161.842C26.947,161.842,26.947,692.382,26.947,692.382C40.771,680.714,59.069,673.842,80.842,673.842C80.842,673.842,902.737,673.842,902.737,673.842C912.195,673.842,916.211,669.827,916.211,660.368C916.211,660.368,916.211,512.158,916.211,512.158C916.211,512.158,768,512.158,768,512.158C743.451,512.158,727.579,496.286,727.579,471.737C727.579,471.737,727.579,337,727.579,337C727.579,312.451,743.451,296.579,768,296.579C768,296.579,983.579,296.579,983.579,296.579C1008.128,296.579,1024,312.451,1024,337C1024,337,1024,498.684,1024,498.684C1024,523.233,1008.128,539.105,983.579,539.105C983.579,539.105,983.579,539.105,983.579,539.105M835.368,404.368C835.368,389.493,847.441,377.421,862.316,377.421C877.191,377.421,889.263,389.493,889.263,404.368C889.263,419.243,877.191,431.316,862.316,431.316C847.441,431.316,835.368,419.243,835.368,404.368C835.368,404.368,835.368,404.368,835.368,404.368" /><glyph unicode="&#x0073;" d="M770.898,969.218C779.305,969.218,786.128,976.041,786.128,984.447C786.128,992.854,779.305,999.676,770.898,999.676C770.898,999.676,253.102,999.676,253.102,999.676C244.695,999.676,237.872,992.854,237.872,984.447C237.872,976.041,244.695,969.218,253.102,969.218C253.102,969.218,770.898,969.218,770.898,969.218C770.898,969.218,770.898,969.218,770.898,969.218M770.898,938.759C770.898,938.759,192.184,938.759,192.184,938.759C92.189,938.759,45.587,903.244,24.083,873.456C-2.233,836.905,-7.167,788.08,10.194,735.966C37.058,655.372,127.338,558.544,182.834,515.536C185.636,513.374,188.925,512.338,192.184,512.338C196.723,512.338,201.231,514.348,204.246,518.247C209.393,524.887,208.175,534.451,201.535,539.629C150.547,579.104,63.71,671.881,39.13,745.621C24.905,788.172,28.347,827.25,48.815,855.638C73.639,890.086,123.195,908.3,192.184,908.3C192.184,908.3,237.872,908.3,237.872,908.3C237.872,908.3,237.872,618.943,237.872,618.943C237.872,414.079,441.123,296.051,482.638,274.091C481.998,272.385,481.541,270.588,481.541,268.669C481.541,268.669,481.541,192.523,481.541,192.523C481.541,184.116,488.364,177.293,496.771,177.293C505.177,177.293,512,184.116,512,192.523C512,192.523,512,268.669,512,268.669C512,270.436,511.543,272.08,510.995,273.664C557.109,295.351,786.128,413.348,786.128,618.943C786.128,618.943,786.128,908.3,786.128,908.3C786.128,908.3,831.816,908.3,831.816,908.3C900.805,908.3,950.361,890.086,975.185,855.638C995.653,827.25,999.095,788.172,984.87,745.59C965.681,687.993,870.072,576.454,822.465,539.599C815.825,534.451,814.607,524.887,819.754,518.217C822.769,514.348,827.277,512.338,831.816,512.338C835.075,512.338,838.364,513.374,841.166,515.506C893.921,556.381,992.272,671.424,1013.806,735.935C1031.167,788.05,1026.233,836.875,999.917,873.425C978.413,903.244,931.811,938.759,831.816,938.759C831.816,938.759,770.898,938.759,770.898,938.759C770.898,938.759,770.898,938.759,770.898,938.759M755.669,618.943C755.669,433.359,537.829,320.327,497.197,300.864C459.794,321.119,268.331,433.877,268.331,618.943C268.331,618.943,268.331,908.3,268.331,908.3C268.331,908.3,755.669,908.3,755.669,908.3C755.669,908.3,755.669,618.943,755.669,618.943C755.669,618.943,755.669,618.943,755.669,618.943M329.248,146.835C294.495,146.835,268.331,120.64,268.331,85.917C268.331,85.917,268.331,40.229,268.331,40.229C268.331,31.823,275.154,25,283.56,25C283.56,25,709.981,25,709.981,25C718.388,25,725.21,31.823,725.21,40.229C725.21,40.229,725.21,83.633,725.21,83.633C725.21,119.056,698.437,146.835,664.293,146.835C664.293,146.835,329.248,146.835,329.248,146.835C329.248,146.835,329.248,146.835,329.248,146.835M694.752,83.633C694.752,83.633,694.752,55.459,694.752,55.459C694.752,55.459,298.79,55.459,298.79,55.459C298.79,55.459,298.79,85.917,298.79,85.917C298.79,103.857,311.308,116.376,329.248,116.376C329.248,116.376,664.293,116.376,664.293,116.376C681.655,116.376,694.752,102.304,694.752,83.633C694.752,83.633,694.752,83.633,694.752,83.633" /><glyph unicode="&#x0074;" d="M799.12,921.6C799.12,921.6,737.68,768,737.68,768C737.68,768,287.12,768,287.12,768C287.12,768,225.68,921.6,225.68,921.6C186.256,921.6,154,889.344,154,849.92C154,849.92,154,71.68,154,71.68C154,32.256,186.256,0,225.68,0C225.68,0,799.12,0,799.12,0C838.608,0,870.8,32.256,870.8,71.68C870.8,71.68,870.8,849.92,870.8,849.92C870.8,889.344,838.544,921.6,799.12,921.6C799.12,921.6,799.12,921.6,799.12,921.6M696.72,819.2C696.72,819.2,742.8,921.6,742.8,921.6C742.8,921.6,631.184,921.6,631.184,921.6C631.184,921.6,594.32,1024,594.32,1024C594.32,1024,430.48,1024,430.48,1024C430.48,1024,393.616,921.6,393.616,921.6C393.616,921.6,282,921.6,282,921.6C282,921.6,328.08,819.2,328.08,819.2C328.08,819.2,696.72,819.2,696.72,819.2C696.72,819.2,696.72,819.2,696.72,819.2" /><glyph unicode="&#x0075;" d="M387.385,0C355.565,0,325.437,14.858,306.099,40.46C306.099,40.46,44.684,385.584,44.684,385.584C10.67,430.479,19.539,494.438,64.434,528.453C109.42,562.558,173.288,553.597,207.302,508.702C207.302,508.702,379.293,281.668,379.293,281.668C379.293,281.668,811.738,975.939,811.738,975.939C841.5,1023.714,904.408,1038.344,952.275,1008.581C1000.05,978.865,1014.679,915.911,984.826,868.136C984.826,868.136,474.02,48.141,474.02,48.141C456.236,19.522,425.605,1.6,392.002,0.137C390.448,0.046,388.939,0.046,387.385,0.046C387.385,0.046,387.385,0,387.385,0" /><glyph unicode="&#x0076;" d="M505.15,1024.387C222.4,1020.587,-3.72,788.334,0.046,505.65C3.813,222.967,236.099,-3.22,518.85,0.546C801.567,4.279,1027.72,236.599,1023.954,519.35C1020.154,802.067,787.801,1028.187,505.15,1024.387C505.15,1024.387,505.15,1024.387,505.15,1024.387M517.383,108.34C294.129,105.307,110.807,283.863,107.807,507.084C104.807,730.337,283.363,913.66,506.617,916.66C729.804,919.66,913.16,741.103,916.127,517.916C919.093,294.729,740.603,111.373,517.383,108.34C517.383,108.34,517.383,108.34,517.383,108.34M386.724,425.722C365.125,425.722,348.759,433.621,337.66,449.387C326.527,465.186,321.028,486.185,321.028,512.483C321.028,570.28,342.96,599.212,386.724,599.212C395.457,599.212,404.956,596.278,415.189,590.479C425.388,584.612,434.021,574.38,441.054,559.814C441.054,559.814,506.717,594.012,506.717,594.012C480.485,641.309,436.921,665.008,376.158,665.008C334.66,665.008,300.429,651.309,273.231,623.844C246.099,596.378,232.5,559.247,232.5,512.55C232.5,464.653,245.932,427.222,272.831,400.356C299.662,373.491,335.06,360.026,378.858,360.026C406.256,360.026,431.388,366.892,454.153,380.658C476.919,394.424,494.784,413.256,507.65,437.254C507.65,437.254,447.187,467.919,447.187,467.919C435.521,439.854,415.356,425.788,386.757,425.788C386.757,425.788,386.724,425.722,386.724,425.722M669.674,425.722C648.009,425.722,631.643,433.621,620.61,449.387C609.478,465.119,603.978,486.185,603.978,512.483C603.978,570.28,625.843,599.212,669.674,599.212C679.074,599.212,688.806,596.278,699.072,590.479C709.272,584.612,717.938,574.38,724.871,559.814C724.871,559.814,789.667,594.012,789.667,594.012C763.969,641.309,720.805,665.008,659.975,665.008C618.544,665.008,584.246,651.309,557.114,623.844C529.916,596.378,516.383,559.314,516.383,512.583C516.383,464.686,529.649,427.255,556.214,400.39C582.813,373.525,618.344,360.059,662.708,360.059C689.573,360.059,714.372,366.925,737.17,380.691C759.902,394.457,778.035,413.289,791.467,437.288C791.467,437.288,730.137,467.953,730.137,467.953C718.471,439.854,698.339,425.755,669.708,425.755C669.708,425.755,669.674,425.722,669.674,425.722" /><glyph unicode="&#x0077;" d="M921.6,870.8C921.6,870.8,102.4,870.8,102.4,870.8C46.08,870.8,0,824.72,0,768.4C0,768.4,0,256.4,0,256.4C0,200.08,46.08,154,102.4,154C102.4,154,921.6,154,921.6,154C977.92,154,1024,200.08,1024,256.4C1024,256.4,1024,768.4,1024,768.4C1024,824.72,977.92,870.8,921.6,870.8C921.6,870.8,921.6,870.8,921.6,870.8M921.6,256.4C921.6,256.4,102.4,256.4,102.4,256.4C102.4,256.4,102.4,563.6,102.4,563.6C102.4,563.6,921.6,563.6,921.6,563.6C921.6,563.6,921.6,256.4,921.6,256.4C921.6,256.4,921.6,256.4,921.6,256.4M921.6,717.2C921.6,717.2,102.4,717.2,102.4,717.2C102.4,717.2,102.4,768.4,102.4,768.4C102.4,768.4,921.6,768.4,921.6,768.4C921.6,768.4,921.6,717.2,921.6,717.2C921.6,717.2,921.6,717.2,921.6,717.2M204.8,456.08C204.8,456.08,204.8,425.36,204.8,425.36C204.8,425.36,235.52,425.36,235.52,425.36C235.52,425.36,235.52,456.08,235.52,456.08C235.52,456.08,204.8,456.08,204.8,456.08C204.8,456.08,204.8,456.08,204.8,456.08M389.12,394.64C389.12,394.64,389.12,363.92,389.12,363.92C389.12,363.92,450.56,363.92,450.56,363.92C450.56,363.92,450.56,394.64,450.56,394.64C450.56,394.64,481.28,394.64,481.28,394.64C481.28,394.64,481.28,425.36,481.28,425.36C481.28,425.36,512,425.36,512,425.36C512,425.36,512,456.08,512,456.08C512,456.08,450.56,456.08,450.56,456.08C450.56,456.08,450.56,425.36,450.56,425.36C450.56,425.36,419.84,425.36,419.84,425.36C419.84,425.36,419.84,394.64,419.84,394.64C419.84,394.64,389.12,394.64,389.12,394.64C389.12,394.64,389.12,394.64,389.12,394.64M512,363.92C512,363.92,512,394.64,512,394.64C512,394.64,481.28,394.64,481.28,394.64C481.28,394.64,481.28,363.92,481.28,363.92C481.28,363.92,512,363.92,512,363.92C512,363.92,512,363.92,512,363.92M358.4,363.92C358.4,363.92,358.4,394.64,358.4,394.64C358.4,394.64,296.96,394.64,296.96,394.64C296.96,394.64,296.96,363.92,296.96,363.92C296.96,363.92,358.4,363.92,358.4,363.92C358.4,363.92,358.4,363.92,358.4,363.92M389.12,425.36C389.12,425.36,419.84,425.36,419.84,425.36C419.84,425.36,419.84,456.08,419.84,456.08C419.84,456.08,358.4,456.08,358.4,456.08C358.4,456.08,358.4,394.64,358.4,394.64C358.4,394.64,389.12,394.64,389.12,394.64C389.12,394.64,389.12,425.36,389.12,425.36C389.12,425.36,389.12,425.36,389.12,425.36M266.24,394.64C266.24,394.64,296.96,394.64,296.96,394.64C296.96,394.64,296.96,425.36,296.96,425.36C296.96,425.36,327.68,425.36,327.68,425.36C327.68,425.36,327.68,456.08,327.68,456.08C327.68,456.08,266.24,456.08,266.24,456.08C266.24,456.08,266.24,425.36,266.24,425.36C266.24,425.36,235.52,425.36,235.52,425.36C235.52,425.36,235.52,394.64,235.52,394.64C235.52,394.64,204.8,394.64,204.8,394.64C204.8,394.64,204.8,363.92,204.8,363.92C204.8,363.92,266.24,363.92,266.24,363.92C266.24,363.92,266.24,394.64,266.24,394.64C266.24,394.64,266.24,394.64,266.24,394.64" /><glyph unicode="&#x0078;" d="M160,0C160,0,864,0,864,0C890.464,0,912,21.536,912,48C912,48,912,976,912,976C912,1002.464,890.464,1024,864,1024C864,1024,160,1024,160,1024C133.536,1024,112,1002.464,112,976C112,976,112,48,112,48C112,21.536,133.536,0,160,0C160,0,160,0,160,0M144,976C144,984.832,151.168,992,160,992C160,992,864,992,864,992C872.832,992,880,984.832,880,976C880,976,880,48,880,48C880,39.168,872.832,32,864,32C864,32,160,32,160,32C151.168,32,144,39.168,144,48C144,48,144,976,144,976C144,976,144,976,144,976M224,160C224,160,800,160,800,160C808.832,160,816,167.168,816,176C816,176,816,912,816,912C816,920.832,808.832,928,800,928C800,928,224,928,224,928C215.168,928,208,920.832,208,912C208,912,208,176,208,176C208,167.168,215.168,160,224,160C224,160,224,160,224,160M240,896C240,896,784,896,784,896C784,896,784,192,784,192C784,192,240,192,240,192C240,192,240,896,240,896C240,896,240,896,240,896M496,96C496,78.336,510.336,64,528,64C545.664,64,560,78.336,560,96C560,113.664,545.664,128,528,128C510.336,128,496,113.664,496,96C496,96,496,96,496,96" /></font>
</defs>
</svg>
