<?xml version="1.0" standalone="no"?><!DOCTYPE svg PUBLIC "-//W3C//DTD SVG 1.1//EN" "http://www.w3.org/Graphics/SVG/1.1/DTD/svg11.dtd" ><svg xmlns="http://www.w3.org/2000/svg"><metadata>Generated by Glyphter</metadata><defs><font id="sporto3" horiz-adv-x="0"><font-face units-per-em="1024" ascent="1024" descent="0" font-family="sporto3" font-weight="normal" /><missing-glyph horiz-adv-x="0" /><glyph unicode="&#x0041;" d="M736,960C736,995.392,764.608,1024,800,1024C835.392,1024,864,995.392,864,960C864,960,864,352,864,352C864,157.568,706.368,0,512,0C317.632,0,160,157.568,160,352C160,352,160,768,160,768C160,909.376,274.624,1024,416,1024C557.376,1024,672,909.376,672,768C672,768,672,352,672,352C672,263.616,600.384,192,512,192C423.616,192,352,263.616,352,352C352,352,352,768,352,768C352,803.328,380.608,832,416,832C451.392,832,480,803.328,480,768C480,768,480,352,480,352C480,334.336,494.336,320,512,320C529.664,320,544,334.336,544,352C544,352,544,768,544,768C544,838.656,486.656,896,416,896C345.344,896,288,838.656,288,768C288,768,288,352,288,352C288,228.288,388.288,128,512,128C635.712,128,736,228.288,736,352C736,352,736,960,736,960C736,960,736,960,736,960" /><glyph unicode="&#x0042;" d="M832,960C832,995.392,860.608,1024,896,1024C931.392,1024,960,995.392,960,960C960,960,960,448,960,448C960,200.576,759.424,0,512,0C264.576,0,64,200.576,64,448C64,448,64,704,64,704C64,880.768,207.232,1024,384,1024C560.768,1024,704,880.768,704,704C704,704,704,512,704,512C704,405.952,618.048,320,512,320C405.952,320,320,405.952,320,512C320,512,320,704,320,704C320,739.392,348.608,768,384,768C419.392,768,448,739.392,448,704C448,704,448,512,448,512C448,476.608,476.608,448,512,448C547.392,448,576,476.608,576,512C576,512,576,704,576,704C576,810.048,490.048,896,384,896C277.952,896,192,810.048,192,704C192,704,192,448,192,448C192,271.232,335.232,128,512,128C688.768,128,832,271.232,832,448C832,448,832,960,832,960C832,960,832,960,832,960" /><glyph unicode="&#x0043;" d="M908.605,593.652C875.965,574.836,775.485,535.732,683.453,512.5C775.485,489.268,875.965,450.164,908.669,431.348C969.789,396.02,990.781,317.748,955.453,256.5C920.125,195.252,841.853,174.324,780.669,209.652C747.965,228.532,663.869,296.116,597.757,364.212C623.677,272.82,640.061,166.196,640.061,128.5C640.061,57.844,582.717,0.5,512.061,0.5C441.405,0.5,384.061,57.844,384.061,128.5C384.061,166.196,400.445,272.82,426.429,364.212C360.317,296.116,276.221,228.532,243.517,209.652C182.269,174.324,103.997,195.252,68.669,256.5C33.341,317.748,54.269,396.02,115.517,431.348C148.157,450.164,248.637,489.268,340.733,512.5C248.637,535.732,148.157,574.836,115.517,593.652C54.269,628.98,33.341,707.252,68.669,768.5C103.997,829.748,182.269,850.676,243.517,815.348C276.221,796.468,360.317,728.884,426.429,660.788C400.445,752.18,384.061,858.804,384.061,896.5C384.061,967.156,441.405,1024.5,512.061,1024.5C582.717,1024.5,640.061,967.156,640.061,896.5C640.061,858.804,623.677,752.18,597.693,660.788C663.805,728.884,747.965,796.468,780.605,815.348C841.789,850.676,920.125,829.748,955.389,768.5C990.781,707.252,969.789,628.98,908.605,593.652C908.605,593.652,908.605,593.652,908.605,593.652" /><glyph unicode="&#x0044;" d="M640,16.768C640,16.768,640,151.488,640,151.488C788.8,204.352,896,344.96,896,512C896,678.912,788.8,819.584,640,872.448C640,872.448,640,1007.232,640,1007.232C860.672,950.272,1024,750.464,1024,512C1024,273.472,860.672,73.664,640,16.768C640,16.768,640,16.768,640,16.768M192,256C85.952,256,0,342.016,0,448C0,448,0,576,0,576C0,682.048,85.952,768,192,768C192,768,256,768,256,768C256,768,576,1024,576,1024C576,1024,576,0,576,0C576,0,256,256,256,256C256,256,192,256,192,256C192,256,192,256,192,256M448,256C448,256,448,448,448,448C448,448,448,576,448,576C448,576,448,768,448,768C448,768,320,640,320,640C320,640,192,640,192,640C156.608,640,128,611.328,128,576C128,576,128,448,128,448C128,412.608,156.608,384,192,384C192,384,320,384,320,384C320,384,448,256,448,256C448,256,448,256,448,256M832,512C832,392.896,750.272,293.632,640,265.088C640,265.088,640,401.728,640,401.728C678.144,423.936,704,464.768,704,512C704,559.232,678.144,600.064,640,622.272C640,622.272,640,758.912,640,758.912C750.272,730.432,832,631.168,832,512C832,512,832,512,832,512" /><glyph unicode="&#x0045;" d="M416,256C309.952,256,224,342.016,224,448C224,448,224,576,224,576C224,682.048,309.952,768,416,768C416,768,480,768,480,768C480,768,800,1024,800,1024C800,1024,800,0,800,0C800,0,480,256,480,256C480,256,416,256,416,256C416,256,416,256,416,256M672,256C672,256,672,448,672,448C672,448,672,576,672,576C672,576,672,768,672,768C672,768,544,640,544,640C544,640,416,640,416,640C380.608,640,352,611.328,352,576C352,576,352,448,352,448C352,412.608,380.608,384,416,384C416,384,544,384,544,384C544,384,672,256,672,256C672,256,672,256,672,256" /><glyph unicode="&#x0046;" d="M288,256C181.952,256,96,342.016,96,448C96,448,96,576,96,576C96,682.048,181.952,768,288,768C288,768,352,768,352,768C352,768,672,1024,672,1024C672,1024,672,0,672,0C672,0,352,256,352,256C352,256,288,256,288,256C288,256,288,256,288,256M544,256C544,256,544,448,544,448C544,448,544,576,544,576C544,576,544,768,544,768C544,768,416,640,416,640C416,640,288,640,288,640C252.608,640,224,611.328,224,576C224,576,224,448,224,448C224,412.608,252.608,384,288,384C288,384,416,384,416,384C416,384,544,256,544,256C544,256,544,256,544,256M928,512C928,392.896,846.272,293.632,736,265.088C736,265.088,736,401.728,736,401.728C774.144,423.936,800,464.768,800,512C800,559.232,774.144,600.064,736,622.272C736,622.272,736,758.912,736,758.912C846.272,730.432,928,631.168,928,512C928,512,928,512,928,512" /><glyph unicode="&#x0047;" d="M1018.992,421.504C1018.992,421.504,928.496,331.008,928.496,331.008C928.496,331.008,838,421.504,838,421.504C838,421.504,747.504,331.008,747.504,331.008C747.504,331.008,657.008,421.504,657.008,421.504C657.008,421.504,747.504,512,747.504,512C747.504,512,657.008,602.496,657.008,602.496C657.008,602.496,747.504,693.056,747.504,693.056C747.504,693.056,838,602.496,838,602.496C838,602.496,928.496,693.056,928.496,693.056C928.496,693.056,1018.992,602.496,1018.992,602.496C1018.992,602.496,928.496,512,928.496,512C928.496,512,1018.992,421.504,1018.992,421.504C1018.992,421.504,1018.992,421.504,1018.992,421.504M198,256C91.952,256,6,342.016,6,448C6,448,6,576,6,576C6,682.048,91.952,768,198,768C198,768,262,768,262,768C262,768,582,1024,582,1024C582,1024,582,0,582,0C582,0,262,256,262,256C262,256,198,256,198,256C198,256,198,256,198,256M454,256C454,256,454,448,454,448C454,448,454,576,454,576C454,576,454,768,454,768C454,768,326,640,326,640C326,640,198,640,198,640C162.608,640,134,611.328,134,576C134,576,134,448,134,448C134,412.608,162.608,384,198,384C198,384,326,384,326,384C326,384,454,256,454,256C454,256,454,256,454,256" /><glyph unicode="&#x0048;" d="M352.616,852.672C363.688,859.136,374.952,865.344,386.92,870.4C385.192,878.656,384.296,887.232,384.296,896C384.296,966.656,441.64,1024,512.296,1024C582.952,1024,640.296,966.656,640.296,896C640.296,887.232,639.4,878.656,637.672,870.4C752.04,821.568,832.296,708.16,832.296,576C832.296,576,832.296,489.856,832.296,489.856C872.552,459.52,896.296,423.168,896.296,384C896.296,364.288,888.68,345.6,877.544,327.744C877.544,327.744,352.616,852.672,352.616,852.672C352.616,852.672,352.616,852.672,352.616,852.672M893.032,40.704C893.032,40.704,41,892.736,41,892.736C41,892.736,131.496,983.296,131.496,983.296C131.496,983.296,983.528,131.2,983.528,131.2C983.528,131.2,893.032,40.704,893.032,40.704C893.032,40.704,893.032,40.704,893.032,40.704M192.296,489.856C192.296,489.856,192.296,576,192.296,576C192.296,599.104,195.56,621.376,200.232,643.072C200.232,643.072,639.656,203.648,639.656,203.648C599.528,196.544,557.16,192,512.296,192C300.264,192,128.296,277.952,128.296,384C128.296,423.168,152.04,459.52,192.296,489.856C192.296,489.856,192.296,489.856,192.296,489.856M512.296,128C556.712,128,598.824,132.224,639.272,138.24C639.528,134.784,640.296,131.52,640.296,128C640.296,57.344,582.952,0,512.296,0C441.64,0,384.296,57.344,384.296,128C384.296,131.52,385.064,134.784,385.32,138.24C425.832,132.224,467.88,128,512.296,128C512.296,128,512.296,128,512.296,128" /><glyph unicode="&#x0049;" d="M896,704C896,704,896,192,896,192C896,85.952,809.984,0,704,0C704,0,320,0,320,0C213.952,0,128,85.952,128,192C128,192,128,704,128,704C92.672,704,64,732.608,64,768C64,803.392,92.672,832,128,832C128,832,320,832,320,832C320,832,320,832,320,832C320,938.048,405.952,1024,512,1024C617.984,1024,704,938.048,704,832C704,832,704,832,704,832C704,832,896,832,896,832C931.392,832,960,803.392,960,768C960,732.608,931.392,704,896,704C896,704,896,704,896,704M512,896C476.672,896,448,867.392,448,832C448,832,576,832,576,832C576,867.392,547.392,896,512,896C512,896,512,896,512,896M256,704C256,704,256,192,256,192C256,156.608,284.672,128,320,128C320,128,704,128,704,128C739.392,128,768,156.608,768,192C768,192,768,704,768,704C768,704,256,704,256,704C256,704,256,704,256,704M608,256C590.4,256,576,270.336,576,288C576,288,576,544,576,544C576,561.664,590.4,576,608,576C625.664,576,640,561.664,640,544C640,544,640,288,640,288C640,270.336,625.664,256,608,256C608,256,608,256,608,256M416,256C398.336,256,384,270.336,384,288C384,288,384,544,384,544C384,561.664,398.336,576,416,576C433.664,576,448,561.664,448,544C448,544,448,288,448,288C448,270.336,433.664,256,416,256C416,256,416,256,416,256" /><glyph unicode="&#x004a;" d="M960,128C862.08,123.712,675.392,106.944,574.08,54.336C569.28,23.744,543.936,0,512,0C480.064,0,454.784,23.744,449.92,54.336C348.672,106.944,161.92,123.712,64,128C28.672,128,0,156.608,0,192C0,192,0,960,0,960C0,995.328,28.672,1024,64,1024C66.24,1024,68.096,1022.912,70.336,1022.72C510.464,1011.392,512,896,512,896C512,896,513.536,1011.392,953.664,1022.72C955.904,1022.912,957.76,1024,960,1024C995.392,1024,1024,995.328,1024,960C1024,960,1024,192,1024,192C1024,156.608,995.392,128,960,128C960,128,960,128,960,128M448,823.424C365.44,865.408,228.864,882.88,128,890.304C128,890.304,128,252.48,128,252.48C299.776,243.776,395.904,218.048,448,192C448,192,448,823.424,448,823.424C448,823.424,448,823.424,448,823.424M896,890.304C795.136,882.88,658.56,865.408,576,823.424C576,823.424,576,192,576,192C628.096,218.048,724.224,243.776,896,252.48C896,252.48,896,890.304,896,890.304C896,890.304,896,890.304,896,890.304M832,768C832,768,832,640,832,640C832,640,640,640,640,576C640,576,640,704,640,704C640,704,640,768,832,768C832,768,832,768,832,768M832,512C832,512,832,384,832,384C832,384,640,384,640,320C640,320,640,448,640,448C640,448,640,512,832,512C832,512,832,512,832,512M384,704C384,704,384,576,384,576C384,640,192,640,192,640C192,640,192,768,192,768C384,768,384,704,384,704C384,704,384,704,384,704M384,448C384,448,384,320,384,320C384,384,192,384,192,384C192,384,192,512,192,512C384,512,384,448,384,448C384,448,384,448,384,448" /><glyph unicode="&#x004b;" d="M967.744,969.984C946.24,984.512,921.28,992,896,992C879.936,992,863.808,988.928,848.448,982.784C848.448,982.784,528.448,854.784,528.448,854.784C522.432,852.416,517.504,848.448,512,845.184C506.496,848.448,501.568,852.416,495.552,854.784C495.552,854.784,175.552,982.784,175.552,982.784C160.192,988.928,144.064,992,128,992C102.784,992,77.696,984.512,56.256,969.984C21.056,946.176,0,906.496,0,864C0,864,0,288,0,288C0,235.712,31.872,188.544,80.448,169.152C80.448,169.152,400.448,41.152,400.448,41.152C415.808,35.008,431.936,32,448,32C470.4,32,492.224,38.784,512,50.304C531.776,38.784,553.6,32,576,32C592.064,32,608.192,35.008,623.552,41.152C623.552,41.152,943.552,169.152,943.552,169.152C992.128,188.544,1024,235.712,1024,288C1024,288,1024,864,1024,864C1024,906.496,1002.944,946.176,967.744,969.984C967.744,969.984,967.744,969.984,967.744,969.984M448,160C448,160,128,288,128,288C128,288,128,864,128,864C128,864,448,736,448,736C448,736,448,160,448,160C448,160,448,160,448,160M896,288C896,288,576,160,576,160C576,160,576,736,576,736C576,736,896,864,896,864C896,864,896,288,896,288C896,288,896,288,896,288M384,697.6C384,697.6,192,774.4,192,774.4C192,774.4,192,710.4,192,710.4C192,710.4,384,633.6,384,633.6C384,633.6,384,697.6,384,697.6C384,697.6,384,697.6,384,697.6M384,569.6C384,569.6,192,646.4,192,646.4C192,646.4,192,582.4,192,582.4C192,582.4,384,505.6,384,505.6C384,505.6,384,569.6,384,569.6C384,569.6,384,569.6,384,569.6M384,441.6C384,441.6,192,518.4,192,518.4C192,518.4,192,454.4,192,454.4C192,454.4,384,377.6,384,377.6C384,377.6,384,441.6,384,441.6C384,441.6,384,441.6,384,441.6M384,313.6C384,313.6,192,390.4,192,390.4C192,390.4,192,326.4,192,326.4C192,326.4,384,249.6,384,249.6C384,249.6,384,313.6,384,313.6C384,313.6,384,313.6,384,313.6M832,390.4C832,390.4,640,313.6,640,313.6C640,313.6,640,249.6,640,249.6C640,249.6,832,326.336,832,326.336C832,326.336,832,390.4,832,390.4C832,390.4,832,390.4,832,390.4M832,518.4C832,518.4,640,441.6,640,441.6C640,441.6,640,377.6,640,377.6C640,377.6,832,454.4,832,454.4C832,454.4,832,518.4,832,518.4C832,518.4,832,518.4,832,518.4M832,646.4C832,646.4,640,569.6,640,569.6C640,569.6,640,505.6,640,505.6C640,505.6,832,582.4,832,582.4C832,582.4,832,646.4,832,646.4C832,646.4,832,646.4,832,646.4M832,774.4C832,774.4,640,697.6,640,697.6C640,697.6,640,633.6,640,633.6C640,633.6,832,710.4,832,710.4C832,710.4,832,774.4,832,774.4C832,774.4,832,774.4,832,774.4" /><glyph unicode="&#x004c;" d="M682.044,388.164C671.258,373.009,659.994,358.537,647.979,345.702C648.047,344.132,648.867,342.835,648.867,341.333C648.867,341.333,648.867,204.8,648.867,204.8C648.867,167.049,618.351,136.533,580.6,136.533C580.6,136.533,444.067,136.533,444.067,136.533C406.315,136.533,375.8,167.049,375.8,204.8C375.8,204.8,375.8,341.333,375.8,341.333C375.8,342.835,376.619,344.132,376.687,345.634C364.673,358.468,353.409,372.941,342.622,388.096C240.564,447.147,171,556.237,171,682.667C171,871.219,323.781,1024,512.333,1024C700.886,1024,853.667,871.219,853.667,682.667C853.667,556.237,784.103,447.147,682.044,388.164C682.044,388.164,682.044,388.164,682.044,388.164M478.2,68.267C478.2,68.267,546.467,68.267,546.467,68.267C565.308,68.267,580.6,52.975,580.6,34.133C580.6,15.292,565.308,0,546.467,0C546.467,0,478.2,0,478.2,0C459.358,0,444.067,15.292,444.067,34.133C444.067,52.975,459.358,68.267,478.2,68.267C478.2,68.267,478.2,68.267,478.2,68.267" /><glyph unicode="&#x004d;" d="M832,128C832,128,832,128,832,128C832,128,768,128,768,128C768,198.656,710.656,256,640,256C640,256,384,256,384,256C313.344,256,256,198.656,256,128C256,128,192,128,192,128C192,128,192,128,192,128C85.952,128,0,214.016,0,320C0,320,0,704,0,704C0,810.048,85.952,896,192,896C192,896,832,896,832,896C937.984,896,1024,810.048,1024,704C1024,704,1024,320,1024,320C1024,214.016,937.984,128,832,128C832,128,832,128,832,128M832,192C832,192,896,192,896,192C896,192,896,256,896,256C896,256,832,256,832,256C832,256,832,192,832,192C832,192,832,192,832,192M128,192C128,192,192,192,192,192C192,192,192,256,192,256C192,256,128,256,128,256C128,256,128,192,128,192C128,192,128,192,128,192M896,704C896,739.328,867.392,768,832,768C832,768,192,768,192,768C156.672,768,128,739.328,128,704C128,704,128,384,128,384C128,348.608,156.672,320,192,320C192,320,832,320,832,320C867.392,320,896,348.608,896,384C896,384,896,704,896,704C896,704,896,704,896,704M736,384C683.008,384,640,427.008,640,480C640,532.992,683.008,576,736,576C788.992,576,832,532.992,832,480C832,427.008,788.992,384,736,384C736,384,736,384,736,384M192,704C192,704,832,704,832,704C832,704,832,640,832,640C832,640,192,640,192,640C192,640,192,704,192,704C192,704,192,704,192,704M288,576C341.056,576,384,532.992,384,480C384,427.008,341.056,384,288,384C234.944,384,192,427.008,192,480C192,532.992,234.944,576,288,576C288,576,288,576,288,576M576,448C576,448,448,448,448,448C448,448,448,512,448,512C448,512,576,512,576,512C576,512,576,448,576,448C576,448,576,448,576,448M416,192C416,192,608,192,608,192C649.728,192,684.864,165.184,698.112,128C698.112,128,325.888,128,325.888,128C339.072,165.184,374.272,192,416,192C416,192,416,192,416,192" /><glyph unicode="&#x004e;" d="M736,0C576.96,0,448,128.96,448,288C448,447.04,576.96,576,736,576C895.04,576,1024,447.04,1024,288C1024,128.96,895.04,0,736,0C736,0,736,0,736,0M736,448C647.616,448,576,376.384,576,288C576,199.616,647.616,128,736,128C824.384,128,896,199.616,896,288C896,376.384,824.384,448,736,448C736,448,736,448,736,448M768,192C768,192,704,192,704,192C704,192,704,256,704,256C704,256,640,256,640,256C640,256,640,320,640,320C640,320,704,320,704,320C704,320,704,384,704,384C704,384,768,384,768,384C768,384,768,320,768,320C768,320,832,320,832,320C832,320,832,256,832,256C832,256,768,256,768,256C768,256,768,192,768,192C768,192,768,192,768,192M822.656,703.04C822.656,703.04,736,704,736,704C506.624,704,320,517.376,320,288C320,277.184,320.832,266.624,321.6,256C321.6,256,256,256,256,256C114.624,256,0,370.624,0,512C0,512,0,576,0,576C0,717.376,114.624,832,256,832C280.32,832,303.424,827.52,325.696,821.184C350.208,937.024,452.864,1024,576,1024C717.376,1024,832,909.376,832,768C832,745.408,828.096,723.904,822.656,703.04C822.656,703.04,822.656,703.04,822.656,703.04" /><glyph unicode="&#x004f;" d="M896,0C896,0,128,0,128,0C92.608,0,64,28.608,64,64C64,64,64,896,64,896C64,931.328,92.608,960,128,960C128,960,256,960,256,960C256,960,256,832,256,832C256,832,192,832,192,832C192,832,192,128,192,128C192,128,832,128,832,128C832,128,832,832,832,832C832,832,768,832,768,832C768,832,768,960,768,960C768,960,896,960,896,960C931.392,960,960,931.328,960,896C960,896,960,64,960,64C960,28.608,931.392,0,896,0C896,0,896,0,896,0M256,768C256,768,320,768,320,768C320,732.672,348.608,704,384,704C384,704,640,704,640,704C675.392,704,704,732.672,704,768C704,768,768,768,768,768C768,768,768,192,768,192C768,192,256,192,256,192C256,192,256,768,256,768C256,768,256,768,256,768M640,768C640,768,384,768,384,768C348.608,768,320,796.672,320,832C320,832,320,960,320,960C320,960,320,960,320,960C320,960,448,960,448,960C448,960,448,1024,448,1024C448,1024,576,1024,576,1024C576,1024,576,960,576,960C576,960,704,960,704,960C704,960,704,960,704,960C704,960,704,832,704,832C704,796.672,675.392,768,640,768C640,768,640,768,640,768M576,896C576,896,448,896,448,896C448,896,448,832,448,832C448,832,576,832,576,832C576,832,576,896,576,896C576,896,576,896,576,896" /><glyph unicode="&#x0050;" d="M832,640C832,640,832,640,832,640C832,640,832,640,832,640C832,640,768,640,768,640C768,640,768,384,768,384C768,384,832,384,832,384C832,384,832,384,832,384C832,384,832,384,832,384C937.984,384,1024,297.984,1024,192C1024,86.016,937.984,0,832,0C726.016,0,640,86.016,640,192C640,192,640,192,640,192C640,192,640,192,640,192C640,192,640,256,640,256C640,256,384,256,384,256C384,256,384,192,384,192C384,86.016,298.048,0,192,0C85.952,0,0,86.016,0,192C0,297.984,85.952,384,192,384C192,384,192,384,192,384C192,384,192,384,192,384C192,384,256,384,256,384C256,384,256,640,256,640C256,640,192,640,192,640C85.952,640,0,725.952,0,832C0,938.048,85.952,1024,192,1024C298.048,1024,384,938.048,384,832C384,809.408,379.392,788.096,372.224,768C372.224,768,384,768,384,768C384,768,640,768,640,768C640,768,651.776,768,651.776,768C644.608,788.096,640,809.408,640,832C640,938.048,726.016,1024,832,1024C937.984,1024,1024,938.048,1024,832C1024,725.952,937.984,640,832,640C832,640,832,640,832,640M832,128C867.392,128,896,156.608,896,192C896,227.392,867.392,256,832,256C796.608,256,768,227.392,768,192C768,156.608,796.608,128,832,128C832,128,832,128,832,128M192,256C156.672,256,128,227.392,128,192C128,156.608,156.672,128,192,128C227.328,128,256,156.608,256,192C256,227.392,227.328,256,192,256C192,256,192,256,192,256M192,896C156.672,896,128,867.328,128,832C128,796.672,156.672,768,192,768C227.328,768,256,796.672,256,832C256,867.328,227.328,896,192,896C192,896,192,896,192,896M640,640C640,640,384,640,384,640C384,640,384,384,384,384C384,384,640,384,640,384C640,384,640,640,640,640C640,640,640,640,640,640M832,896C796.608,896,768,867.328,768,832C768,796.672,796.608,768,832,768C867.392,768,896,796.672,896,832C896,867.328,867.392,896,832,896C832,896,832,896,832,896" /><glyph unicode="&#x0051;" d="M832,0C832,0,192,0,192,0C85.952,0,0,86.016,0,192C0,192,0,832,0,832C0,938.048,85.952,1024,192,1024C192,1024,832,1024,832,1024C937.984,1024,1024,938.048,1024,832C1024,832,1024,192,1024,192C1024,86.016,937.984,0,832,0C832,0,832,0,832,0M896,832C896,867.328,867.392,896,832,896C832,896,192,896,192,896C156.672,896,128,867.328,128,832C128,832,128,192,128,192C128,156.608,156.672,128,192,128C192,128,832,128,832,128C867.392,128,896,156.608,896,192C896,192,896,832,896,832C896,832,896,832,896,832M768,448C768,448,768,384,768,384C768,278.016,681.984,192,576,192C576,192,576,320,576,320C611.392,320,640,348.608,640,384C640,384,640,448,640,448C675.392,448,704,476.672,704,512C704,547.328,675.392,576,640,576C640,576,640,640,640,640C640,675.328,611.392,704,576,704C576,704,576,832,576,832C681.984,832,768,746.048,768,640C768,640,768,576,768,576C803.392,576,832,547.328,832,512C832,476.672,803.392,448,768,448C768,448,768,448,768,448M256,384C256,384,256,448,256,448C220.672,448,192,476.672,192,512C192,547.328,220.672,576,256,576C256,576,256,640,256,640C256,746.048,341.952,832,448,832C448,832,448,704,448,704C412.672,704,384,675.328,384,640C384,640,384,576,384,576C348.672,576,320,547.328,320,512C320,476.672,348.672,448,384,448C384,448,384,384,384,384C384,348.608,412.672,320,448,320C448,320,448,192,448,192C341.952,192,256,278.016,256,384C256,384,256,384,256,384" /><glyph unicode="&#x0052;" d="M832,128C832,128,256,128,256,128C114.624,128,0,242.624,0,384C0,384,0,448,0,448C0,589.376,114.624,704,256,704C280.32,704,303.424,699.52,325.696,693.184C350.208,809.024,452.864,896,576,896C717.376,896,832,781.376,832,640C832,617.408,828.096,595.904,822.656,575.04C825.792,575.232,828.8,576,832,576C938.048,576,1024,489.984,1024,384C1024,384,1024,320,1024,320C1024,213.952,938.048,128,832,128C832,128,832,128,832,128M544,576C455.616,576,384,504.384,384,416C384,327.616,455.616,256,544,256C632.384,256,704,327.616,704,416C704,504.384,632.384,576,544,576C544,576,544,576,544,576M576,320C576,320,512,320,512,320C512,320,512,384,512,384C512,384,448,384,448,384C448,384,448,448,448,448C448,448,512,448,512,448C512,448,512,512,512,512C512,512,576,512,576,512C576,512,576,448,576,448C576,448,640,448,640,448C640,448,640,384,640,384C640,384,576,384,576,384C576,384,576,320,576,320C576,320,576,320,576,320" /><glyph unicode="&#x0053;" d="M960,448C960,448,692.224,448,692.224,448C665.792,373.568,595.52,320,512,320C428.544,320,358.208,373.568,331.776,448C331.776,448,64,448,64,448C28.672,448,0,476.608,0,512C0,547.392,28.672,576,64,576C64,576,331.776,576,331.776,576C358.208,650.368,428.544,704,512,704C595.52,704,665.792,650.368,692.224,576C692.224,576,960,576,960,576C995.392,576,1024,547.392,1024,512C1024,476.608,995.392,448,960,448C960,448,960,448,960,448M512,576C476.672,576,448,547.392,448,512C448,476.608,476.672,448,512,448C547.392,448,576,476.608,576,512C576,547.392,547.392,576,512,576C512,576,512,576,512,576" /><glyph unicode="&#x0054;" d="M384.004,448.002C419.395,448.002,448.002,419.395,448.002,384.004C448.002,384.004,448.002,192.01,448.002,192.01C448.002,166.155,432.386,142.732,408.515,132.876C400.579,129.612,392.26,128.012,384.004,128.012C367.365,128.012,350.981,134.54,338.757,146.763C338.757,146.763,288.007,197.514,288.007,197.514C288.007,197.514,109.261,18.767,109.261,18.767C84.237,-6.256,43.791,-6.256,18.767,18.767C-6.256,43.791,-6.256,84.237,18.767,109.261C18.767,109.261,197.514,288.007,197.514,288.007C197.514,288.007,146.763,338.757,146.763,338.757C128.46,357.061,123.02,384.58,132.876,408.515C142.732,432.386,166.155,448.002,192.01,448.002C192.01,448.002,384.004,448.002,384.004,448.002C384.004,448.002,384.004,448.002,384.004,448.002M639.996,575.998C604.605,575.998,575.998,604.605,575.998,639.996C575.998,639.996,575.998,831.99,575.998,831.99C575.998,857.845,591.614,881.268,615.485,891.124C623.421,894.388,631.74,895.988,639.996,895.988C656.635,895.988,673.019,889.46,685.243,877.237C685.243,877.237,735.993,826.486,735.993,826.486C735.993,826.486,914.739,1005.233,914.739,1005.233C939.763,1030.256,980.209,1030.256,1005.233,1005.233C1030.256,980.209,1030.256,939.763,1005.233,914.739C1005.233,914.739,826.486,735.993,826.486,735.993C826.486,735.993,877.237,685.243,877.237,685.243C895.54,666.939,900.98,639.42,891.124,615.485C881.268,591.614,857.845,575.998,831.99,575.998C831.99,575.998,639.996,575.998,639.996,575.998C639.996,575.998,639.996,575.998,639.996,575.998M408.515,891.124C432.386,881.268,448.002,857.845,448.002,831.99C448.002,831.99,448.002,639.996,448.002,639.996C448.002,604.605,419.395,575.998,384.004,575.998C384.004,575.998,192.01,575.998,192.01,575.998C166.155,575.998,142.732,591.614,132.876,615.485C123.02,639.42,128.46,666.939,146.763,685.243C146.763,685.243,197.514,735.993,197.514,735.993C197.514,735.993,18.767,914.739,18.767,914.739C-6.256,939.763,-6.256,980.209,18.767,1005.233C43.791,1030.256,84.237,1030.256,109.261,1005.233C109.261,1005.233,288.007,826.486,288.007,826.486C288.007,826.486,338.757,877.237,338.757,877.237C350.981,889.46,367.365,895.988,384.004,895.988C392.26,895.988,400.579,894.388,408.515,891.124C408.515,891.124,408.515,891.124,408.515,891.124M826.486,288.007C826.486,288.007,1005.233,109.261,1005.233,109.261C1030.256,84.237,1030.256,43.791,1005.233,18.767C980.209,-6.256,939.763,-6.256,914.739,18.767C914.739,18.767,735.993,197.514,735.993,197.514C735.993,197.514,685.243,146.763,685.243,146.763C673.019,134.54,656.635,128.012,639.996,128.012C631.74,128.012,623.421,129.612,615.485,132.876C591.614,142.732,575.998,166.155,575.998,192.01C575.998,192.01,575.998,384.004,575.998,384.004C575.998,419.395,604.605,448.002,639.996,448.002C639.996,448.002,831.99,448.002,831.99,448.002C857.845,448.002,881.268,432.386,891.124,408.515C900.98,384.58,895.54,357.061,877.237,338.757C877.237,338.757,826.486,288.007,826.486,288.007C826.486,288.007,826.486,288.007,826.486,288.007" /><glyph unicode="&#x0055;" d="M832,128C832,128,192,128,192,128C85.952,128,0,213.952,0,320C0,320,0,704,0,704C0,810.048,85.952,896,192,896C192,896,832,896,832,896C937.984,896,1024,810.048,1024,704C1024,704,1024,320,1024,320C1024,213.952,937.984,128,832,128C832,128,832,128,832,128M192,768C176.32,768,162.56,761.728,151.424,752.384C151.424,752.384,512,512,512,512C512,512,872.64,752.384,872.64,752.384C861.504,761.728,847.616,768,832,768C832,768,192,768,192,768C192,768,192,768,192,768M896,640C896,640,512,384,512,384C512,384,128,640,128,640C128,640,128,384,128,384C128,384,320,448,320,448C320,448,146.752,274.752,146.752,274.752C158.336,263.168,174.336,256,192,256C192,256,832,256,832,256C849.664,256,865.664,263.168,877.248,274.752C877.248,274.752,704,448,704,448C704,448,896,384,896,384C896,384,896,640,896,640C896,640,896,640,896,640" /><glyph unicode="&#x0056;" d="M640,384C640,384,384,384,384,384C365.888,384,349.696,376.32,338.048,364.224C402.816,333.44,448,268.416,448,192C448,85.952,362.048,0,256,0C149.952,0,64,85.952,64,192C64,275.52,117.568,345.792,192,372.288C192,372.288,192,651.776,192,651.776C117.568,678.208,64,748.48,64,832C64,938.048,149.952,1024,256,1024C362.048,1024,448,938.048,448,832C448,748.48,394.432,678.208,320,651.776C320,651.776,320,500.224,320,500.224C340.096,507.392,361.408,512,384,512C384,512,640,512,640,512C675.392,512,704,540.608,704,576C704,576,704,587.776,704,587.776C629.632,614.208,576,684.48,576,768C576,874.048,662.016,960,768,960C873.984,960,960,874.048,960,768C960,684.48,906.368,614.208,832,587.776C832,587.776,832,576,832,576C832,469.952,745.984,384,640,384C640,384,640,384,640,384M768,832C803.392,832,832,803.392,832,768C832,732.608,803.392,704,768,704C732.608,704,704,732.608,704,768C704,803.392,732.608,832,768,832C768,832,768,832,768,832M256,896C291.328,896,320,867.392,320,832C320,796.608,291.328,768,256,768C220.672,768,192,796.608,192,832C192,867.392,220.672,896,256,896C256,896,256,896,256,896M256,256C291.328,256,320,227.392,320,192C320,156.608,291.328,128,256,128C220.672,128,192,156.608,192,192C192,227.392,220.672,256,256,256C256,256,256,256,256,256" /><glyph unicode="&#x0057;" d="M1024,320C1024,320,512,320,512,320C512,320,512,448,512,448C512,448,192,448,192,448C192,448,192,960,192,960C192,960,640,960,640,960C640,960,640,832,640,832C640,832,1024,832,1024,832C1024,832,896,576,896,576C896,576,1024,320,1024,320C1024,320,1024,320,1024,320M64,0C28.672,0,0,28.608,0,64C0,64,0,960,0,960C0,995.392,28.672,1024,64,1024C99.392,1024,128,995.392,128,960C128,960,128,64,128,64C128,28.608,99.392,0,64,0C64,0,64,0,64,0" /><glyph unicode="&#x0058;" d="M1024,320C1024,320,512,320,512,320C512,320,512,448,512,448C512,448,192,448,192,448C192,448,192,960,192,960C192,960,640,960,640,960C640,960,640,832,640,832C640,832,1024,832,1024,832C1024,832,896,576,896,576C896,576,1024,320,1024,320C1024,320,1024,320,1024,320M512,832C512,832,320,832,320,832C320,832,320,576,320,576C320,576,512,576,512,576C512,576,512,832,512,832C512,832,512,832,512,832M816.896,704C816.896,704,640,704,640,704C640,704,640,448,640,448C640,448,816.896,448,816.896,448C816.896,448,752.896,576,752.896,576C752.896,576,816.896,704,816.896,704C816.896,704,816.896,704,816.896,704M64,0C28.672,0,0,28.608,0,64C0,64,0,960,0,960C0,995.392,28.672,1024,64,1024C99.392,1024,128,995.392,128,960C128,960,128,64,128,64C128,28.608,99.392,0,64,0C64,0,64,0,64,0" /><glyph unicode="&#x0059;" d="M960,448C956.032,448,952.704,449.536,948.928,450.24C923.136,374.656,852.288,320,768,320C768,320,768,768,768,768C768,768,704,768,704,768C704,803.328,675.392,832,640,832C640,832,384,832,384,832C348.672,832,320,803.328,320,768C320,768,256,768,256,768C256,768,256,384,256,384C256,384,256,320,256,320C256,320,256,256,256,256C256,220.608,284.672,192,320,192C320,227.392,348.672,256,384,256C384,256,448,256,448,256C483.328,256,512,227.392,512,192C512,192,512,128,512,128C512,92.608,483.328,64,448,64C448,64,384,64,384,64C348.672,64,320,92.608,320,128C249.344,128,192,185.344,192,256C192,256,192,331.392,192,331.392C137.152,350.976,93.952,394.88,75.072,450.24C71.36,449.536,67.968,448,64,448C28.672,448,0,476.672,0,512C0,547.328,28.672,576,64,576C67.776,576,71.04,574.464,74.688,573.824C93.632,628.992,137.024,672.704,192,692.224C192,692.224,192,768,192,768C192,874.048,277.952,960,384,960C384,960,640,960,640,960C746.048,960,832,874.048,832,768C832,768,832,692.224,832,692.224C886.976,672.64,930.304,628.928,949.376,573.824C952.96,574.464,956.16,576,960,576C995.392,576,1024,547.328,1024,512C1024,476.672,995.392,448,960,448C960,448,960,448,960,448M192,576C192,576,128,576,128,576C128,576,128,448,128,448C128,448,192,448,192,448C192,448,192,576,192,576C192,576,192,576,192,576M896,576C896,576,832,576,832,576C832,576,832,448,832,448C832,448,896,448,896,448C896,448,896,576,896,576C896,576,896,576,896,576" /><glyph unicode="&#x005a;" d="M1024,512C1024,794.752,794.752,1024,512,1024C229.248,1024,0,794.752,0,512C0,229.248,229.248,0,512,0C512,0,576,0,576,0C611.264,0,640,28.736,640,64C640,99.264,611.264,128,576,128C576,128,512,128,512,128C300.032,128,128,299.904,128,512C128,724.096,300.032,896,512,896C724.096,896,896,724.096,896,512C896,512,896,320,896,320C896,284.736,867.264,256,832,256C796.736,256,768,284.736,768,320C768,320,768,512,768,512C768,653.312,653.248,768,512,768C370.688,768,256,653.312,256,512C256,370.752,370.688,256,512,256C560,256,604.48,270.016,642.752,292.992C656,200,735.232,128,832,128C937.984,128,1024,214.016,1024,320C1024,320,1024,512,1024,512C1024,512,1024,512,1024,512M512,384C441.216,384,384,441.28,384,512C384,582.784,441.216,640,512,640C582.72,640,640,582.784,640,512C640,441.28,582.72,384,512,384C512,384,512,384,512,384" /><glyph unicode="&#x0061;" d="M832,0C832,0,768,0,768,0C768,0,768,384,768,384C803.392,384,832,412.608,832,448C832,448,832,1024,832,1024C938.048,1024,1024,938.048,1024,832C1024,832,1024,192,1024,192C1024,86.016,938.048,0,832,0C832,0,832,0,832,0M704,384C704,384,704,0,704,0C704,0,320,0,320,0C320,0,320,384,320,384C355.392,384,384,412.608,384,448C384,448,384,1024,384,1024C384,1024,640,1024,640,1024C640,1024,640,448,640,448C640,412.608,668.608,384,704,384C704,384,704,384,704,384M256,384C256,384,256,0,256,0C256,0,192,0,192,0C85.952,0,0,86.016,0,192C0,192,0,832,0,832C0,938.048,85.952,1024,192,1024C192,1024,192,448,192,448C192,412.608,220.608,384,256,384C256,384,256,384,256,384" /><glyph unicode="&#x0062;" d="M832,0C832,0,192,0,192,0C85.952,0,0,85.952,0,192C0,192,0,832,0,832C0,938.048,85.952,1024,192,1024C192,1024,832,1024,832,1024C937.984,1024,1024,938.048,1024,832C1024,832,1024,192,1024,192C1024,85.952,937.984,0,832,0C832,0,832,0,832,0M704,128C704,128,704,640,704,640C704,640,320,640,320,640C320,640,320,128,320,128C320,128,704,128,704,128C704,128,704,128,704,128M128,192C128,156.608,156.672,128,192,128C192,128,256,128,256,128C256,128,256,640,256,640C256,640,128,640,128,640C128,640,128,192,128,192C128,192,128,192,128,192M896,832C896,867.328,867.392,896,832,896C832,896,192,896,192,896C156.672,896,128,867.328,128,832C128,832,128,704,128,704C128,704,256,704,256,704C256,704,320,704,320,704C320,704,704,704,704,704C704,704,768,704,768,704C768,704,896,704,896,704C896,704,896,832,896,832C896,832,896,832,896,832M896,640C896,640,768,640,768,640C768,640,768,128,768,128C768,128,832,128,832,128C867.392,128,896,156.608,896,192C896,192,896,640,896,640C896,640,896,640,896,640" /><glyph unicode="&#x0063;" d="M1024,384C1024,313.344,966.656,256,896,256C966.656,256,1024,198.656,1024,128C1024,57.344,966.656,0,896,0C825.344,0,768,57.344,768,128C768,57.344,710.656,0,640,0C569.344,0,512,57.344,512,128C512,57.344,454.656,0,384,0C313.344,0,256,57.344,256,128C256,57.344,198.656,0,128,0C57.344,0,0,57.344,0,128C0,198.656,57.344,256,128,256C57.344,256,0,313.344,0,384C0,454.656,57.344,512,128,512C57.344,512,0,569.344,0,640C0,710.656,57.344,768,128,768C57.344,768,0,825.344,0,896C0,966.656,57.344,1024,128,1024C198.656,1024,256,966.656,256,896C256,966.656,313.344,1024,384,1024C454.656,1024,512,966.656,512,896C512,966.656,569.344,1024,640,1024C710.656,1024,768,966.656,768,896C768,966.656,825.344,1024,896,1024C966.656,1024,1024,966.656,1024,896C1024,825.344,966.656,768,896,768C966.656,768,1024,710.656,1024,640C1024,569.344,966.656,512,896,512C966.656,512,1024,454.656,1024,384C1024,384,1024,384,1024,384M832,832C832,832,192,832,192,832C192,832,192,192,192,192C192,192,832,192,832,192C832,192,832,832,832,832C832,832,832,832,832,832M512,768C653.376,768,768,653.376,768,512C768,512,768,416,768,416C768,363.008,724.992,320,672,320C623.616,320,584,355.968,577.344,402.496C558.208,390.976,536,384,512,384C441.344,384,384,441.344,384,512C384,582.656,441.344,640,512,640C582.656,640,640,582.656,640,512C640,512,640,416,640,416C640,398.336,654.336,384,672,384C689.664,384,704,398.336,704,416C704,416,704,512,704,512C704,618.048,618.048,704,512,704C406.016,704,320,618.048,320,512C320,405.952,406.016,320,512,320C512,320,544,320,544,320C561.664,320,576,305.664,576,288C576,270.336,561.664,256,544,256C544,256,512,256,512,256C370.624,256,256,370.624,256,512C256,653.376,370.624,768,512,768C512,768,512,768,512,768M512,576C476.608,576,448,547.392,448,512C448,476.608,476.608,448,512,448C547.392,448,576,476.608,576,512C576,547.392,547.392,576,512,576C512,576,512,576,512,576" /><glyph unicode="&#x0064;" d="M768,0C768,0,512,192,512,192C512,192,320,0,320,0C320,0,320,320,320,320C320,320,832,832,832,832C832,832,152.704,461.504,152.704,461.504C152.704,461.504,0,576,0,576C0,576,1024,1024,1024,1024C1024,1024,768,0,768,0C768,0,768,0,768,0" /><glyph unicode="&#x0065;" d="M768,0C768,0,429.184,254.144,429.184,254.144C429.184,254.144,896,896,896,896C896,896,294.784,354.88,294.784,354.88C294.784,354.88,0,576,0,576C0,576,1024,1024,1024,1024C1024,1024,768,0,768,0C768,0,768,0,768,0M256,0C256,0,256,256,256,256C256,256,448,128,448,128C448,128,256,0,256,0C256,0,256,0,256,0" /><glyph unicode="&#x0066;" d="M384,128.5C329.664,128.5,279.488,145.716,238.08,174.58C238.08,174.58,64,0.5,64,0.5C64,0.5,0,0.5,0,0.5C0,0.5,0,64.5,0,64.5C0,64.5,174.08,238.58,174.08,238.58C174.08,238.58,174.08,238.58,174.08,238.58C174.08,238.58,768,832.5,768,832.5C768,832.5,138.368,314.292,138.368,314.292C131.968,336.692,128,360.052,128,384.5C128,525.876,818.624,1024.5,960,1024.5C1024,1024.5,1024,1024.5,1024,960.5C1024,819.124,525.376,128.5,384,128.5C384,128.5,384,128.5,384,128.5" /><glyph unicode="&#x0067;" d="M832,640C938.048,640,1024,725.952,1024,832C1024,938.048,938.048,1024,832,1024C832,1024,832,1024,832,1024C256,1024,0,64,0,64C0,64,0,32,0,32C0,14.336,14.336,0,32,0C49.664,0,64,14.336,64,32C64,32,64,64,64,64C104.832,186.496,204.16,308.736,320.512,418.624C320.512,417.664,320,416.96,320,416C320,363.008,362.944,320,416,320C469.056,320,512,363.008,512,416C512,432.128,507.008,446.656,499.968,460.032C513.344,452.992,527.872,448,544,448C596.992,448,640,491.008,640,544C640,560.128,635.008,574.656,627.968,588.032C641.344,580.992,655.808,576,672,576C718.528,576,755.456,609.664,764.224,653.568C785.344,645.376,807.936,640,832,640C832,640,832,640,832,640" /><glyph unicode="&#x0068;" d="M832,192C832,192,640,192,640,192C640,192,512,0,512,0C512,0,384,192,384,192C384,192,192,192,192,192C85.952,192,0,278.016,0,384C0,384,0,832,0,832C0,938.048,85.952,1024,192,1024C192,1024,832,1024,832,1024C937.984,1024,1024,938.048,1024,832C1024,832,1024,384,1024,384C1024,278.016,937.984,192,832,192C832,192,832,192,832,192M896,832C896,867.328,867.392,896,832,896C832,896,192,896,192,896C156.672,896,128,867.328,128,832C128,832,128,384,128,384C128,348.608,156.672,320,192,320C192,320,426.624,320,426.624,320C426.624,320,512,192,512,192C512,192,597.376,320,597.376,320C597.376,320,832,320,832,320C867.392,320,896,348.608,896,384C896,384,896,832,896,832C896,832,896,832,896,832M256,640C256,640,768,640,768,640C768,640,768,576,768,576C768,576,256,576,256,576C256,576,256,640,256,640C256,640,256,640,256,640M256,768C256,768,768,768,768,768C768,768,768,704,768,704C768,704,256,704,256,704C256,704,256,768,256,768C256,768,256,768,256,768M512,448C512,448,256,448,256,448C256,448,256,512,256,512C256,512,512,512,512,512C512,512,512,448,512,448C512,448,512,448,512,448" /><glyph unicode="&#x0069;" d="M192,384C192,384,192,320,192,320C192,320,256,320,256,320C256,320,256,384,256,384C256,384,192,384,192,384C192,384,192,384,192,384M192,192C192,192,256,192,256,192C256,192,256,256,256,256C256,256,192,256,192,256C192,256,192,192,192,192C192,192,192,192,192,192M384,192C384,192,384,256,384,256C384,256,320,256,320,256C320,256,320,192,320,192C320,192,384,192,384,192C384,192,384,192,384,192M256,256C256,256,320,256,320,256C320,256,320,320,320,320C320,320,256,320,256,320C256,320,256,256,256,256C256,256,256,256,256,256M384,832C384,832,320,832,320,832C320,832,320,768,320,768C320,768,384,768,384,768C384,768,384,832,384,832C384,832,384,832,384,832M256,576C256,576,320,576,320,576C320,576,320,640,320,640C320,640,256,640,256,640C256,640,256,576,256,576C256,576,256,576,256,576M768,640C768,640,704,640,704,640C704,640,704,576,704,576C704,576,768,576,768,576C768,576,768,640,768,640C768,640,768,640,768,640M256,768C256,768,192,768,192,768C192,768,192,704,192,704C192,704,256,704,256,704C256,704,256,768,256,768C256,768,256,768,256,768M448,256C448,256,512,256,512,256C512,256,512,320,512,320C512,320,448,320,448,320C448,320,448,256,448,256C448,256,448,256,448,256M768,448C768,448,832,448,832,448C832,448,832,512,832,512C832,512,768,512,768,512C768,512,768,448,768,448C768,448,768,448,768,448M704,320C704,320,768,320,768,320C768,320,768,384,768,384C768,384,704,384,704,384C704,384,704,320,704,320C704,320,704,320,704,320M576,640C576,640,640,640,640,640C640,640,640,704,640,704C640,704,576,704,576,704C576,704,576,640,576,640C576,640,576,640,576,640M832,1024C832,1024,192,1024,192,1024C85.952,1024,0,938.048,0,832C0,832,0,192,0,192C0,86.016,85.952,0,192,0C192,0,832,0,832,0C938.048,0,1024,86.016,1024,192C1024,192,1024,832,1024,832C1024,938.048,938.048,1024,832,1024C832,1024,832,1024,832,1024M896,192C896,156.608,867.392,128,832,128C832,128,192,128,192,128C156.608,128,128,156.608,128,192C128,192,128,832,128,832C128,867.328,156.608,896,192,896C192,896,832,896,832,896C867.392,896,896,867.328,896,832C896,832,896,192,896,192C896,192,896,192,896,192M320,320C320,320,384,320,384,320C384,320,384,384,384,384C384,384,320,384,320,384C320,384,320,320,320,320C320,320,320,320,320,320M576,576C576,576,512,576,512,576C512,576,512,512,512,512C512,512,576,512,576,512C576,512,576,576,576,576C576,576,576,576,576,576M576,256C576,256,640,256,640,256C640,256,640,320,640,320C640,320,576,320,576,320C576,320,576,256,576,256C576,256,576,256,576,256M448,576C448,576,384,576,384,576C384,576,384,512,384,512C384,512,448,512,448,512C448,512,448,576,448,576C448,576,448,576,448,576" /><glyph unicode="&#x006a;" d="M832,192C832,192,640,192,640,192C640,192,512,0,512,0C512,0,384,192,384,192C384,192,192,192,192,192C85.952,192,0,278.016,0,384C0,384,0,832,0,832C0,938.048,85.952,1024,192,1024C192,1024,832,1024,832,1024C938.048,1024,1024,938.048,1024,832C1024,832,1024,384,1024,384C1024,278.016,938.048,192,832,192C832,192,832,192,832,192M192,384C192,384,512,384,512,384C512,384,512,448,512,448C512,448,192,448,192,448C192,448,192,384,192,384C192,384,192,384,192,384M832,832C832,832,192,832,192,832C192,832,192,768,192,768C192,768,832,768,832,768C832,768,832,832,832,832C832,832,832,832,832,832M832,704C832,704,192,704,192,704C192,704,192,640,192,640C192,640,832,640,832,640C832,640,832,704,832,704C832,704,832,704,832,704M832,576C832,576,192,576,192,576C192,576,192,512,192,512C192,512,832,512,832,512C832,512,832,576,832,576C832,576,832,576,832,576" /><glyph unicode="&#x006b;" d="M832,192C832,192,448,192,448,192C448,192,320,0,320,0C320,0,192,192,192,192C85.952,192,0,278.016,0,384C0,384,0,832,0,832C0,938.048,85.952,1024,192,1024C192,1024,832,1024,832,1024C937.984,1024,1024,938.048,1024,832C1024,832,1024,384,1024,384C1024,278.016,937.984,192,832,192C832,192,832,192,832,192M896,832C896,867.328,867.392,896,832,896C832,896,192,896,192,896C156.672,896,128,867.328,128,832C128,832,128,384,128,384C128,348.608,156.672,320,192,320C192,320,234.688,320,234.688,320C234.688,320,320,192,320,192C320,192,405.376,320,405.376,320C405.376,320,832,320,832,320C867.392,320,896,348.608,896,384C896,384,896,832,896,832C896,832,896,832,896,832M256,640C256,640,768,640,768,640C768,640,768,576,768,576C768,576,256,576,256,576C256,576,256,640,256,640C256,640,256,640,256,640M256,768C256,768,768,768,768,768C768,768,768,704,768,704C768,704,256,704,256,704C256,704,256,768,256,768C256,768,256,768,256,768M512,448C512,448,256,448,256,448C256,448,256,512,256,512C256,512,512,512,512,512C512,512,512,448,512,448C512,448,512,448,512,448" /><glyph unicode="&#x006c;" d="M320.47,256C346.326,256,369.75,240.384,379.606,216.512C389.462,192.576,384.022,165.056,365.718,146.752C365.718,146.752,237.718,18.752,237.718,18.752C225.238,6.272,208.854,0,192.47,0C176.086,0,159.702,6.272,147.222,18.752C147.222,18.752,19.222,146.752,19.222,146.752C0.982,165.056,-4.522,192.576,5.334,216.512C15.19,240.384,38.614,256,64.47,256C64.47,256,128.47,256,128.47,256C128.47,256,128.47,384,128.47,384C128.47,490.048,213.27,576,319.254,576C319.254,576,703.254,576,703.254,576C738.646,576,768.47,604.672,768.47,640C768.47,640,768.47,960,768.47,960C768.47,995.328,797.078,1024,832.47,1024C867.862,1024,896.47,995.328,896.47,960C896.47,960,896.47,640,896.47,640C896.47,533.952,809.366,448,703.254,448C703.254,448,319.254,448,319.254,448C283.926,448,256.47,419.328,256.47,384C256.47,384,256.47,256,256.47,256C256.47,256,320.47,256,320.47,256C320.47,256,320.47,256,320.47,256M1019.606,216.512C1029.462,192.576,1024.022,165.056,1005.718,146.752C1005.718,146.752,877.718,18.752,877.718,18.752C865.238,6.272,848.854,0,832.47,0C816.086,0,799.702,6.272,787.222,18.752C787.222,18.752,659.222,146.752,659.222,146.752C640.982,165.056,635.478,192.576,645.334,216.512C655.19,240.384,678.614,256,704.47,256C704.47,256,768.47,256,768.47,256C768.47,256,768.47,393.088,768.47,393.088C832.47,406.144,832.47,434.112,896.47,472.32C896.47,472.32,896.47,256,896.47,256C896.47,256,960.47,256,960.47,256C986.326,256,1009.75,240.384,1019.606,216.512C1019.606,216.512,1019.606,216.512,1019.606,216.512" /><glyph unicode="&#x006d;" d="M1019.606,216.512C1009.75,240.384,986.326,256,960.47,256C960.47,256,896.47,256,896.47,256C896.47,256,896.47,384,896.47,384C896.47,490.048,810.454,576,704.47,576C704.47,576,640.47,576,640.47,576C605.078,576,576.47,604.608,576.47,640C576.47,640,576.47,960,576.47,960C576.47,995.328,547.862,1024,512.47,1024C477.142,1024,448.47,995.328,448.47,960C448.47,960,448.47,640,448.47,640C448.47,604.608,419.798,576,384.47,576C384.47,576,320.47,576,320.47,576C214.422,576,128.47,490.048,128.47,384C128.47,384,128.47,256,128.47,256C128.47,256,64.47,256,64.47,256C38.614,256,15.19,240.384,5.334,216.512C-4.522,192.576,0.982,165.056,19.222,146.752C19.222,146.752,147.222,18.752,147.222,18.752C159.702,6.272,176.086,0,192.47,0C208.854,0,225.238,6.272,237.718,18.752C237.718,18.752,365.718,146.752,365.718,146.752C384.022,165.056,389.462,192.576,379.606,216.512C369.75,240.384,346.326,256,320.47,256C320.47,256,256.47,256,256.47,256C256.47,256,256.47,384,256.47,384C256.47,419.328,285.142,448,320.47,448C320.47,448,384.47,448,384.47,448C433.878,448,478.422,467.2,512.47,497.792C546.454,467.2,591.126,448,640.47,448C640.47,448,704.47,448,704.47,448C739.862,448,768.47,419.328,768.47,384C768.47,384,768.47,256,768.47,256C768.47,256,704.47,256,704.47,256C678.614,256,655.19,240.384,645.334,216.512C635.478,192.576,640.982,165.056,659.222,146.752C659.222,146.752,787.222,18.752,787.222,18.752C799.702,6.272,816.086,0,832.47,0C848.854,0,865.238,6.272,877.718,18.752C877.718,18.752,1005.718,146.752,1005.718,146.752C1024.022,165.056,1029.462,192.576,1019.606,216.512C1019.606,216.512,1019.606,216.512,1019.606,216.512" /><glyph unicode="&#x006e;" d="M896,576C825.344,576,768,633.344,768,704C768,633.344,710.656,576,640,576C569.344,576,512,633.344,512,704C512,633.344,454.656,576,384,576C313.344,576,256,633.344,256,704C256,633.344,198.656,576,128,576C57.344,576,0,633.344,0,704C0,704,128,1024,128,1024C128,1024,896,1024,896,1024C896,1024,1024,704,1024,704C1024,633.344,966.656,576,896,576C896,576,896,576,896,576M128,128C128,128,128,512,128,512C177.408,512,221.952,531.2,256,561.792C256,561.792,256,256,256,256C256,256,256,256,256,256C256,256,256,128,256,128C256,128,128,128,128,128C128,128,128,128,128,128M896,512C896,512,896,128,896,128C896,128,768,128,768,128C768,128,768,256,768,256C768,256,768,256,768,256C768,256,768,561.792,768,561.792C801.984,531.2,846.656,512,896,512C896,512,896,512,896,512M256,0C256,0,320,0,320,0C320,0,320,128,320,128C320,128,704,128,704,128C704,128,704,0,704,0C704,0,768,0,768,0C768,0,768,64,768,64C768,64,960,64,960,64C960,64,960,0,960,0C960,0,64,0,64,0C64,0,64,64,64,64C64,64,256,64,256,64C256,64,256,0,256,0C256,0,256,0,256,0" /><glyph unicode="&#x006f;" d="M128,512C177.408,512,221.952,531.2,256,561.792C256,561.792,256,256,256,256C256,256,768,256,768,256C768,256,768,561.792,768,561.792C801.984,531.2,846.656,512,896,512C896,512,896,128,896,128C896,128,128,128,128,128C128,128,128,512,128,512C128,512,128,512,128,512M896,1024C896,1024,1024,704,1024,704C1024,633.344,966.656,576,896,576C825.344,576,768,633.344,768,704C768,633.344,710.656,576,640,576C569.344,576,512,633.344,512,704C512,633.344,454.656,576,384,576C313.344,576,256,633.344,256,704C256,633.344,198.656,576,128,576C57.344,576,0,633.344,0,704C0,704,128,1024,128,1024C128,1024,896,1024,896,1024C896,1024,896,1024,896,1024M64,0C64,0,64,64,64,64C64,64,960,64,960,64C960,64,960,0,960,0C960,0,64,0,64,0C64,0,64,0,64,0" /><glyph unicode="&#x0070;" d="M904.888,723.548C929.312,678.344,946.575,628.92,954.696,576.427C954.696,576.427,759.173,576.427,759.173,576.427C736.027,665.94,665.951,736.016,576.438,759.162C576.438,759.162,576.438,954.684,576.438,954.684C629.187,946.564,678.867,929.109,724.263,904.557C724.263,904.557,806.231,986.525,806.231,986.525C856.167,1036.461,937.113,1036.461,987.048,986.525C1036.984,936.59,1036.984,855.644,987.048,805.708C987.048,805.708,904.888,723.548,904.888,723.548C904.888,723.548,904.888,723.548,904.888,723.548M941.844,941.321C916.844,966.321,876.435,966.321,851.436,941.321C851.436,941.321,779.761,869.583,779.761,869.583C814.032,843.879,844.402,813.509,870.106,779.174C870.106,779.174,941.844,850.913,941.844,850.913C966.78,875.912,966.78,916.321,941.844,941.321C941.844,941.321,941.844,941.321,941.844,941.321M448.562,759.162C359.049,736.016,288.973,665.94,265.827,576.427C265.827,576.427,70.304,576.427,70.304,576.427C78.425,628.92,95.688,678.344,120.112,723.548C120.112,723.548,37.952,805.708,37.952,805.708C-11.984,855.644,-11.984,936.59,37.952,986.525C87.887,1036.461,168.833,1036.461,218.769,986.525C218.769,986.525,300.737,904.557,300.737,904.557C346.133,929.109,395.813,946.564,448.562,954.684C448.562,954.684,448.562,759.162,448.562,759.162C448.562,759.162,448.562,759.162,448.562,759.162M173.564,941.321C148.565,966.321,108.156,966.321,83.156,941.321C58.156,916.321,58.156,875.912,83.156,850.913C83.156,850.913,154.894,779.174,154.894,779.174C180.598,813.509,210.904,843.879,245.239,869.583C245.239,869.583,173.564,941.321,173.564,941.321C173.564,941.321,173.564,941.321,173.564,941.321M120.112,301.429C95.688,346.633,78.425,396.057,70.304,448.55C70.304,448.55,265.827,448.55,265.827,448.55C288.973,359.037,359.049,288.961,448.562,265.815C448.562,265.815,448.562,70.229,448.562,70.229C395.813,78.413,346.133,95.868,300.737,120.42C300.737,120.42,218.769,38.452,218.769,38.452C168.833,-11.484,87.887,-11.484,37.952,38.452C-11.984,88.387,-11.984,169.333,37.952,219.269C37.952,219.269,120.112,301.429,120.112,301.429C120.112,301.429,120.112,301.429,120.112,301.429M83.156,83.656C108.156,58.656,148.565,58.656,173.564,83.656C173.564,83.656,245.239,155.33,245.239,155.33C210.904,181.098,180.534,211.468,154.894,245.803C154.894,245.803,83.156,174.064,83.156,174.064C58.22,149.065,58.22,108.656,83.156,83.656C83.156,83.656,83.156,83.656,83.156,83.656M576.438,265.815C665.951,288.961,736.027,359.037,759.173,448.55C759.173,448.55,954.696,448.55,954.696,448.55C946.575,396.057,929.312,346.633,904.888,301.429C904.888,301.429,987.048,219.269,987.048,219.269C1036.984,169.333,1036.984,88.387,987.048,38.452C937.113,-11.484,856.167,-11.484,806.231,38.452C806.231,38.452,724.263,120.42,724.263,120.42C678.867,95.868,629.251,78.413,576.438,70.229C576.438,70.229,576.438,265.815,576.438,265.815C576.438,265.815,576.438,265.815,576.438,265.815M851.436,83.656C876.435,58.656,916.844,58.656,941.844,83.656C966.844,108.656,966.844,149.065,941.844,174.064C941.844,174.064,870.106,245.803,870.106,245.803C844.402,211.468,814.032,181.098,779.761,155.33C779.761,155.33,851.436,83.656,851.436,83.656C851.436,83.656,851.436,83.656,851.436,83.656" /><glyph unicode="&#x0071;" d="M904.895,723.503C919.089,697.226,930.341,669.223,939.484,640.325C939.484,640.325,804.966,640.325,804.966,640.325C772.616,713.721,713.924,772.924,640.4,805.147C640.4,805.147,640.4,939.408,640.4,939.408C669.554,930.202,697.685,918.821,724.282,904.5C724.282,904.5,806.245,986.464,806.245,986.464C856.178,1036.396,937.118,1036.396,987.051,986.464C1036.983,936.531,1036.983,855.591,987.051,805.658C987.051,805.658,904.895,723.503,904.895,723.503C904.895,723.503,904.895,723.503,904.895,723.503M941.849,941.262C916.851,966.261,876.445,966.261,851.446,941.262C851.446,941.262,779.776,869.528,779.776,869.528C814.045,843.763,844.414,813.458,870.115,779.062C870.115,779.062,941.849,850.86,941.849,850.86C966.784,875.858,966.784,916.264,941.849,941.262C941.849,941.262,941.849,941.262,941.849,941.262M448.598,825.67C448.598,825.67,448.598,954.689,448.598,954.689C469.44,957.885,490.73,959.995,512.532,959.995C534.333,959.995,555.624,957.885,576.466,954.689C576.466,954.689,576.466,825.733,576.466,825.733C555.815,829.889,534.461,832.127,512.532,832.127C490.667,832.127,469.249,829.889,448.598,825.67C448.598,825.67,448.598,825.67,448.598,825.67M218.819,38.449C168.886,-11.483,87.946,-11.483,37.949,38.449C-11.983,88.382,-11.983,169.322,37.949,219.255C37.949,219.255,120.105,301.41,120.105,301.41C105.975,327.687,94.723,355.69,85.58,384.588C85.58,384.588,219.842,384.588,219.842,384.588C252.065,311.064,311.268,252.373,384.664,220.086C384.664,220.086,384.664,85.569,384.664,85.569C355.51,94.775,327.315,106.092,300.846,120.477C300.846,120.477,218.819,38.449,218.819,38.449C218.819,38.449,218.819,38.449,218.819,38.449M154.949,245.788C154.949,245.788,83.151,174.054,83.151,174.054C58.216,149.055,58.216,108.649,83.151,83.651C108.149,58.653,148.619,58.653,173.617,83.651C173.617,83.651,245.351,155.321,245.351,155.321C211.019,181.086,180.65,211.455,154.949,245.788C154.949,245.788,154.949,245.788,154.949,245.788M70.3,448.522C67.103,469.365,64.993,490.655,64.993,512.457C64.993,534.258,67.103,555.548,70.3,576.391C70.3,576.391,200.022,576.391,200.022,576.391C195.803,555.676,192.862,534.45,192.862,512.457C192.862,490.527,195.099,469.173,199.319,448.522C199.319,448.522,70.3,448.522,70.3,448.522C70.3,448.522,70.3,448.522,70.3,448.522M220.161,640.325C220.161,640.325,85.58,640.325,85.58,640.325C94.723,669.223,105.975,697.226,120.169,723.503C120.169,723.503,38.013,805.658,38.013,805.658C-11.919,855.591,-11.919,936.531,38.013,986.464C87.946,1036.396,168.886,1036.396,218.883,986.464C218.883,986.464,300.91,904.5,300.91,904.5C327.315,918.821,355.51,930.202,384.664,939.408C384.664,939.408,384.664,805.147,384.664,805.147C311.14,772.924,252.448,713.721,220.161,640.325C220.161,640.325,220.161,640.325,220.161,640.325M173.617,941.262C148.619,966.261,108.149,966.261,83.151,941.262C58.216,916.264,58.216,875.858,83.151,850.86C83.151,850.86,154.949,779.062,154.949,779.062C180.65,813.458,210.955,843.763,245.351,869.528C245.351,869.528,173.617,941.262,173.617,941.262C173.617,941.262,173.617,941.262,173.617,941.262M576.466,200.011C576.466,200.011,576.466,70.225,576.466,70.225C555.624,67.028,534.333,64.918,512.532,64.918C490.73,64.918,469.44,67.028,448.598,70.225C448.598,70.225,448.598,200.011,448.598,200.011C469.313,195.791,490.539,192.786,512.532,192.786C534.525,192.786,555.751,195.791,576.466,200.011C576.466,200.011,576.466,200.011,576.466,200.011M954.7,576.391C957.961,555.548,960.07,534.258,960.07,512.457C960.07,490.655,957.961,469.365,954.7,448.522C954.7,448.522,825.745,448.522,825.745,448.522C829.965,469.173,832.202,490.527,832.202,512.457C832.202,534.45,829.197,555.676,824.978,576.391C824.978,576.391,954.7,576.391,954.7,576.391C954.7,576.391,954.7,576.391,954.7,576.391M640.4,220.086C713.796,252.373,772.999,311.064,805.222,384.588C805.222,384.588,939.484,384.588,939.484,384.588C930.341,355.69,919.153,327.687,904.895,301.41C904.895,301.41,987.051,219.255,987.051,219.255C1036.983,169.322,1036.983,88.382,987.051,38.449C937.118,-11.483,856.178,-11.483,806.245,38.449C806.245,38.449,724.282,120.413,724.282,120.413C697.749,106.028,669.618,94.711,640.4,85.505C640.4,85.505,640.4,220.086,640.4,220.086C640.4,220.086,640.4,220.086,640.4,220.086M851.446,83.651C876.445,58.653,916.851,58.653,941.849,83.651C966.847,108.649,966.847,149.055,941.849,174.054C941.849,174.054,870.115,245.788,870.115,245.788C844.414,211.455,814.045,181.086,779.776,155.321C779.776,155.321,851.446,83.651,851.446,83.651C851.446,83.651,851.446,83.651,851.446,83.651" /><glyph unicode="&#x0072;" d="M967.744,248.756C967.744,248.756,775.744,56.756,775.744,56.756C700.736,-18.252,579.264,-18.252,504.256,56.756C504.256,56.756,184.256,376.756,184.256,376.756C146.752,414.26,128,463.348,128,512.5C128,512.5,128,896.5,128,896.5C128,896.5,320,896.5,320,896.5C320,931.892,291.392,960.5,256,960.5C256,960.5,128,960.5,128,960.5C92.608,960.5,64,931.892,64,896.5C64,896.5,64,800.5,64,800.5C64,782.836,49.664,768.5,32,768.5C14.336,768.5,0,782.836,0,800.5C0,800.5,0,896.5,0,896.5C0,967.156,57.344,1024.5,128,1024.5C128,1024.5,256,1024.5,256,1024.5C326.656,1024.5,384,967.156,384,896.5C384,896.5,384,896.5,384,896.5C384,896.5,384,672.5,384,672.5C384,654.836,369.664,640.5,352,640.5C334.336,640.5,320,654.836,320,672.5C320,672.5,320,762.036,320,762.036C282.88,748.724,256,714.164,256,672.5C256,619.508,299.008,576.5,352,576.5C404.992,576.5,448,619.508,448,672.5C448,672.5,448,896.5,448,896.5C448,896.5,512,896.5,512,896.5C561.152,896.5,610.24,877.748,647.744,840.244C647.744,840.244,967.744,520.244,967.744,520.244C1042.752,445.236,1042.752,323.764,967.744,248.756C967.744,248.756,967.744,248.756,967.744,248.756" /><glyph unicode="&#x0073;" d="M967.744,248.756C967.744,248.756,775.744,56.756,775.744,56.756C700.736,-18.252,579.264,-18.252,504.256,56.756C504.256,56.756,184.256,376.756,184.256,376.756C146.752,414.26,128,463.348,128,512.5C128,512.5,128,896.5,128,896.5C128,896.5,320,896.5,320,896.5C320,931.828,291.328,960.5,256,960.5C256,960.5,128,960.5,128,960.5C92.672,960.5,64,931.828,64,896.5C64,896.5,64,800.5,64,800.5C64,782.836,49.664,768.5,32,768.5C14.336,768.5,0,782.836,0,800.5C0,800.5,0,896.5,0,896.5C0,967.156,57.344,1024.5,128,1024.5C128,1024.5,256,1024.5,256,1024.5C326.656,1024.5,384,967.156,384,896.5C384,896.5,512,896.5,512,896.5C561.152,896.5,610.24,877.748,647.744,840.244C647.744,840.244,967.744,520.244,967.744,520.244C1042.752,445.236,1042.752,323.764,967.744,248.756C967.744,248.756,967.744,248.756,967.744,248.756M384,762.036C384,762.036,384,672.5,384,672.5C384,654.836,369.664,640.5,352,640.5C334.336,640.5,320,654.836,320,672.5C320,672.5,320,762.036,320,762.036C282.88,748.724,256,714.164,256,672.5C256,619.444,298.944,576.5,352,576.5C405.056,576.5,448,619.444,448,672.5C448,714.164,421.12,748.724,384,762.036C384,762.036,384,762.036,384,762.036M877.248,429.748C877.248,429.748,557.248,749.748,557.248,749.748C544.768,762.228,528.384,768.5,512,768.5C512,768.5,479.296,768.5,479.296,768.5C499.52,741.684,512,708.66,512,672.5C512,584.116,440.384,512.5,352,512.5C315.84,512.5,282.816,524.98,256,545.204C256,545.204,256,512.5,256,512.5C256,496.116,262.272,479.732,274.752,467.252C274.752,467.252,594.752,147.252,594.752,147.252C619.776,122.228,660.224,122.228,685.248,147.252C685.248,147.252,877.248,339.252,877.248,339.252C902.272,364.276,902.272,404.724,877.248,429.748C877.248,429.748,877.248,429.748,877.248,429.748" /><glyph unicode="&#x0074;" d="M768,384C768,384,256,384,256,384C220.608,384,192,355.392,192,320C192,320,192,64,192,64C192,28.608,220.608,0,256,0C256,0,768,0,768,0C803.392,0,832,28.608,832,64C832,64,832,320,832,320C832,355.392,803.392,384,768,384C768,384,768,384,768,384M896,1012.224C896,1012.224,896,640,896,640C896,604.672,867.392,576,832,576C832,576,192,576,192,576C156.608,576,128,604.672,128,640C128,640,128,1012.224,128,1012.224C53.632,985.792,0,915.456,0,832C0,832,0,192,0,192C0,108.48,53.632,38.208,128,11.776C128,11.776,128,384,128,384C128,419.392,156.608,448,192,448C192,448,832,448,832,448C867.392,448,896,419.392,896,384C896,384,896,11.776,896,11.776C970.368,38.208,1024,108.544,1024,192C1024,192,1024,832,1024,832C1024,915.456,970.368,985.792,896,1012.224C896,1012.224,896,1012.224,896,1012.224M384,640C384,640,768,640,768,640C803.392,640,832,668.672,832,704C832,704,832,960,832,960C832,995.328,803.392,1024,768,1024C768,1024,384,1024,384,1024C348.608,1024,320,995.328,320,960C320,960,320,704,320,704C320,668.672,348.608,640,384,640C384,640,384,640,384,640M640,896C640,931.328,668.608,960,704,960C739.392,960,768,931.328,768,896C768,896,768,768,768,768C768,732.672,739.392,704,704,704C668.608,704,640,732.672,640,768C640,768,640,896,640,896C640,896,640,896,640,896" /><glyph unicode="&#x0075;" d="M1019.152,217.008C1009.297,240.88,985.873,256.496,960.017,256.496C960.017,256.496,896.018,256.496,896.018,256.496C896.018,256.496,896.018,800.486,896.018,800.486C896.018,924.196,795.732,1024.483,672.022,1024.483C548.312,1024.483,448.026,924.196,448.026,800.486C448.026,800.486,448.026,224.496,448.026,224.496C448.026,171.505,405.083,128.498,352.028,128.498C298.973,128.498,256.029,171.505,256.029,224.496C256.029,277.487,256.029,768.487,256.029,768.487C256.029,768.487,320.028,768.487,320.028,768.487C345.884,768.487,369.307,784.103,379.163,807.974C389.019,831.91,383.579,859.429,365.275,877.733C365.275,877.733,237.278,1005.731,237.278,1005.731C224.734,1018.211,208.35,1024.483,192.03,1024.483C175.711,1024.483,159.263,1018.211,146.719,1005.731C146.719,1005.731,18.721,877.733,18.721,877.733C0.482,859.429,-5.022,831.91,4.834,807.974C14.753,784.103,38.113,768.487,64.033,768.487C64.033,768.487,128.031,768.487,128.031,768.487C128.031,768.487,128.031,348.206,128.031,224.496C128.031,100.786,228.318,0.5,352.028,0.5C475.802,0.5,576.024,100.786,576.024,224.496C576.024,224.496,576.024,800.486,576.024,800.486C576.024,853.542,619.031,896.485,672.022,896.485C725.013,896.485,768.021,853.542,768.021,800.486C768.021,800.486,768.021,256.496,768.021,256.496C768.021,256.496,704.022,256.496,704.022,256.496C678.166,256.496,654.743,240.88,644.887,217.008C635.031,193.073,640.535,165.553,658.774,147.25C658.774,147.25,786.772,19.252,786.772,19.252C799.252,6.772,815.636,0.5,832.02,0.5C848.403,0.5,864.787,6.772,877.267,19.252C877.267,19.252,1005.265,147.25,1005.265,147.25C1023.568,165.553,1029.008,193.073,1019.152,217.008C1019.152,217.008,1019.152,217.008,1019.152,217.008" /><glyph unicode="&#x0076;" d="M930.861,635.039C699.495,866.405,324.373,866.405,93.007,635.039C93.007,635.039,0,728.112,0,728.112C282.773,1010.885,741.227,1010.885,1024,728.112C1024,728.112,930.861,635.039,930.861,635.039C930.861,635.039,930.861,635.039,930.861,635.039M884.325,588.503C884.325,588.503,791.186,495.364,791.186,495.364C636.964,649.652,386.904,649.652,232.748,495.364C232.748,495.364,139.609,588.503,139.609,588.503C345.239,794.132,678.63,794.132,884.325,588.503C884.325,588.503,884.325,588.503,884.325,588.503M744.649,448.827C744.649,448.827,651.577,355.754,651.577,355.754C574.498,432.898,449.502,432.898,372.358,355.754C372.358,355.754,279.285,448.827,279.285,448.827C407.77,577.379,616.164,577.379,744.649,448.827C744.649,448.827,744.649,448.827,744.649,448.827M511.967,347.79C584.635,347.79,643.612,288.813,643.612,216.145C643.612,143.477,584.635,84.5,511.967,84.5C439.299,84.5,380.322,143.477,380.322,216.145C380.322,288.813,439.299,347.79,511.967,347.79C511.967,347.79,511.967,347.79,511.967,347.79" /><glyph unicode="&#x0077;" d="M1024,807.175C1024,807.175,819.2,602.375,819.2,602.375C649.595,772.124,374.549,772.124,204.8,602.375C204.8,602.375,0,807.175,0,807.175C282.722,1090.042,741.278,1090.042,1024,807.175C1024,807.175,1024,807.175,1024,807.175M512,584.849C671.9,584.849,801.675,455.075,801.675,295.175C801.675,135.274,671.9,5.5,512,5.5C352.1,5.5,222.325,135.274,222.325,295.175C222.325,455.075,352.1,584.849,512,584.849C512,584.849,512,584.849,512,584.849" /><glyph unicode="&#x0078;" d="M434.596,64C661.895,64,862.535,189.972,862.535,399.892C862.535,476.48,826.721,523.4,811.711,548.108C799.197,562.926,799.197,575.28,829.218,577.744C946.58,595.027,1024,659.261,1024,782.736C1024,849.435,969.047,929.639,869.16,929.639C821.728,929.639,763.767,884,763.767,834.616C763.767,807.412,791.74,774.959,831.682,774.959C876.649,774.959,902.125,822.262,894.636,842.042C892.171,854.395,884.17,869.214,901.613,869.214C934.13,869.214,971.576,827.223,971.576,787.697C971.576,718.534,906.638,671.007,804.222,671.007C749.269,671.007,701.838,704.9,649.381,704.9C517.009,704.9,439.589,599.988,439.589,508.581C439.589,404.853,519.505,355.47,579.451,355.47C646.853,355.47,666.856,394.964,666.856,427.097C666.856,464.127,644.357,488.834,596.893,488.834C559.447,488.834,541.941,449.34,544.437,429.561C546.933,419.672,539.444,412.278,531.923,412.278C521.938,412.278,491.981,444.379,491.981,486.338C491.981,516.007,511.984,613.494,616.864,613.494C729.234,613.494,807.518,511.078,807.518,427.097C807.518,308.55,674.281,182.547,447.014,182.547C219.714,182.547,89.87,286.275,89.87,436.954C89.87,506.117,119.859,570.319,157.273,597.491C172.283,607.381,179.772,604.885,187.261,592.563C204.768,580.209,244.71,546.923,269.674,546.923C302.159,546.923,319.634,587.602,319.634,622.231C319.634,651.868,284.684,672.223,254.728,672.223C224.771,672.223,204.768,654.332,192.286,649.403C174.811,676.576,164.826,711.141,164.826,738.313C164.826,817.334,222.275,866.941,277.227,866.941C324.659,866.941,364.633,829.72,357.144,782.768C354.647,770.414,354.647,760.557,359.64,760.557C379.611,760.557,424.546,790.193,424.546,844.538C424.546,921.094,367.129,960.62,292.174,960.62C169.819,960.62,94.895,874.175,94.895,782.768C94.895,728.456,114.866,679.04,147.351,637.05C97.391,614.838,0,530.857,0,382.642C0.032,256.67,87.438,64,434.596,64C434.596,64,434.596,64,434.596,64" /><glyph unicode="&#x0079;" d="M1024,752.515C1024,752.515,895.932,624.447,895.932,624.447C683.873,836.596,340.036,836.596,128.068,624.447C128.068,624.447,0,752.515,0,752.515C282.745,1035.26,741.165,1035.26,1024,752.515C1024,752.515,1024,752.515,1024,752.515M831.943,560.458C831.943,560.458,703.966,432.481,703.966,432.481C597.982,538.555,426.109,538.555,320.034,432.481C320.034,432.481,192.057,560.458,192.057,560.458C368.727,737.219,655.273,737.219,831.943,560.458C831.943,560.458,831.943,560.458,831.943,560.458M512,421.529C611.92,421.529,693.015,340.435,693.015,240.515C693.015,140.595,611.92,59.5,512,59.5C412.08,59.5,330.985,140.595,330.985,240.515C330.985,340.435,412.08,421.529,512,421.529C512,421.529,512,421.529,512,421.529" /><glyph unicode="&#x007a;" d="M320,512C320,512,384,512,384,512C384,512,384,576,384,576C384,576,320,576,320,576C320,576,320,512,320,512C320,512,320,512,320,512M256,768C256,768,256,704,256,704C256,704,320,704,320,704C320,704,320,768,320,768C320,768,256,768,256,768C256,768,256,768,256,768M256,448C256,448,320,448,320,448C320,448,320,512,320,512C320,512,256,512,256,512C256,512,256,448,256,448C256,448,256,448,256,448M448,640C448,640,384,640,384,640C384,640,384,576,384,576C384,576,448,576,448,576C448,576,448,640,448,640C448,640,448,640,448,640M832,1024C832,1024,192,1024,192,1024C85.952,1024,0,938.048,0,832C0,832,0,192,0,192C0,86.016,85.952,0,192,0C192,0,832,0,832,0C937.984,0,1024,86.016,1024,192C1024,192,1024,832,1024,832C1024,938.048,937.984,1024,832,1024C832,1024,832,1024,832,1024M896,192C896,156.608,867.392,128,832,128C832,128,192,128,192,128C156.672,128,128,156.608,128,192C128,192,128,832,128,832C128,867.328,156.672,896,192,896C192,896,832,896,832,896C867.392,896,896,867.328,896,832C896,832,896,192,896,192C896,192,896,192,896,192M320,704C320,704,320,640,320,640C320,640,384,640,384,640C384,640,384,704,384,704C384,704,320,704,320,704C320,704,320,704,320,704M448,448C448,448,640,448,640,448C640,448,640,512,640,512C640,512,448,512,448,512C448,512,448,448,448,448C448,448,448,448,448,448" /><glyph unicode="&#x0030;" d="M102.4,1024C102.4,1024,921.6,1024,921.6,1024C978.227,1024,1024,978.227,1024,921.6C1024,921.6,1024,102.4,1024,102.4C1024,45.773,978.227,0,921.6,0C921.6,0,102.4,0,102.4,0C45.773,0,0,45.773,0,102.4C0,102.4,0,921.6,0,921.6C0,978.227,45.773,1024,102.4,1024C102.4,1024,102.4,1024,102.4,1024" /><glyph unicode="&#x0031;" d="M921.6,0C921.6,0,716.8,0,716.8,0C660.173,0,614.4,45.773,614.4,102.4C614.4,102.4,614.4,921.6,614.4,921.6C614.4,978.227,660.173,1024,716.8,1024C716.8,1024,921.6,1024,921.6,1024C978.227,1024,1024,978.227,1024,921.6C1024,921.6,1024,102.4,1024,102.4C1024,45.773,978.227,0,921.6,0C921.6,0,921.6,0,921.6,0M307.2,0C307.2,0,102.4,0,102.4,0C45.773,0,0,45.773,0,102.4C0,102.4,0,921.6,0,921.6C0,978.227,45.773,1024,102.4,1024C102.4,1024,307.2,1024,307.2,1024C363.827,1024,409.6,978.227,409.6,921.6C409.6,921.6,409.6,102.4,409.6,102.4C409.6,45.773,363.827,0,307.2,0C307.2,0,307.2,0,307.2,0" /><glyph unicode="&#x0032;" d="M892.744,512.18C932.805,556.625,961.508,600.399,978.243,642.444C997.569,691.241,996.865,733.606,976.195,768.324C955.428,803.106,917.382,824.896,863.21,833.056C816.717,840.096,762.768,838.272,702.292,827.616C682.261,883.133,657.079,928.826,627.385,963.576C592.795,1004.021,553.981,1024.5,512.128,1024.5C470.146,1024.5,431.365,1003.893,396.807,963.224C367.081,928.282,342.122,882.557,322.476,827.168C261.967,838.176,208.051,840.096,161.558,833.088C107.385,824.896,69.371,803.106,48.541,768.292C27.87,733.574,27.166,691.241,46.493,642.444C63.132,600.495,91.994,556.753,132.408,512.244C92.026,467.639,63.26,423.962,46.813,382.204C27.614,333.567,28.446,291.33,49.181,256.708C69.883,221.926,107.801,200.04,161.782,191.688C208.115,184.457,262.031,186.312,322.508,197.288C342.474,141.963,367.497,96.302,397.063,61.456C431.429,20.979,470.114,0.5,512.128,0.5C554.013,0.5,592.795,21.011,627.385,61.424C657.047,96.142,682.197,141.931,702.228,197.672C762.704,186.152,816.461,183.945,862.666,191.144C916.391,199.496,954.372,221.286,975.651,256.164C996.354,290.882,997.057,333.215,977.667,382.044C961.028,423.866,932.517,467.607,892.744,512.18C892.744,512.18,892.744,512.18,892.744,512.18M443.364,102.798C421.765,130.348,403.143,167.21,387.912,212.391C429.893,223.814,471.746,238.341,512.608,255.716C553.629,238.117,595.419,223.59,637.272,212.391C621.785,167.306,602.938,130.508,581.115,102.894C536.542,46.353,487.617,46.353,443.364,102.798C443.364,102.798,443.364,102.798,443.364,102.798M581.083,921.914C602.874,894.108,621.753,857.214,637.24,812.097C598.234,801.57,556.477,787.203,512.608,769.156C470.018,786.499,428.005,801.154,387.4,812.737C402.887,857.406,421.669,894.108,443.364,921.914C487.681,978.711,536.51,978.711,581.083,921.914C581.083,921.914,581.083,921.914,581.083,921.914M751.857,550.77C768.912,537.394,784.495,524.435,798.414,511.988C788.942,503.253,779.055,494.581,768.848,486.198C763.248,481.622,757.584,477.014,751.857,472.343C752.401,486.422,752.625,499.925,752.625,512.724C752.657,524.403,752.401,537.138,751.857,550.77C751.857,550.77,751.857,550.77,751.857,550.77M744.945,639.884C739.922,683.817,731.954,725.959,721.235,765.54C769.808,775.108,812.589,777.923,848.555,773.86C885.256,769.732,909.863,757.733,921.606,738.406C933.605,718.279,932.294,692.553,917.542,659.787C903.303,627.981,879.337,593.999,846.187,558.609C814.861,587.279,780.943,614.542,744.945,639.884C744.945,639.884,744.945,639.884,744.945,639.884M512.64,328.959C483.81,341.759,455.139,356.222,427.429,371.901C395.815,390.012,368.777,406.587,346.922,421.178C344.522,447.832,343.306,478.614,343.306,512.756C343.306,546.866,344.522,577.424,346.89,603.758C370.569,619.213,397.959,635.82,428.165,652.907C455.363,667.69,483.714,681.929,512.608,695.305C541.406,681.801,569.788,667.594,596.73,653.163C625.081,636.876,652.471,620.429,678.357,604.078C680.757,577.2,681.941,546.546,681.941,512.756C681.941,478.614,680.757,447.672,678.357,420.698C654.359,404.955,627.193,388.572,597.338,371.869C570.556,356.51,542.142,342.079,512.64,328.959C512.64,328.959,512.64,328.959,512.64,328.959M631.896,710.952C621.273,716.935,609.434,723.271,596.506,729.99C616.985,737.446,636.76,744.006,655.607,749.573C660.247,730.118,664.246,710.376,667.542,690.569C656.151,697.384,644.248,704.2,631.896,710.952C631.896,710.952,631.896,710.952,631.896,710.952M369.545,749.413C388.743,743.59,408.198,737.062,427.813,729.894C415.654,723.751,404.007,717.415,392.935,711.048C380.552,704.232,368.649,697.448,357.353,690.665C360.809,710.664,364.873,730.342,369.545,749.413C369.545,749.413,369.545,749.413,369.545,749.413M273.423,472.854C256.208,486.07,240.465,499.221,226.258,512.18C240.721,525.203,256.4,538.162,273.231,550.962C272.815,538.482,272.623,525.811,272.623,512.788C272.655,498.997,272.911,485.654,273.423,472.854C273.423,472.854,273.423,472.854,273.423,472.854M303.661,766.5C292.941,725.735,285.102,683.593,280.334,640.94C243.217,614.51,209.075,586.895,178.549,558.673C145.399,593.999,121.336,627.981,106.873,659.883C92.058,692.553,90.81,718.183,103.129,738.278C115.129,758.021,139.031,769.732,176.245,774.116C187.508,775.428,199.539,776.1,211.987,776.1C239.473,776.1,270.255,772.868,303.661,766.5C303.661,766.5,303.661,766.5,303.661,766.5M107.193,364.701C121.496,396.603,145.303,430.553,178.037,465.751C208.883,437.177,243.185,409.402,280.302,383.004C285.07,340.447,292.909,298.817,303.597,258.916C255.088,249.38,212.339,246.565,176.437,250.564C139.511,254.756,115.705,266.531,103.577,286.85C91.322,306.529,92.506,331.967,107.193,364.701C107.193,364.701,107.193,364.701,107.193,364.701M391.879,314.272C403.015,307.649,415.11,301.057,428.069,294.466C407.814,287.01,388.136,280.546,369.225,275.171C364.585,294.562,360.681,314.048,357.513,333.439C368.969,326.624,380.488,320.192,391.879,314.272C391.879,314.272,391.879,314.272,391.879,314.272M655.639,275.107C636.568,280.483,616.857,286.914,596.602,294.402C608.122,300.321,620.281,306.849,632.952,313.984C644.727,320.512,656.279,327.072,667.414,333.567C663.862,312.704,659.927,293.186,655.639,275.107C655.639,275.107,655.639,275.107,655.639,275.107M720.979,258.82C731.442,298.849,739.282,340.639,744.337,383.484C781.263,409.69,815.405,437.305,846.091,465.687C878.857,430.105,902.695,395.963,916.998,364.157C931.686,331.391,932.997,305.889,921.062,286.146C909.255,266.627,884.744,254.596,848.235,250.308C837.515,249.06,826.06,248.389,814.189,248.389C786.319,248.421,755.057,251.908,720.979,258.82C720.979,258.82,720.979,258.82,720.979,258.82" /><glyph unicode="&#x0033;" d="M928,576C928,576,96,576,96,576C78.304,576,64,590.304,64,608C64,625.696,78.304,640,96,640C96,640,160,640,160,640C160,640,352,992,352,992C352,1009.696,366.304,1024,384,1024C384,1024,448,1024,448,1024C465.696,1024,480,1009.696,480,992C480,992,288,640,288,640C288,640,736,640,736,640C736,640,544,992,544,992C544,1009.696,558.304,1024,576,1024C576,1024,672,1024,672,1024C689.696,1024,704,1009.696,704,992C704,992,864,640,864,640C864,640,928,640,928,640C945.696,640,960,625.696,960,608C960,590.304,945.696,576,928,576C928,576,928,576,928,576M96,512C96,512,928,512,928,512C945.696,512,960,497.696,960,480C960,480,896,32,896,32C896,14.304,881.696,0,864,0C864,0,160,0,160,0C142.304,0,128,14.304,128,32C128,32,64,480,64,480C64,497.696,78.304,512,96,512C96,512,96,512,96,512M704,128C704,128,768,128,768,128C785.696,128,800,142.304,800,160C800,160,832,352,832,352C832,369.696,817.696,384,800,384C800,384,736,384,736,384C718.304,384,704,369.696,704,352C704,352,672,160,672,160C672,142.304,686.304,128,704,128C704,128,704,128,704,128M448,160C448,142.304,462.304,128,480,128C480,128,544,128,544,128C561.696,128,576,142.304,576,160C576,160,576,352,576,352C576,369.696,561.696,384,544,384C544,384,480,384,480,384C462.304,384,448,369.696,448,352C448,352,448,160,448,160C448,160,448,160,448,160M224,160C224,142.304,238.304,128,256,128C256,128,320,128,320,128C337.696,128,352,142.304,352,160C352,160,320,352,320,352C320,369.696,305.696,384,288,384C288,384,224,384,224,384C206.304,384,192,369.696,192,352C192,352,224,160,224,160C224,160,224,160,224,160" /><glyph unicode="&#x0034;" d="M812.71,480.391C814.214,325.485,958.593,274.031,960.257,273.263C958.945,269.775,937.122,199.825,884.067,127.604C838.181,65.238,790.695,3.128,715.753,1.88C642.06,0.568,618.381,42.551,534.128,42.551C449.907,42.551,423.604,3.128,353.91,0.568C281.625,-1.992,226.523,67.894,180.252,130.1C85.728,257.263,13.538,489.415,110.559,646.081C158.653,723.903,244.698,773.181,338.135,774.493C409.172,775.677,476.274,729.886,519.632,729.886C563.119,729.886,644.62,784.892,730.249,776.829C766.12,775.453,866.82,763.389,931.426,675.424C926.338,672.32,811.27,610.115,812.71,480.391C812.71,480.391,812.71,480.391,812.71,480.391M510.993,788.508C502.641,847.354,533.776,908.536,569.359,946.967C609.069,990.261,676.075,1022.452,731.401,1024.5C738.473,964.534,712.521,904.344,674.155,861.018C635.724,817.755,572.718,784.061,510.993,788.508C510.993,788.508,510.993,788.508,510.993,788.508" /><glyph unicode="&#x0035;" d="M385.536,481.248C379.84,473.024,372.896,452.416,364.672,447.36C356.448,442.336,347.168,438.816,336.864,436.864C326.528,434.88,315.84,434.016,304.8,434.336C304.8,434.336,304.8,385.472,304.8,385.472C304.8,385.472,383.744,385.472,383.744,385.472C383.744,385.472,383.744,192,383.744,192C383.744,192,447.456,192,447.456,192C447.456,192,447.456,511.872,447.456,511.872C447.456,511.872,396.768,511.872,396.768,511.872C394.976,499.68,391.232,489.472,385.536,481.248C385.536,481.248,385.536,481.248,385.536,481.248M736,768C736,768,800,768,800,768C817.696,768,832,782.336,832,800C832,800,832,992,832,992C832,1009.664,817.696,1024,800,1024C800,1024,736,1024,736,1024C718.304,1024,704,1009.664,704,992C704,992,704,800,704,800C704,782.336,718.304,768,736,768C736,768,736,768,736,768M224,768C224,768,288,768,288,768C305.664,768,320,782.336,320,800C320,800,320,992,320,992C320,1009.664,305.664,1024,288,1024C288,1024,224,1024,224,1024C206.336,1024,192,1009.664,192,992C192,992,192,800,192,800C192,782.336,206.336,768,224,768C224,768,224,768,224,768M960,896C960,896,896,896,896,896C896,896,896,736,896,736C896,718.336,881.696,704,864,704C864,704,672,704,672,704C654.304,704,640,718.336,640,736C640,736,640,896,640,896C640,896,384,896,384,896C384,896,384,736,384,736C384,718.336,369.664,704,352,704C352,704,160,704,160,704C142.336,704,128,718.336,128,736C128,736,128,896,128,896C128,896,64,896,64,896C28.672,896,0,867.328,0,832C0,832,0,64,0,64C0,28.672,28.672,0,64,0C64,0,960,0,960,0C995.328,0,1024,28.672,1024,64C1024,64,1024,832,1024,832C1024,867.328,995.328,896,960,896C960,896,960,896,960,896M960,96C960,78.304,945.696,64,928,64C928,64,96,64,96,64C78.336,64,64,78.304,64,96C64,96,64,608,64,608C64,625.664,78.336,640,96,640C96,640,928,640,928,640C945.696,640,960,625.664,960,608C960,608,960,96,960,96C960,96,960,96,960,96M511.52,448.576C511.52,448.576,670.496,448.576,670.496,448.576C640.544,411.712,616.448,374.176,598.016,330.016C579.616,285.824,577.6,239.84,574.048,192.032C574.048,192.032,642.24,192.032,642.24,192.032C642.528,213.344,636,236.352,640.608,261.024C645.28,285.696,651.872,310.048,660.352,334.144C668.896,358.208,679.488,380.896,692.224,402.208C704.896,423.552,719.52,441.536,735.968,456.16C735.968,456.16,735.968,511.904,735.968,511.904C735.968,511.904,511.488,511.904,511.488,511.904C511.488,511.904,511.488,448.576,511.488,448.576C511.488,448.576,511.52,448.576,511.52,448.576" /><glyph unicode="&#x0036;" d="M1021.248,883.2C1021.248,883.2,928,512,928,512C928,507.552,927.104,503.36,925.504,499.552C922.24,491.872,916.128,485.728,908.48,482.496C904.64,480.864,900.416,480,896,480C896,480,288,480,288,480C288,480,313.6,352,313.6,352C313.6,352,864,352,864,352C881.696,352,896,337.696,896,320C896,302.304,881.696,288,864,288C864,288,288,288,288,288C270.304,288,256,302.304,256,320C256,320,134.4,928,134.4,928C134.4,928,32,928,32,928C14.336,928,0,942.336,0,960C0,977.664,14.336,992,32,992C32,992,160,992,160,992C177.696,992,192,977.664,192,960C192,960,198.4,928,198.4,928C198.4,928,992,928,992,928C1009.696,928,1024,913.664,1024,896C1024,891.424,1022.976,887.136,1021.248,883.2C1021.248,883.2,1021.248,883.2,1021.248,883.2M275.2,544C275.2,544,384,544,384,544C384,544,384,864,384,864C384,864,211.2,864,211.2,864C211.2,864,275.2,544,275.2,544C275.2,544,275.2,544,275.2,544M576,864C576,864,416,864,416,864C416,864,416,544,416,544C416,544,576,544,576,544C576,544,576,864,576,864C576,864,576,864,576,864M768,864C768,864,608,864,608,864C608,864,608,544,608,544C608,544,768,544,768,544C768,544,768,864,768,864C768,864,768,864,768,864M800,864C800,864,800,544,800,544C800,544,872.096,544,872.096,544C872.096,544,953.152,864,953.152,864C953.152,864,800,864,800,864C800,864,800,864,800,864M352,224C405.024,224,448,180.992,448,128C448,75.008,405.024,32,352,32C298.976,32,256,75.008,256,128C256,180.992,298.976,224,352,224C352,224,352,224,352,224M352,96C369.696,96,384,110.304,384,128C384,145.696,369.696,160,352,160C334.304,160,320,145.696,320,128C320,110.304,334.304,96,352,96C352,96,352,96,352,96M800,224C853.024,224,896,180.992,896,128C896,75.008,853.024,32,800,32C746.976,32,704,75.008,704,128C704,180.992,746.976,224,800,224C800,224,800,224,800,224M800,96C817.696,96,832,110.304,832,128C832,145.696,817.696,160,800,160C782.304,160,768,145.696,768,128C768,110.304,782.304,96,800,96C800,96,800,96,800,96" /><glyph unicode="&#x0037;" d="M958.224,32.896C958.224,32.896,534.576,1009.888,534.576,1009.888C530.864,1018.464,522.384,1024,513.04,1024C503.696,1024,495.216,1018.464,491.536,1009.92C491.536,1009.92,66.448,32.928,66.448,32.928C63.28,25.6,64.016,17.248,68.368,10.624C72.72,4.032,80.08,0,87.984,0C87.984,0,448.336,0,448.336,0C448.336,0,448.336,213.376,448.336,213.376C448.336,213.376,320.368,256.032,320.368,256.032C302.672,256.032,288.368,270.336,288.368,288.032C288.368,305.728,302.672,320.032,320.368,320.032C320.368,320.032,448.336,277.376,448.336,277.376C448.336,277.376,448.336,480,448.336,480C448.336,497.696,462.64,512,480.336,512C480.336,512,544.336,512,544.336,512C562.032,512,576.336,497.696,576.336,480C576.336,480,576.336,432,576.336,432C576.336,432,672.304,480,672.304,480C690,480,704.304,465.696,704.304,448C704.304,430.304,690,416,672.304,416C672.304,416,576.336,368.032,576.336,368.032C576.336,368.032,576.336,256.032,576.336,256.032C576.336,256.032,736.304,352.032,736.304,352.032C754,352.032,768.304,337.728,768.304,320.032C768.304,302.336,754,288.032,736.304,288.032C736.304,288.032,576.336,192.032,576.336,192.032C576.336,192.032,576.336,0,576.336,0C576.336,0,936.688,0,936.688,0C944.624,0,951.984,4,956.304,10.624C960.656,17.216,961.328,25.632,958.224,32.896C958.224,32.896,958.224,32.896,958.224,32.896" /><glyph unicode="&#x0038;" d="M928,704C928,704,96,704,96,704C78.304,704,64,689.696,64,672C64,672,64,384,64,384C64,366.304,78.304,352,96,352C96,352,128,352,128,352C128,352,128,32,128,32C128,14.304,142.304,0,160,0C160,0,864,0,864,0C881.696,0,896,14.304,896,32C896,32,896,352,896,352C896,352,928,352,928,352C945.696,352,960,366.304,960,384C960,384,960,672,960,672C960,689.696,945.696,704,928,704C928,704,928,704,928,704M448,96C448,78.304,433.696,64,416,64C416,64,224,64,224,64C206.304,64,192,78.304,192,96C192,96,192,352,192,352C192,369.696,206.304,384,224,384C224,384,416,384,416,384C433.696,384,448,369.696,448,352C448,352,448,96,448,96C448,96,448,96,448,96M448,480C448,462.304,433.696,448,416,448C416,448,160,448,160,448C142.304,448,128,462.304,128,480C128,480,128,608,128,608C128,625.696,142.304,640,160,640C160,640,416,640,416,640C433.696,640,448,625.696,448,608C448,608,448,480,448,480C448,480,448,480,448,480M832,96C832,78.304,817.696,64,800,64C800,64,608,64,608,64C590.304,64,576,78.304,576,96C576,96,576,352,576,352C576,369.696,590.304,384,608,384C608,384,800,384,800,384C817.696,384,832,369.696,832,352C832,352,832,96,832,96C832,96,832,96,832,96M896,480C896,462.304,881.696,448,864,448C864,448,608,448,608,448C590.304,448,576,462.304,576,480C576,480,576,608,576,608C576,625.696,590.304,640,608,640C608,640,864,640,864,640C881.696,640,896,625.696,896,608C896,608,896,480,896,480C896,480,896,480,896,480M369.888,704.032C369.888,704.032,664.288,704.032,664.288,704.032C714.752,740.224,762.464,787.328,768.128,838.656C770.88,863.712,765.504,900.416,724.128,933.088C701.184,951.232,677.888,960.416,654.976,960.416C581.952,960.416,540.64,870.88,518.304,790.88C491.616,892.864,440.096,1024,351.616,1024C325.792,1024,300.096,1012.832,275.104,990.784C225.824,947.2,220.992,901.888,225.6,871.552C235.936,803.744,304.16,745.472,369.888,704.032C369.888,704.032,369.888,704.032,369.888,704.032M654.976,883.616C662.048,883.616,671.168,879.392,681.312,871.328C697.824,858.336,696.896,850.272,696.64,847.616C693.568,819.616,641.056,775.616,579.808,739.296C597.824,816.768,627.264,883.616,654.976,883.616C654.976,883.616,654.976,883.616,654.976,883.616M321.088,931.68C329.12,938.784,340.96,947.232,351.616,947.232C391.232,947.232,431.968,843.232,455.712,742.112C380.896,781.984,303.552,838.528,296.64,883.904C295.712,890.176,293.152,906.976,321.088,931.68C321.088,931.68,321.088,931.68,321.088,931.68" /><glyph unicode="&#x0039;" d="M832,128C725.984,128,640,199.616,640,288C640,376.384,725.984,448,832,448C854.56,448,875.872,444.16,896,438.176C896,438.176,896,736,896,736C896,736,384,608,384,608C384,608,384,128,384,128C384,128,380.128,128,380.128,128C362.336,54.976,284.864,0,192,0C85.984,0,0,71.616,0,160C0,248.384,85.984,320,192,320C214.56,320,235.872,316.16,256,310.176C256,310.176,256,864,256,864C256,864,896,1024,896,1024C896,1024,1024,1024,1024,1024C1024,1024,1024,288,1024,288C1024,199.616,938.016,128,832,128C832,128,832,128,832,128" /><glyph unicode="&#x0021;" d="M929.562,509.971C929.338,509.875,929.114,509.747,928.986,509.747C928.986,509.587,928.986,509.363,928.986,509.235C862.678,474.993,801.97,461.392,747.407,461.392C664.81,461.392,596.293,492.594,543.65,531.124C543.33,531.348,542.914,531.636,542.658,531.924C542.658,531.924,638.408,894.699,638.408,894.699C668.682,868.873,737.166,820.55,840.949,820.55C893.208,820.55,954.268,832.775,1024,866.121C1024,866.121,929.562,509.971,929.562,509.971C929.562,509.971,929.562,509.971,929.562,509.971M300.243,651.068C299.379,651.068,298.547,651.068,297.651,651.068C248.112,651.068,189.164,636.699,116.455,604.217C116.455,604.217,209.837,963.151,209.837,963.151C280.594,994.737,338.165,1007.474,386.168,1008.498C386.52,1008.498,386.872,1008.498,387.256,1008.498C415.482,1008.498,440.988,1004.818,463.549,998.961C510.784,985.777,578.692,941.262,578.692,941.262C578.692,941.262,578.692,941.006,578.692,941.006C559.235,868.041,501.631,651.836,482.206,579.831C431.515,616.602,377.048,650.204,300.243,651.068C300.243,651.068,300.243,651.068,300.243,651.068M264.145,563.606C270.289,564.182,276.401,564.374,282.514,564.374C336.405,564.374,385.592,543.733,420.89,523.924C435.995,515.027,450.268,505.331,464.445,495.698C451.9,448.623,385.784,201.568,366.327,129.339C313.876,167.549,258.288,201.472,178.123,201.472C129.448,201.472,71.588,188.831,0,157.213C0,157.213,94.79,516.979,94.79,516.979C105.575,521.78,116.103,526.196,126.312,530.228C160.874,543.541,210.093,558.646,264.145,563.606C264.145,563.606,264.145,563.606,264.145,563.606M726.029,377.291C776.337,377.291,835.892,387.467,904.985,414.573C904.985,414.573,813.907,66.071,813.907,66.071C735.374,30.613,672.586,16.5,620.071,16.5C537.09,16.5,426.491,91.161,426.619,91.065C426.619,91.065,521.121,450.255,521.121,450.255C549.89,425.134,616.487,377.291,726.029,377.291C726.029,377.291,726.029,377.291,726.029,377.291" /><glyph unicode="&#x0022;" d="M1010.881,185.248C1010.881,185.248,626.913,953.248,626.913,953.248C605.249,996.608,560.961,1024,512.449,1024C463.937,1024,419.649,996.608,397.985,953.248C397.985,953.248,14.017,185.248,14.017,185.248C-5.823,145.568,-3.711,98.432,19.617,60.672C42.945,22.976,84.129,0,128.481,0C128.481,0,896.385,0,896.385,0C940.769,0,981.953,22.976,1005.249,60.672C1028.577,98.432,1030.689,145.568,1010.881,185.248C1010.881,185.248,1010.881,185.248,1010.881,185.248M576.385,160C576.385,142.304,562.081,128,544.385,128C544.385,128,480.385,128,480.385,128C462.689,128,448.385,142.304,448.385,160C448.385,160,448.385,224,448.385,224C448.385,241.696,462.689,256,480.385,256C480.385,256,544.385,256,544.385,256C562.081,256,576.385,241.696,576.385,224C576.385,224,576.385,160,576.385,160C576.385,160,576.385,160,576.385,160M576.385,416C576.385,398.304,562.081,384,544.385,384C544.385,384,480.385,384,480.385,384C462.689,384,448.385,398.304,448.385,416C448.385,416,448.385,736,448.385,736C448.385,753.664,462.689,768,480.385,768C480.385,768,544.385,768,544.385,768C562.081,768,576.385,753.664,576.385,736C576.385,736,576.385,416,576.385,416C576.385,416,576.385,416,576.385,416" /><glyph unicode="&#x0023;" d="M1024,512C1024,229.23,794.77,0,512,0C229.23,0,0,229.23,0,512C0,636.635,44.837,750.555,118.857,839.314C124.489,849.701,132.315,858.734,142.08,865.28C143.726,866.999,145.189,868.937,146.871,870.619C146.907,869.778,147.273,868.974,147.346,868.133C157.915,874.057,169.911,877.714,182.857,877.714C223.232,877.714,256,844.946,256,804.571C256,779.118,243.017,756.736,223.269,743.643C224.549,742.693,225.463,741.522,226.779,740.571C176.494,677.961,146.286,598.565,146.286,512C146.286,310.016,310.016,146.286,512,146.286C713.984,146.286,877.714,310.016,877.714,512C877.714,598.565,847.506,677.961,797.221,740.571C798.537,741.522,799.488,742.693,800.731,743.643C780.983,756.736,768,779.118,768,804.571C768,844.946,800.768,877.714,841.143,877.714C854.089,877.714,866.085,874.057,876.654,868.133C876.727,868.974,877.093,869.778,877.166,870.619C878.811,868.937,880.274,866.999,881.957,865.28C891.721,858.734,899.511,849.701,905.179,839.314C979.127,750.555,1024,636.635,1024,512C1024,512,1024,512,1024,512M548.571,438.857C548.571,438.857,475.429,438.857,475.429,438.857C455.205,438.857,438.857,455.205,438.857,475.429C438.857,475.429,438.857,987.429,438.857,987.429C438.857,1007.616,455.205,1024,475.429,1024C475.429,1024,548.571,1024,548.571,1024C568.795,1024,585.143,1007.616,585.143,987.429C585.143,987.429,585.143,475.429,585.143,475.429C585.143,455.205,568.795,438.857,548.571,438.857C548.571,438.857,548.571,438.857,548.571,438.857" /><glyph unicode="&#x0024;" d="M711.111,739.778C701.156,739.778,691.826,737.787,682.098,736.82C616.647,840.812,501.703,910.444,369.778,910.444C165.547,910.444,0,744.898,0,540.667C0,540.667,0,483.778,0,483.778C0,289.275,150.67,128.734,341.333,114C341.333,114,739.556,114,739.556,114C898.844,128.564,1024,263.845,1024,426.889C1024,599.66,883.883,739.778,711.111,739.778C711.111,739.778,711.111,739.778,711.111,739.778M739.556,227.778C739.556,227.778,341.333,227.778,341.333,227.778C309.504,231.333,279.723,243.337,252.501,257.445C251.932,257.73,251.449,258.043,250.88,258.327C238.165,265.04,226.105,272.606,214.784,281.339C213.106,282.562,211.627,283.956,210.005,285.236C199.993,293.285,190.436,301.79,181.732,311.291C178.944,314.249,176.612,317.577,174.023,320.677C166.969,329.125,160.028,337.687,154.084,347.017C150.585,352.45,147.911,358.338,144.868,364.027C140.601,372.02,136.078,379.756,132.693,388.204C129.138,396.823,126.919,405.982,124.359,415.028C122.539,421.428,120.149,427.486,118.812,434.085C115.655,450.128,113.806,466.74,113.806,483.806C113.806,483.806,113.806,540.695,113.806,540.695C113.806,682.092,228.409,796.695,369.806,796.695C388.921,796.695,407.41,794.249,425.358,790.238C429.028,789.413,432.469,787.906,436.082,786.91C450.645,783.013,464.754,778.121,478.151,771.863C480.427,770.754,482.532,769.417,484.807,768.251C499.541,760.798,513.308,752.037,526.251,741.968C526.848,741.456,527.474,740.972,528.128,740.46C571.733,705.787,603.79,657.744,617.586,601.908C645.49,617.012,677.148,626.028,711.14,626.028C821.077,626.028,910.251,536.855,910.251,426.917C910.251,326.708,835.982,241.687,739.584,227.806C739.584,227.806,739.556,227.778,739.556,227.778" /><glyph unicode="&#x0025;" d="M448,1024C412.672,1024,384,995.392,384,960C384,960,384,640,384,640C384,640,320,640,320,640C320,640,320,960,320,960C320,995.36,291.328,1024,256,1024C220.672,1024,192,995.392,192,960C192,960,192,640,192,640C192,640,128,640,128,640C128,640,128,960,128,960C128,995.36,99.328,1024,64,1024C28.672,1024,0,995.392,0,960C0,960,0,576,0,576C0,540.64,28.64,512,64,512C64,512,192,512,192,512C192,512,192,64,192,64C192,28.64,220.672,0,256,0C291.328,0,320,28.64,320,64C320,64,320,512,320,512C320,512,448,512,448,512C483.328,512,512,540.64,512,576C512,576,512,960,512,960C512,995.36,483.328,1024,448,1024C448,1024,448,1024,448,1024M832,1024C725.952,1024,640,938.048,640,832C640,748.512,693.6,678.176,768,651.744C768,651.744,768,64,768,64C768,28.64,796.64,0,832,0C867.36,0,896,28.64,896,64C896,64,896,651.744,896,651.744C970.4,678.176,1024,748.48,1024,832C1024,938.048,938.048,1024,832,1024C832,1024,832,1024,832,1024" /><glyph unicode="&#x0026;" d="M960.47,704.478C960.47,704.478,878.297,786.619,878.297,786.619C878.297,786.619,667.743,576.098,667.743,576.098C667.743,576.098,576.13,667.711,576.13,667.711C576.13,667.711,786.683,878.265,786.683,878.265C786.683,878.265,704.51,960.438,704.51,960.438C704.51,995.797,733.149,1024.436,768.508,1024.436C768.508,1024.436,960.502,1024.436,960.502,1024.436C995.861,1024.436,1024.5,995.797,1024.5,960.438C1024.5,960.438,1024.5,768.444,1024.5,768.444C1024.5,733.085,995.861,704.446,960.502,704.446C960.502,704.446,960.47,704.478,960.47,704.478M320.49,64.498C320.49,29.139,291.851,0.5,256.492,0.5C256.492,0.5,64.498,0.5,64.498,0.5C29.139,0.5,0.5,29.139,0.5,64.498C0.5,64.498,0.5,256.492,0.5,256.492C0.5,291.851,29.107,320.49,64.498,320.49C64.498,320.49,146.671,238.317,146.671,238.317C146.671,238.317,357.225,448.87,357.225,448.87C357.225,448.87,448.838,357.257,448.838,357.257C448.838,357.257,238.285,146.639,238.285,146.639C238.285,146.639,320.458,64.53,320.458,64.53C320.458,64.53,320.49,64.498,320.49,64.498" /><glyph unicode="&#x0027;" d="M514,960C266.96,960,66,759.04,66,512C66,264.96,266.96,64,514,64C761.04,64,962,264.96,962,512C962,759.04,761.04,960,514,960C514,960,514,960,514,960M514,96C284.624,96,98,282.624,98,512C98,741.376,284.624,928,514,928C743.376,928,930,741.376,930,512C930,282.624,743.376,96,514,96C514,96,514,96,514,96M274,1024C141.648,1024,34,916.352,34,784C34,784,34,750.016,34,750.016C34,741.184,41.168,734.016,50,734.016C58.832,734.016,66,741.152,66,750.016C66,750.016,66,784,66,784C66,898.688,159.312,992,274,992C274,992,302,992,302,992C310.832,992,318,999.168,318,1008C318,1016.832,310.832,1024,302,1024C302,1024,274,1024,274,1024C274,1024,274,1024,274,1024M750,1024C750,1024,722,1024,722,1024C713.168,1024,706,1016.832,706,1008C706,999.168,713.168,992,722,992C722,992,750,992,750,992C864.688,992,958,898.688,958,784C958,784,958,750.016,958,750.016C958,741.184,965.168,734.016,974,734.016C982.832,734.016,990,741.184,990,750.016C990,750.016,990,784,990,784C990,916.352,882.352,1024,750,1024C750,1024,750,1024,750,1024M514,502.624C514,502.624,514,725.792,514,725.792C514,734.624,506.832,741.792,498,741.792C489.168,741.792,482,734.624,482,725.792C482,725.792,482,496,482,496C482,491.744,483.696,487.68,486.672,484.672C486.672,484.672,643.92,327.424,643.92,327.424C647.056,324.288,651.152,322.752,655.248,322.752C659.344,322.752,663.44,324.32,666.576,327.424C672.816,333.664,672.816,343.808,666.576,350.048C666.576,350.048,514,502.624,514,502.624C514,502.624,514,502.624,514,502.624M94.8,6.4C94.8,6.4,190.8,134.4,190.8,134.4C196.08,141.472,194.64,151.488,187.568,156.8C180.528,162.048,170.512,160.64,165.168,153.568C165.168,153.568,69.168,25.568,69.168,25.568C63.888,18.496,65.328,8.48,72.4,3.168C75.28,1.024,78.672,0,82,0C86.832,0,91.664,2.208,94.8,6.4C94.8,6.4,94.8,6.4,94.8,6.4M862.8,153.6C857.456,160.704,847.472,162.08,840.4,156.832C833.328,151.52,831.888,141.504,837.168,134.432C837.168,134.432,933.168,6.432,933.168,6.432C936.336,2.24,941.136,0.032,945.968,0.032C949.296,0.032,952.688,1.056,955.568,3.232C962.64,8.544,964.08,18.56,958.8,25.632C958.8,25.632,862.8,153.6,862.8,153.6C862.8,153.6,862.8,153.6,862.8,153.6" /><glyph unicode="&#x0028;" d="M832,603.5C796.818,603.5,763.922,593.827,735.525,577.242C735.525,577.242,611.163,768.071,611.163,768.071C611.163,768.071,786.688,768.071,786.688,768.071C786.45,758.965,784.329,743.733,773.906,731.756C763.173,719.45,745.819,713.214,722.286,713.214C717.239,713.214,713.143,709.118,713.143,704.071C713.143,699.025,717.239,694.929,722.286,694.929C751.342,694.929,773.339,703.267,787.675,719.724C808.942,744.154,804.681,777.068,804.48,778.458C803.858,782.974,800,786.357,795.429,786.357C795.429,786.357,594.286,786.357,594.286,786.357C590.921,786.357,587.831,784.51,586.258,781.566C584.649,778.622,584.795,775.038,586.642,772.204C586.642,772.204,638.409,692.771,638.409,692.771C638.409,692.771,348.306,692.771,348.306,692.771C348.306,692.771,291.931,786.357,291.931,786.357C291.931,786.357,393.143,786.357,393.143,786.357C398.19,786.357,402.286,790.453,402.286,795.5C402.286,800.547,398.19,804.643,393.143,804.643C393.143,804.643,228.571,804.643,228.571,804.643C223.525,804.643,219.429,800.547,219.429,795.5C219.429,790.453,223.525,786.357,228.571,786.357C228.571,786.357,270.885,786.357,270.885,786.357C271.067,785.937,271.104,785.479,271.342,785.077C271.342,785.077,333.733,681.543,333.733,681.543C333.733,681.543,277.888,582.983,277.888,582.983C252.014,595.985,222.903,603.5,192,603.5C86.126,603.5,0,517.374,0,411.5C0,305.626,86.126,219.5,192,219.5C294.181,219.5,377.728,299.793,382.537,402.357C382.537,402.357,585.143,402.357,585.143,402.357C585.673,391.77,583.387,377.342,573.367,365.987C562.542,353.717,544.969,347.5,521.143,347.5C516.096,347.5,512,343.404,512,338.357C512,333.31,516.096,329.214,521.143,329.214C550.546,329.214,572.782,337.571,587.227,354.046C608.11,377.891,604.178,409.562,604.014,410.897C603.41,415.45,599.534,418.851,594.944,418.851C594.944,418.851,523.118,418.851,523.118,418.851C523.118,418.851,651.977,671.925,651.977,671.925C651.977,671.925,720.183,567.258,720.183,567.258C671.726,532.387,640,475.646,640,411.5C640,305.626,726.126,219.5,832,219.5C937.874,219.5,1024,305.626,1024,411.5C1024,517.374,937.874,603.5,832,603.5C832,603.5,832,603.5,832,603.5M632.777,676.643C632.777,676.643,507.557,428.542,507.557,428.542C507.557,428.542,359.333,676.643,359.333,676.643C359.333,676.643,632.777,676.643,632.777,676.643C632.777,676.643,632.777,676.643,632.777,676.643M344.558,663.569C344.558,663.569,492.032,418.851,492.032,418.851C492.032,418.851,383.634,418.851,383.634,418.851C381.147,484.222,345.929,541.219,293.815,573.987C293.815,573.987,344.558,663.569,344.558,663.569C344.558,663.569,344.558,663.569,344.558,663.569M365.349,418.851C365.349,418.851,205.915,418.851,205.915,418.851C205.915,418.851,284.8,558.097,284.8,558.097C331.392,528.492,362.862,477.42,365.349,418.851C365.349,418.851,365.349,418.851,365.349,418.851M192,237.786C96.219,237.786,18.286,315.719,18.286,411.5C18.286,507.281,96.219,585.214,192,585.214C219.611,585.214,245.65,578.558,268.873,567.057C268.873,567.057,182.272,414.225,182.272,414.225C180.663,411.409,180.681,407.934,182.327,405.118C183.954,402.321,186.971,400.583,190.226,402.375C190.226,402.375,365.166,402.375,365.166,402.375C359.479,309.886,284.105,237.786,192,237.786C192,237.786,192,237.786,192,237.786M832,237.786C736.219,237.786,658.286,315.719,658.286,411.5C658.286,469.228,686.702,520.337,730.185,551.934C730.185,551.934,826.13,404.716,826.13,404.716C827.886,402.046,830.811,400.565,833.792,400.565C835.511,400.565,837.23,401.041,838.784,402.046C842.99,404.789,844.197,410.476,841.454,414.7C841.454,414.7,745.509,561.918,745.509,561.918C771.017,576.657,800.494,585.214,832,585.214C927.781,585.214,1005.714,507.281,1005.714,411.5C1005.714,315.719,927.781,237.786,832,237.786C832,237.786,832,237.786,832,237.786" /></font>
</defs>
</svg>
