<?xml version="1.0" standalone="no"?><!DOCTYPE svg PUBLIC "-//W3C//DTD SVG 1.1//EN" "http://www.w3.org/Graphics/SVG/1.1/DTD/svg11.dtd" ><svg xmlns="http://www.w3.org/2000/svg"><metadata>Generated by Glyphter</metadata><defs><font id="sporto4" horiz-adv-x="0"><font-face units-per-em="1024" ascent="1024" descent="0" font-family="sporto4" font-weight="normal" /><missing-glyph horiz-adv-x="0" /><glyph unicode="&#x0041;" d="M384.506,256.504C384.506,327.257,327.129,384.506,256.504,384.506C185.751,384.506,128.502,327.257,128.502,256.504C128.502,256.504,128.502,256.248,128.502,256.248C128.502,161.623,77.013,79.125,0.5,34.869C0.5,34.869,1.012,34.485,1.012,34.485C38.517,12.884,82.005,0.5,128.502,0.5C269.88,0.5,384.506,115.126,384.506,256.504C384.506,256.504,384.506,256.504,384.506,256.504C384.506,256.504,384.506,256.504,384.506,256.504M986.947,987.011C936.963,1036.996,855.937,1036.996,805.953,987.011C805.953,987.011,322.009,503.004,322.009,503.004C410.266,479.387,479.515,410.266,503.004,321.881C503.004,321.881,986.947,806.017,986.947,806.017C1036.964,856.001,1036.964,937.027,986.947,987.011C986.947,987.011,986.947,987.011,986.947,987.011" /><glyph unicode="&#x0042;" d="M986.947,987.011C936.963,1036.996,855.937,1036.996,805.953,987.011C805.953,987.011,441.147,622.27,441.147,622.27C525.66,592.157,592.157,525.628,622.142,441.147C622.142,441.147,986.947,806.017,986.947,806.017C1036.964,856.001,1036.964,937.027,986.947,987.011C986.947,987.011,986.947,987.011,986.947,987.011M512.38,341.881C512.38,436.123,435.867,512.508,341.625,512.508C247.384,512.508,170.999,436.123,170.999,341.881C170.999,341.881,171.127,341.753,171.127,341.753C170.999,215.511,102.39,105.366,0.5,46.389C0.5,46.389,1.012,45.749,1.012,45.749C51.125,17.012,109.142,0.5,171.127,0.5C359.642,0.5,512.508,153.366,512.508,341.881C512.508,341.881,512.38,341.881,512.38,341.881C512.38,341.881,512.38,341.881,512.38,341.881" /><glyph unicode="&#x0043;" d="M512,384C466.88,384,424.256,393.248,384,407.552C384,407.552,384,0,384,0C384,0,512,128,512,128C512,128,640,0,640,0C640,0,640,407.552,640,407.552C599.744,393.248,557.12,384,512,384C512,384,512,384,512,384M256,768C256,909.376,370.624,1024,512,1024C653.376,1024,768,909.376,768,768C768,626.624,653.376,512,512,512C370.624,512,256,626.624,256,768C256,768,256,768,256,768" /><glyph unicode="&#x0045;" d="M512,384C466.88,384,424.256,393.248,384,407.488C384,407.488,384,0,384,0C384,0,512,128,512,128C512,128,640,0,640,0C640,0,640,407.488,640,407.488C599.744,393.248,557.12,384,512,384C512,384,512,384,512,384M512,1024C370.624,1024,256,909.376,256,768C256,626.624,370.624,512,512,512C653.376,512,768,626.624,768,768C768,909.376,653.376,1024,512,1024C512,1024,512,1024,512,1024M512,640C441.248,640,384,697.312,384,768C384,838.688,441.248,896,512,896C582.752,896,640,838.688,640,768C640,697.312,582.752,640,512,640C512,640,512,640,512,640" /><glyph unicode="&#x0046;" d="M1024,896C1024,896,0,896,0,896C0,896,0,1024,0,1024C0,1024,1024,1024,1024,1024C1024,1024,1024,896,1024,896M640,640C640,640,0,640,0,640C0,640,0,768,0,768C0,768,640,768,640,768C640,768,640,640,640,640M1024,256C1024,256,0,256,0,256C0,256,0,384,0,384C0,384,1024,384,1024,384C1024,384,1024,256,1024,256M768,0C768,0,0,0,0,0C0,0,0,128,0,128C0,128,768,128,768,128C768,128,768,0,768,0M1024,64C1024,28.64,995.296,0,960.064,0C924.608,0,896,28.64,896,64C896,99.36,924.608,128,960.064,128C995.296,128,1024,99.36,1024,64C1024,64,1024,64,1024,64" /><glyph unicode="&#x0047;" d="M497.548,402.496C497.548,402.496,159.052,740.992,159.052,740.992C-9.684,546.24,-9.684,258.752,159.052,64C159.052,64,497.548,402.496,497.548,402.496C497.548,402.496,497.548,402.496,497.548,402.496M544.492,448C544.492,448,544.492,1024,544.492,1024C387.5,1014.24,245.996,954.24,131.788,860.736C131.788,860.736,544.492,448,544.492,448C544.492,448,544.492,448,544.492,448M608.556,895.488C608.556,895.488,608.556,421.504,608.556,421.504C608.556,421.504,276.3,89.248,276.3,89.248C350.796,34.496,440.556,0,539.82,0C789.996,0,992.492,202.496,992.492,452.256C992.492,678.752,825.228,862.24,608.556,895.488C608.556,895.488,608.556,895.488,608.556,895.488" /><glyph unicode="&#x0048;" d="M512,384C653.376,384,767.872,498.624,767.872,640C767.872,640,767.872,768,767.872,768C767.872,944.672,640,1024,512,1024C512,1024,255.872,1024,255.872,1024C128,1024,0,956,0,768C0,584,128,512,255.872,512C255.872,512,384,512,384,512C454.624,512,512,454.624,512,384C512,384,512,384,512,384M831.36,633.184C827.616,460,686.016,320,512,320C512,320,448,320,448,320C448,320,448,384,448,384C448,419.328,419.264,448,384,448C384,448,262.368,448,262.368,448C258.528,428.896,256.16,408.448,256,386.368C256,386.368,256,253.536,256,253.536C257.344,113.312,371.456,0,512,0C512,70.752,569.376,128,640,128C640,128,767.872,128,767.872,128C896,128,1024,200,1024,384C1024,540.576,934.88,613.12,831.36,633.184C831.36,633.184,831.36,633.184,831.36,633.184" /><glyph unicode="&#x0049;" d="M831.264,633.184C830.4,588.8,820.512,546.944,803.008,508.736C895.264,493.376,896,418.24,896,384C896,352.256,896,256,768.128,256C768.128,256,640,256,640,256C556.64,256,481.984,215.744,435.264,153.504C404.256,176.992,384,214.24,384,256C384,256,384,384,384,384C384,409.248,388.512,429.248,395.488,445.696C391.744,446.368,388,448,384,448C384,448,262.496,448,262.496,448C258.368,428.192,256.128,407.008,256.128,384C256.128,384,256.128,256,256.128,256C256.128,114.624,370.624,0,512,0C512,70.752,569.248,128,640,128C640,128,768.128,128,768.128,128C896,128,1024,200,1024,384C1024,540.576,935.008,613.12,831.264,633.184C831.264,633.184,831.264,633.184,831.264,633.184M512,896C559.744,896,640,879.36,640,768C640,768,640,640,640,640C640,598.112,619.744,560.928,588.736,537.568C542.016,599.68,467.488,640,384,640C384,640,256.128,640,256.128,640C128,640,128,736.32,128,768C128,806.24,128,896,256.128,896C256.128,896,512,896,512,896C512,896,512,896,512,896M512,1024C512,1024,256.128,1024,256.128,1024C128,1024,0,956,0,768C0,584,128,512,256.128,512C256.128,512,384,512,384,512C454.752,512,512,454.624,512,384C653.376,384,768.128,498.624,768.128,640C768.128,640,768.128,768,768.128,768C768.128,944.672,640,1024,512,1024C512,1024,512,1024,512,1024C512,1024,512,1024,512,1024" /><glyph unicode="&#x004a;" d="M768,896C756,896,744.384,894.112,732.736,892.384C688.128,971.36,605.632,1024,512,1024C416.384,1024,333.824,970.624,289.888,892.864C278.624,894.368,267.424,896,256,896C114.816,896,0,781.12,0,640C0,498.88,114.816,384,256,384C256,384,448,384,448,384C448,384,448,192,448,192C448,192,320,192,320,192C320,192,512,0,512,0C512,0,704,192,704,192C704,192,576,192,576,192C576,192,576,384,576,384C576,384,768,384,768,384C909.248,384,1024,498.88,1024,640C1024,781.12,909.248,896,768,896C768,896,768,896,768,896M768,512C768,512,256,512,256,512C185.44,512,128,569.376,128,640C128,710.112,190.176,764.384,256.128,766.24C256.384,736.128,261.632,706.368,272.128,678.368C272.128,678.368,392,723.36,392,723.36C386.688,737.504,384,752.64,384,768C384,838.624,441.44,896,512,896C553.44,896,590.816,875.488,614.496,843.616C552.64,796.864,512,723.36,512,640C512,640,640,640,640,640C640,710.624,697.504,768,768,768C838.496,768,896,710.624,896,640C896,569.376,838.496,512,768,512C768,512,768,512,768,512" /><glyph unicode="&#x004b;" d="M768,704C755.872,704,744.384,702.048,732.736,700.448C688.128,779.328,605.632,832,512,832C416.384,832,333.888,778.688,289.888,700.8C278.624,702.304,267.36,704,256,704C114.88,704,0,589.184,0,448C0,306.752,114.88,192,256,192C256,192,768,192,768,192C909.12,192,1024,306.752,1024,448C1024,589.184,909.12,704,768,704C768,704,768,704,768,704M768,320C768,320,256,320,256,320C185.376,320,128,377.504,128,448C128,518.176,190.112,572.32,256.128,574.24C256.384,544.064,261.632,514.432,272.128,486.432C272.128,486.432,392,531.296,392,531.296C386.624,545.504,384,560.576,384,576C384,646.56,441.376,704,512,704C553.376,704,590.88,683.488,614.368,651.552C552.64,604.8,512,531.36,512,448C512,448,640,448,640,448C640,518.56,697.376,576,768,576C838.624,576,896,518.56,896,448C896,377.504,838.624,320,768,320C768,320,768,320,768,320" /><glyph unicode="&#x004c;" d="M704,1024C704,1024,704,900,704,900C704,848.736,684,800.512,647.872,764.384C647.872,764.384,285.76,404.256,285.76,404.256C228.512,347.136,196.992,272.128,193.504,192C193.504,192,64,192,64,192C64,192,256,0,256,0C256,0,448,192,448,192C448,192,321.376,192,321.376,192C324.736,238.016,343.264,280.736,376.128,313.76C376.128,313.76,738.24,673.76,738.24,673.76C798.752,734.24,832,814.496,832,900C832,900,832,1024,832,1024C832,1024,704,1024,704,1024C704,1024,704,1024,704,1024M830.496,192C827.008,272.128,795.36,347.136,738.112,404.512C738.112,404.512,666.752,475.392,666.752,475.392C666.752,475.392,576,385.12,576,385.12C576,385.12,647.744,313.76,647.744,313.76C680.736,280.896,699.232,238.016,702.624,192C702.624,192,576,192,576,192C576,192,768,0,768,0C768,0,960,192,960,192C960,192,830.496,192,830.496,192C830.496,192,830.496,192,830.496,192" /><glyph unicode="&#x004d;" d="M986.979,987.011C936.995,1036.996,855.969,1036.996,805.985,987.011C805.985,987.011,322.009,502.876,322.009,502.876C365.274,491.612,405.274,469.883,437.755,437.371C470.747,404.378,491.772,364.122,503.004,321.881C503.004,321.881,986.979,806.049,986.979,806.049C1036.996,856.033,1036.996,937.059,986.979,987.043C986.979,987.043,986.979,987.011,986.979,987.011M347.257,165.879C397.242,215.863,397.242,296.889,347.257,346.873C297.273,396.858,216.247,396.858,166.263,346.873C166.263,346.873,0.5,0.5,0.5,0.5C0.5,0.5,347.257,165.879,347.257,165.879C347.257,165.879,347.257,165.879,347.257,165.879" /><glyph unicode="&#x004e;" d="M1024,896C1024,896,0,896,0,896C0,896,0,1024,0,1024C0,1024,1024,1024,1024,1024C1024,1024,1024,896,1024,896M640,640C640,640,0,640,0,640C0,640,0,768,0,768C0,768,640,768,640,768C640,768,640,640,640,640M1024,384C1024,384,0,384,0,384C0,384,0,512,0,512C0,512,1024,512,1024,512C1024,512,1024,384,1024,384M0,64C0,99.36,28.64,128,64,128C99.36,128,128,99.36,128,64C128,28.64,99.36,0,64,0C28.64,0,0,28.64,0,64C0,64,0,64,0,64M512,64C512,99.36,540.64,128,576,128C611.36,128,640,99.36,640,64C640,28.64,611.36,0,576,0C540.64,0,512,28.64,512,64C512,64,512,64,512,64M256,64C256,99.36,284.64,128,320,128C355.36,128,384,99.36,384,64C384,28.64,355.36,0,320,0C284.64,0,256,28.64,256,64C256,64,256,64,256,64" /><glyph unicode="&#x004f;" d="M512.5,1024C230.26,1024,0.5,794.304,0.5,512C0.5,512,128.5,512,128.5,512C128.5,538.432,150.132,560,176.5,560C202.996,560,224.5,538.432,224.5,512C224.5,512,352.5,512,352.5,512C352.5,538.432,374.132,560,400.5,560C426.996,560,448.5,538.432,448.5,512C448.5,512,448.5,192,448.5,192C448.5,156.736,419.86,128,384.5,128C349.236,128,320.5,156.736,320.5,192C320.5,192,192.5,192,192.5,192C192.5,86.112,278.74,0,384.5,0C490.484,0,576.5,86.112,576.5,192C576.5,192,576.5,512,576.5,512C576.5,538.432,598.132,560,624.5,560C650.996,560,672.436,538.432,672.436,512C672.436,512,800.436,512,800.436,512C800.436,538.432,822.196,560,848.436,560C874.932,560,896.436,538.432,896.436,512C896.436,512,1024.436,512,1024.436,512C1024.436,794.304,794.932,1024,512.5,1024C512.5,1024,512.5,1024,512.5,1024" /><glyph unicode="&#x0050;" d="M512,1024C229.248,1024,0,794.752,0,512C0,229.248,229.248,0,512,0C794.752,0,1024,229.248,1024,512C1024,794.752,794.752,1024,512,1024C512,1024,512,1024,512,1024M512,896C678.624,896,819.36,788.672,872.512,640C872.512,640,151.488,640,151.488,640C204.64,788.672,345.376,896,512,896C512,896,512,896,512,896M512,448C476.64,448,448,476.64,448,512C448,547.36,476.64,576,512,576C547.36,576,576,547.36,576,512C576,476.64,547.36,448,512,448C512,448,512,448,512,448M128,512C302.88,512,444.512,343.488,447.488,134.496C266.496,165.504,128,322.368,128,512C128,512,128,512,128,512M576.512,134.496C579.488,343.488,721.12,512,896,512C896,322.368,757.504,165.504,576.512,134.496C576.512,134.496,576.512,134.496,576.512,134.496" /><glyph unicode="&#x0051;" d="M896.436,256C865.428,256,837.94,243.488,815.7,225.12C815.7,225.12,620.628,364.384,620.628,364.384C633.012,389.888,640.5,417.888,640.5,448C640.5,489.376,626.996,527.616,604.756,558.88C604.756,558.88,832.948,787.264,832.948,787.264C851.924,776.128,872.948,768,896.436,768C967.188,768,1024.436,825.248,1024.436,896C1024.436,966.752,967.188,1024,896.436,1024C825.684,1024,768.436,966.752,768.436,896C768.436,872.384,776.692,851.488,787.7,832.512C787.7,832.512,559.508,604.128,559.508,604.128C527.988,626.624,490.004,640,448.5,640C375.252,640,312.244,598.368,279.86,537.888C279.86,537.888,125.748,589.376,125.748,589.376C119.508,618.112,95.124,640,64.5,640C29.14,640,0.5,611.36,0.5,576C0.5,540.64,29.14,512,64.5,512C80.628,512,94.996,518.496,106.26,528.384C106.26,528.384,259.508,477.248,259.508,477.248C258.004,467.616,256.5,457.984,256.5,448C256.5,342.016,342.516,256,448.5,256C501.236,256,549.14,277.376,583.86,311.872C583.86,311.872,777.684,173.504,777.684,173.504C772.18,159.264,768.436,144.128,768.436,128C768.436,57.376,825.684,0,896.436,0C967.188,0,1024.436,57.376,1024.436,128C1024.436,198.624,967.188,256,896.436,256C896.436,256,896.436,256,896.436,256" /><glyph unicode="&#x0052;" d="M1011.924,843.424C1011.924,843.424,851.188,682.688,851.188,682.688C851.188,682.688,683.188,682.688,683.188,682.688C683.188,682.688,683.188,853.312,683.188,853.312C683.188,853.312,841.94,1012,841.94,1012C818.452,1019.072,794.196,1024,768.436,1024C627.124,1024,512.5,909.312,512.5,768C512.5,728.576,522.132,691.68,538.132,658.24C538.132,658.24,25.492,145.76,25.492,145.76C10.132,130.24,0.5,108.992,0.5,85.248C0.5,38.24,38.612,0,85.876,0C109.492,0,130.868,9.504,146.132,24.992C146.132,24.992,658.868,537.568,658.868,537.568C692.18,521.696,729.172,512,768.436,512C909.94,512,1024.436,626.688,1024.436,768C1024.436,794.432,1019.444,819.424,1011.924,843.424C1011.924,843.424,1011.924,843.424,1011.924,843.424" /><glyph unicode="&#x0053;" d="M435.204,64.001C435.204,99.362,463.845,128.003,499.206,128.003C534.567,128.003,563.207,99.362,563.207,64.001C563.207,28.641,534.567,0,499.206,0C463.845,0,435.204,28.641,435.204,64.001C435.204,64.001,435.204,64.001,435.204,64.001M501.638,192.741C458.885,192.741,418.756,209.381,388.515,239.622C358.274,269.862,341.634,309.991,341.634,352.744C341.634,395.497,358.274,435.626,388.515,465.867C388.515,465.867,602.536,679.888,602.536,679.888C626.761,704.08,640.009,736.209,640.009,770.386C640.009,804.563,626.761,836.692,602.504,860.884C552.615,910.805,471.429,910.901,421.572,860.884C397.315,836.692,384.003,804.595,384.003,770.386C384.003,770.386,256,770.386,256,770.386C256,838.772,282.689,903.093,331.138,951.478C427.78,1048.217,596.264,1048.153,693.034,951.414C741.387,903.125,768.012,838.836,768.012,770.386C768.012,702,741.387,637.743,693.002,589.39C693.002,589.39,479.013,375.369,479.013,375.369C466.565,362.857,466.565,342.632,479.013,330.12C491.526,317.607,511.75,317.607,524.262,330.12C532.39,338.248,533.639,347.88,533.639,352.744C533.639,352.744,661.642,352.744,661.642,352.744C661.642,309.991,645.001,269.862,614.76,239.622C584.52,209.381,544.391,192.741,501.638,192.741C501.638,192.741,501.638,192.741,501.638,192.741C501.638,192.741,501.638,192.741,501.638,192.741" /><glyph unicode="&#x0054;" d="M1024,768C1024,909.312,909.248,1024,768,1024C672.512,1024,590.016,970.944,545.984,893.248C545.984,893.312,546.112,893.376,546.112,893.44C534.368,894.56,522.976,896.992,510.976,896.992C298.848,896.992,126.976,725.12,126.976,512.992C126.976,432.128,152.224,357.248,194.848,295.488C194.848,295.488,0,0,0,0C0,0,297.248,193.984,297.248,193.984C358.368,152.992,431.872,128.992,511.008,128.992C723.136,128.992,895.008,300.864,895.008,512.992C895.008,524.064,892.768,534.432,891.744,545.248C970.24,588.992,1024,671.808,1024,768C1024,768,1024,768,1024,768M511.008,256.992C369.76,256.992,255.008,371.744,255.008,512.992C255.008,654.176,369.76,768.992,511.008,768.992C511.392,768.992,511.744,768.864,512,768.864C512,769.12,512.128,769.312,512.128,769.504C512.128,768.992,512,768.512,512,768C512,745.76,515.744,724.64,520.992,704.064C520.992,704.064,419.488,602.496,419.488,602.496C369.504,552.512,369.504,471.488,419.488,421.504C469.472,371.52,550.496,371.52,600.48,421.504C600.48,421.504,700.992,522.016,700.992,522.016C722.112,516.256,744,512.256,766.88,512.128C766.368,371.264,651.872,256.992,511.008,256.992C511.008,256.992,511.008,256.992,511.008,256.992M768,640C697.504,640,640,697.44,640,768C640,838.56,697.504,896,768,896C838.496,896,896,838.56,896,768C896,697.44,838.496,640,768,640C768,640,768,640,768,640" /><glyph unicode="&#x0055;" d="M896,1024C896,1024,384,1024,384,1024C242.624,1024,128,909.376,128,768C128,626.624,242.624,512,384,512C384,512,384,0,384,0C384,0,512,0,512,0C512,0,512,896,512,896C512,896,640,896,640,896C640,896,640,0,640,0C640,0,768,0,768,0C768,0,768,896,768,896C768,896,896,896,896,896C896,896,896,1024,896,1024C896,1024,896,1024,896,1024" /><glyph unicode="&#x0056;" d="M302.542,869.426C286.399,884.636,267.602,896.689,246.294,905.585C224.7,914.266,201.742,918.786,177.349,918.786C152.884,918.786,129.854,914.266,108.403,905.585C87.095,896.689,68.298,884.636,52.156,869.426C36.085,854.073,23.458,836.137,14.203,815.403C5.02,794.741,0.5,772.931,0.5,750.045C0.5,727.087,5.092,705.205,14.203,684.542C23.458,663.88,36.085,645.872,52.156,630.663C68.298,615.31,87.095,603.185,108.403,594.504C129.854,585.608,152.884,581.231,177.349,581.231C201.742,581.231,224.7,585.608,246.294,594.504C267.602,603.185,286.399,615.31,302.542,630.663C318.612,645.872,331.239,663.952,340.279,684.542C349.462,705.205,354.197,727.015,354.197,750.045C354.197,772.931,349.462,794.813,340.279,815.403C331.239,836.137,318.612,854.073,302.542,869.426C302.542,869.426,302.542,869.426,302.542,869.426M233.668,696.021C218.243,680.668,199.446,673.063,177.349,673.063C155.251,673.063,136.455,680.74,121.03,696.021C105.82,711.375,98.072,729.311,98.072,750.045C98.072,771.352,105.82,789.647,121.03,804.498C136.455,819.421,155.251,826.81,177.349,826.81C199.446,826.81,218.243,819.421,233.668,804.498C248.805,789.647,256.554,771.352,256.554,750.045C256.554,729.311,248.805,711.375,233.668,696.021C233.668,696.021,233.668,696.021,233.668,696.021M867.883,262.186C840.692,254.438,813.717,250.636,786.884,250.636C769.235,250.636,751.873,253.362,734.655,258.671C717.365,264.123,701.653,272.517,687.591,283.996C673.386,295.476,661.907,310.183,653.226,328.191C644.473,346.127,639.953,368.152,639.953,394.123C639.953,394.123,639.953,624.852,639.953,624.852C639.953,650.823,644.401,673.063,653.226,691.43C661.907,709.725,673.242,724.719,687.017,736.198C700.863,747.677,716.36,755.928,734.081,760.878C751.658,765.828,769.235,768.339,786.884,768.339C813.717,768.339,841.266,764.393,869.533,756.286C897.872,748.251,924.202,733.902,948.738,713.24C948.738,713.24,1024.5,834.989,1024.5,834.989C993.794,861.678,957.348,881.264,914.732,893.532C872.331,905.657,828.209,911.827,782.293,911.827C744.842,911.827,707.966,906.446,672.094,895.756C636.151,884.995,604.153,868.924,576.244,847.544C548.408,826.021,525.737,799.548,508.59,767.765C491.228,735.983,482.619,699.035,482.619,656.993C482.619,656.993,482.619,360.834,482.619,360.834C482.619,317.931,491.515,280.696,509.164,248.914C526.741,217.131,549.699,190.729,577.895,169.709C606.305,148.616,638.303,132.832,674.318,122.071C710.405,111.453,747.067,106,784.66,106C831.294,106,875.56,112.887,917.745,126.662C959.787,140.509,995.372,159.664,1024.5,183.986C1024.5,183.986,949.886,305.735,949.886,305.735C922.408,284.283,894.931,269.791,867.883,262.186C867.883,262.186,867.883,262.186,867.883,262.186" /><glyph unicode="&#x0057;" d="M300.358,863.181C284.306,878.306,265.614,890.291,244.424,899.138C222.95,907.771,200.12,912.265,175.863,912.265C151.535,912.265,128.633,907.771,107.301,899.138C86.112,890.291,67.42,878.306,51.368,863.181C35.387,847.984,22.83,830.148,13.627,809.459C4.495,788.912,0,767.223,0,744.393C0,721.563,4.566,699.803,13.627,679.256C22.83,658.709,35.387,640.802,51.368,625.677C67.42,610.48,86.112,598.352,107.301,589.719C128.633,580.873,151.535,576.521,175.863,576.521C200.12,576.521,222.95,580.873,244.424,589.719C265.614,598.352,284.306,610.409,300.358,625.677C316.339,640.802,328.896,658.78,337.885,679.256C347.017,699.803,351.726,721.492,351.726,744.393C351.726,767.152,347.017,788.912,337.885,809.459C328.896,830.077,316.339,847.913,300.358,863.181C300.358,863.181,300.358,863.181,300.358,863.181M231.939,690.742C216.6,675.475,197.908,667.912,175.934,667.912C153.96,667.912,135.268,675.546,119.929,690.742C104.804,705.939,97.099,723.775,97.099,744.464C97.099,765.653,104.804,783.846,119.929,798.614C135.268,813.454,153.96,820.802,175.934,820.802C197.908,820.802,216.6,813.454,231.939,798.614C246.993,783.846,254.698,765.653,254.698,744.464C254.698,723.846,246.993,706.01,231.939,690.742C231.939,690.742,231.939,690.742,231.939,690.742M1024,758.091C1024,758.091,1024,898.567,1024,898.567C1024,898.567,481.857,898.567,481.857,898.567C481.857,898.567,481.857,112,481.857,112C481.857,112,638.172,112,638.172,112C638.172,112,638.172,432.762,638.172,432.762C638.172,432.762,968.066,432.762,968.066,432.762C968.066,432.762,968.066,573.096,968.066,573.096C968.066,573.096,638.172,573.096,638.172,573.096C638.172,573.096,638.172,758.02,638.172,758.02C638.172,758.02,1023.929,758.02,1023.929,758.02C1023.929,758.02,1024,758.091,1024,758.091" /><glyph unicode="&#x0058;" d="M870.176,538.648C879.936,545.912,889.792,553.016,898.624,561.848C925.056,588.312,945.152,620.504,958.208,657.56C962.368,669.144,959.424,682.136,950.656,690.808C941.952,699.544,929.024,702.52,917.408,698.392C846.624,673.4,770.048,690.392,717.6,742.904C665.088,795.416,648.032,871.96,673.088,942.712C677.184,954.328,674.24,967.256,665.504,975.992C656.832,984.664,643.872,987.672,632.256,983.576C595.168,970.424,563.008,950.328,536.576,923.928C469.504,856.92,448.608,761.912,471.616,676.344C385.12,665.304,307.36,619.352,255.584,548.76C245.12,550.264,234.624,551,224,551C100.512,551,0,450.488,0,327C0,203.512,100.512,103,224,103C251.392,103,278.176,107.992,303.424,117.656C361.344,67.16,435.008,39,512,39C589.088,39,662.656,67.16,720.576,117.656C745.824,107.992,772.608,103,800,103C923.488,103,1024,203.512,1024,327C1024,425.88,959.168,509.048,870.112,538.68C870.112,538.68,870.176,538.648,870.176,538.648M581.888,878.648C586.976,883.8,592.416,888.6,598.176,893.112C593.664,821.144,619.648,750.36,672.384,697.656C725.12,644.92,795.936,619,867.872,623.448C840.288,588.28,802.272,566.392,761.632,557.08C706.88,626.584,626.432,670.328,537.728,677.464C513.184,745.368,527.552,824.344,581.888,878.68C581.888,878.68,581.888,878.648,581.888,878.648M800.064,166.968C765.824,166.968,734.24,177.976,708.192,196.312C661.248,139.736,591.328,102.968,512.064,102.968C432.8,102.968,362.88,139.704,315.936,196.312C289.92,177.976,258.304,166.968,224.064,166.968C135.68,166.968,64.064,238.584,64.064,326.968C64.064,415.352,135.68,486.968,224.064,486.968C245.696,486.968,266.176,482.584,284.928,474.84C325.312,553.56,404.416,608.632,497.568,613.912C502.432,614.2,507.2,614.968,512.064,614.968C537.888,614.968,562.688,610.936,586.08,603.8C617.664,594.136,646.464,578.392,671.456,558.104C695.328,538.744,715.328,514.968,731.072,488.312C733.728,483.8,736.736,479.576,739.168,474.84C757.952,482.584,778.496,486.968,800.096,486.968C888.48,486.968,960.096,415.352,960.096,326.968C960.096,238.584,888.48,166.968,800.096,166.968C800.096,166.968,800.064,166.968,800.064,166.968" /><glyph unicode="&#x0059;" d="M1024.436,754.344C1024.436,852.645,944.439,932.579,846.106,932.579C841.306,932.579,836.57,932.419,831.802,932.035C785.563,989.697,715.838,1024,640.448,1024C565.09,1024,495.333,989.697,449.094,932.035C444.358,932.419,439.558,932.579,434.726,932.579C336.49,932.579,256.492,852.613,256.492,754.344C256.492,744.041,257.868,734.089,259.5,724.265C258.412,722.857,257.132,721.545,256.076,720.105C245.612,721.609,235.117,722.345,224.493,722.345C101.009,722.345,0.5,621.837,0.5,498.352C0.5,374.868,101.009,274.359,224.493,274.359C251.884,274.359,278.667,279.351,303.915,289.015C340.617,257.016,384.136,235.129,430.311,222.585C430.311,222.585,384.488,191.994,384.488,191.994C384.488,191.994,448.486,127.996,448.486,127.996C448.486,127.996,384.488,0,384.488,0C384.488,0,576.482,127.996,576.482,127.996C576.482,127.996,512.484,191.994,512.484,191.994C512.484,191.994,522.116,211.161,522.116,211.161C595.617,213.401,665.599,240.632,721.053,288.983C746.301,279.319,773.084,274.327,800.475,274.327C923.959,274.327,1024.468,374.836,1024.468,498.32C1024.468,549.647,1006.389,596.493,977.141,634.316C1006.293,666.059,1024.468,707.946,1024.468,754.312C1024.468,754.312,1024.436,754.344,1024.436,754.344M800.443,338.357C766.204,338.357,734.621,349.365,708.574,367.637C670.559,321.846,617.089,290.167,556.131,279.383C556.131,279.383,508.58,274.743,508.58,274.743C430.951,275.991,362.473,311.99,316.33,367.605C290.315,349.301,258.7,338.325,224.461,338.325C136.08,338.325,64.466,409.907,64.466,498.32C64.466,586.638,136.08,658.315,224.461,658.315C246.092,658.315,266.572,653.9,285.323,646.156C286.443,648.332,287.819,650.156,288.939,652.236C300.203,672.779,314.058,691.562,330.282,708.33C376.456,756.104,440.614,786.343,512.452,786.343C611.873,786.343,697.118,729.001,739.517,646.188C750.813,650.86,762.844,653.868,775.26,655.852C775.26,655.852,800.443,658.347,800.443,658.347C825.114,658.347,848.186,652.268,869.081,642.348C891.704,631.5,911.128,615.597,926.359,595.949C947.35,568.91,960.438,535.279,960.438,498.352C960.438,409.939,888.824,338.357,800.443,338.357C800.443,338.357,800.443,338.357,800.443,338.357M931.575,679.083C894.616,705.962,849.561,722.345,800.443,722.345C789.819,722.345,779.324,721.609,768.86,720.105C709.118,801.479,614.817,850.341,512.452,850.341C444.198,850.341,379.816,828.23,326.57,789.639C341.513,835.334,384.04,868.581,434.694,868.581C450.182,868.581,464.805,865.445,478.181,859.909C508.548,919.075,569.442,960.002,640.416,960.002C711.39,960.002,772.316,919.075,802.587,859.909C816.059,865.445,830.746,868.581,846.074,868.581C909.24,868.581,960.406,817.414,960.406,754.344C960.406,725.353,949.27,699.21,931.543,679.083C931.543,679.083,931.575,679.083,931.575,679.083" /><glyph unicode="&#x005a;" d="M870.176,538.68C879.936,545.944,889.792,553.048,898.624,561.88C925.056,588.344,945.152,620.536,958.208,657.592C962.368,669.176,959.424,682.168,950.656,690.84C941.952,699.576,929.024,702.552,917.408,698.424C846.624,673.432,770.048,690.424,717.6,742.936C665.088,795.448,648.032,871.992,673.088,942.744C677.184,954.36,674.24,967.288,665.504,976.024C656.832,984.696,643.872,987.704,632.256,983.608C595.168,970.456,563.008,950.36,536.576,923.928C469.504,856.92,448.608,761.912,471.616,676.344C385.12,665.304,307.36,619.352,255.584,548.76C245.12,550.264,234.624,551,224,551C100.512,551,0,450.488,0,327C0,203.512,100.512,103,224,103C251.392,103,278.176,107.992,303.424,117.656C361.344,67.16,435.008,39,512,39C589.088,39,662.656,67.16,720.576,117.656C745.824,107.992,772.608,103,800,103C923.488,103,1024,203.512,1024,327C1024,425.88,959.168,509.048,870.112,538.68C870.112,538.68,870.176,538.68,870.176,538.68M581.888,878.68C586.976,883.832,592.416,888.632,598.176,893.144C593.664,821.176,619.648,750.392,672.384,697.688C725.12,644.952,795.936,619.032,867.872,623.48C840.288,588.312,802.272,566.424,761.632,557.112C706.88,626.616,626.432,670.36,537.728,677.496C513.184,745.4,527.552,824.376,581.888,878.712C581.888,878.712,581.888,878.68,581.888,878.68" /><glyph unicode="&#x0061;" d="M800,704C789.376,704,778.88,703.264,768.416,701.76C708.672,783.168,614.368,832,512,832C409.632,832,315.36,783.168,255.584,701.76C245.12,703.264,234.624,704,224,704C100.512,704,0,603.488,0,480C0,356.512,100.512,256,224,256C251.392,256,278.176,260.992,303.424,270.656C361.344,220.16,435.008,192,512,192C589.088,192,662.656,220.16,720.576,270.656C745.824,260.992,772.608,256,800,256C923.488,256,1024,356.512,1024,480C1024,603.488,923.488,704,800,704C800,704,800,704,800,704" /><glyph unicode="&#x0062;" d="M416,896.468C433.664,896.468,448,910.804,448,928.468C448,928.468,448,992.468,448,992.468C448,1010.132,433.664,1024.468,416,1024.468C398.336,1024.468,384,1010.132,384,992.468C384,992.468,384,928.468,384,928.468C384,910.804,398.336,896.468,416,896.468C416,896.468,416,896.468,416,896.468M664.864,812.148C664.864,812.148,710.112,857.396,710.112,857.396C722.624,869.908,722.624,890.132,710.112,902.644C697.6,915.156,677.376,915.156,664.864,902.644C664.864,902.644,619.616,857.396,619.616,857.396C607.104,844.884,607.104,824.66,619.616,812.148C632.128,799.636,652.352,799.636,664.864,812.148C664.864,812.148,664.864,812.148,664.864,812.148M32,576.468C32,576.468,96,576.468,96,576.468C113.664,576.468,128,590.804,128,608.468C128,626.132,113.664,640.468,96,640.468C96,640.468,32,640.468,32,640.468C14.336,640.468,0,626.132,0,608.468C0,590.804,14.336,576.468,32,576.468C32,576.468,32,576.468,32,576.468M704,608.468C704,590.804,718.336,576.468,736,576.468C736,576.468,800,576.468,800,576.468C817.664,576.468,832,590.804,832,608.468C832,626.132,817.664,640.468,800,640.468C800,640.468,736,640.468,736,640.468C718.336,640.468,704,626.132,704,608.468C704,608.468,704,608.468,704,608.468M167.072,812.148C179.584,799.636,199.84,799.636,212.32,812.148C224.832,824.66,224.832,844.884,212.32,857.396C212.32,857.396,167.072,902.644,167.072,902.644C154.56,915.156,134.336,915.156,121.824,902.644C109.312,890.132,109.312,869.908,121.824,857.396C121.824,857.396,167.072,812.148,167.072,812.148C167.072,812.148,167.072,812.148,167.072,812.148M800,512.468C789.376,512.468,778.88,511.732,768.416,510.228C734.88,555.988,690.176,590.9,639.488,613.236C636.896,734.484,537.856,832.5,416,832.5C292.512,832.5,192,731.988,192,608.5C192,573.62,200.672,541.012,215.008,511.636C95.744,506.772,0,408.884,0,288.5C0,165.012,100.512,64.5,224,64.5C251.392,64.5,278.176,69.492,303.424,79.156C361.344,28.66,435.008,0.5,512,0.5C589.088,0.5,662.656,28.66,720.576,79.156C745.824,69.492,772.608,64.5,800,64.5C923.488,64.5,1024,165.012,1024,288.5C1024,411.988,923.488,512.5,800,512.5C800,512.5,800,512.468,800,512.468M416,768.468C495.616,768.468,561.12,710.132,573.408,633.972C553.376,637.972,532.896,640.468,512,640.468C420.128,640.468,335.008,600.852,275.264,533.972C263.392,556.308,256,581.396,256,608.468C256,696.852,327.616,768.468,416,768.468C416,768.468,416,768.468,416,768.468M800,128.468C765.76,128.468,734.176,139.476,708.128,157.812C661.184,101.236,591.264,64.468,512,64.468C432.736,64.468,362.816,101.204,315.872,157.812C289.856,139.476,258.24,128.468,224,128.468C135.616,128.468,64,200.084,64,288.468C64,376.852,135.616,448.468,224,448.468C239.488,448.468,254.112,445.556,268.256,441.396C273.888,439.828,279.584,438.548,284.896,436.34C293.632,453.46,304.64,469.14,316.864,483.828C363.616,540.084,433.152,576.468,512.032,576.468C532.288,576.468,551.712,573.556,570.528,569.044C591.648,564.052,611.616,556.468,630.208,546.452C676.8,521.716,715.04,483.38,739.136,436.34C757.92,444.084,778.464,448.468,800.064,448.468C888.448,448.468,960.064,376.852,960.064,288.468C960.064,200.084,888.448,128.468,800.064,128.468C800.064,128.468,800,128.468,800,128.468" /><glyph unicode="&#x0063;" d="M1023.968,649.5C1023.968,747.836,943.968,827.804,845.632,827.804C840.832,827.804,836.096,827.58,831.328,827.228C785.088,884.924,715.36,919.196,639.968,919.196C564.608,919.196,494.848,884.956,448.608,827.228C443.872,827.612,439.072,827.804,434.24,827.804C336,827.804,256,747.836,256,649.5C256,639.196,257.376,629.308,259.008,619.42C257.92,618.012,256.64,616.7,255.584,615.26C245.12,616.764,234.624,617.5,224,617.5C100.512,617.5,0,516.988,0,393.5C0,270.012,100.512,169.5,224,169.5C251.392,169.5,278.176,174.492,303.424,184.156C361.344,133.66,435.008,105.5,512,105.5C589.088,105.5,662.656,133.66,720.576,184.156C745.824,174.492,772.608,169.5,800,169.5C923.488,169.5,1024,270.012,1024,393.5C1024,444.86,1005.92,491.676,976.672,529.5C1005.824,561.308,1024,603.164,1024,649.5C1024,649.5,1023.968,649.5,1023.968,649.5M799.968,233.5C765.728,233.5,734.144,244.508,708.096,262.844C661.152,206.268,591.232,169.5,511.968,169.5C432.704,169.5,362.784,206.236,315.84,262.844C289.824,244.508,258.208,233.5,223.968,233.5C135.584,233.5,63.968,305.116,63.968,393.5C63.968,481.884,135.584,553.5,223.968,553.5C245.6,553.5,266.08,549.116,284.832,541.372C285.952,543.484,287.328,545.372,288.448,547.42C299.712,567.964,313.568,586.78,329.792,603.516C375.968,651.356,440.128,681.532,511.968,681.532C611.392,681.532,696.64,624.188,739.04,541.404C750.336,546.044,762.368,549.02,774.784,551.036C774.784,551.036,799.968,553.532,799.968,553.532C824.64,553.532,847.712,547.452,868.608,537.532C891.232,526.716,910.656,510.78,925.888,491.164C946.88,464.124,959.968,430.46,959.968,393.532C959.968,305.148,888.352,233.532,799.968,233.532C799.968,233.532,799.968,233.5,799.968,233.5M931.104,574.236C894.144,601.148,849.088,617.5,799.968,617.5C789.344,617.5,778.848,616.764,768.384,615.26C708.64,696.668,614.336,745.5,511.968,745.5C443.712,745.5,379.328,723.42,326.08,684.828C341.024,730.524,383.552,763.772,434.208,763.772C449.696,763.772,464.32,760.636,477.696,755.1C508.064,814.236,568.96,855.132,639.936,855.132C710.912,855.132,771.84,814.204,802.112,755.1C815.584,760.636,830.272,763.772,845.6,763.772C908.768,763.772,959.936,712.604,959.936,649.468C959.936,620.508,948.8,594.396,931.072,574.236C931.072,574.236,931.104,574.236,931.104,574.236" /><glyph unicode="&#x0064;" d="M800,896C789.376,896,778.88,895.264,768.416,893.76C708.672,975.168,614.368,1024,512,1024C409.632,1024,315.36,975.168,255.584,893.76C245.12,895.264,234.624,896,224,896C100.512,896,0,795.488,0,672C0,548.512,100.512,448,224,448C251.392,448,278.176,452.992,303.424,462.656C361.344,412.16,435.008,384,512,384C589.088,384,662.656,412.16,720.576,462.656C745.824,452.992,772.608,448,800,448C923.488,448,1024,548.512,1024,672C1024,795.488,923.488,896,800,896C800,896,800,896,800,896M192,384C156.608,384,128,355.36,128,320C128,284.64,156.608,256,192,256C227.392,256,256,284.64,256,320C256,355.36,227.392,384,192,384C192,384,192,384,192,384M512,320C476.64,320,448,291.36,448,256C448,220.64,476.64,192,512,192C547.36,192,576,220.64,576,256C576,291.36,547.36,320,512,320C512,320,512,320,512,320M832,384C796.64,384,768,355.36,768,320C768,284.64,796.64,256,832,256C867.36,256,896,284.64,896,320C896,355.36,867.36,384,832,384C832,384,832,384,832,384M704,128C668.64,128,640,99.36,640,64C640,28.64,668.64,0,704,0C739.36,0,768,28.64,768,64C768,99.36,739.36,128,704,128C704,128,704,128,704,128M320,128C284.64,128,256,99.36,256,64C256,28.64,284.64,0,320,0C355.36,0,384,28.64,384,64C384,99.36,355.36,128,320,128C320,128,320,128,320,128" /><glyph unicode="&#x0065;" d="M416,896.468C433.664,896.468,448,910.804,448,928.468C448,928.468,448,992.468,448,992.468C448,1010.132,433.664,1024.468,416,1024.468C398.336,1024.468,384,1010.132,384,992.468C384,992.468,384,928.468,384,928.468C384,910.804,398.336,896.468,416,896.468C416,896.468,416,896.468,416,896.468M664.864,812.148C664.864,812.148,710.112,857.396,710.112,857.396C722.624,869.908,722.624,890.132,710.112,902.644C697.6,915.156,677.376,915.156,664.864,902.644C664.864,902.644,619.616,857.396,619.616,857.396C607.104,844.884,607.104,824.66,619.616,812.148C632.128,799.636,652.352,799.636,664.864,812.148C664.864,812.148,664.864,812.148,664.864,812.148M32,576.468C32,576.468,96,576.468,96,576.468C113.664,576.468,128,590.804,128,608.468C128,626.132,113.664,640.468,96,640.468C96,640.468,32,640.468,32,640.468C14.336,640.468,0,626.132,0,608.468C0,590.804,14.336,576.468,32,576.468C32,576.468,32,576.468,32,576.468M704,608.468C704,590.804,718.336,576.468,736,576.468C736,576.468,800,576.468,800,576.468C817.664,576.468,832,590.804,832,608.468C832,626.132,817.664,640.468,800,640.468C800,640.468,736,640.468,736,640.468C718.336,640.468,704,626.132,704,608.468C704,608.468,704,608.468,704,608.468M167.072,812.148C179.584,799.636,199.84,799.636,212.32,812.148C224.832,824.66,224.832,844.884,212.32,857.396C212.32,857.396,167.072,902.644,167.072,902.644C154.56,915.156,134.336,915.156,121.824,902.644C109.312,890.132,109.312,869.908,121.824,857.396C121.824,857.396,167.072,812.148,167.072,812.148C167.072,812.148,167.072,812.148,167.072,812.148M800,512.468C789.376,512.468,778.88,511.732,768.416,510.228C734.88,555.988,690.176,590.9,639.488,613.236C636.896,734.484,537.856,832.5,416,832.5C292.512,832.5,192,731.988,192,608.5C192,573.62,200.672,541.012,215.008,511.636C95.744,506.772,0,408.884,0,288.5C0,165.012,100.512,64.5,224,64.5C251.392,64.5,278.176,69.492,303.424,79.156C361.344,28.66,435.008,0.5,512,0.5C589.088,0.5,662.656,28.66,720.576,79.156C745.824,69.492,772.608,64.5,800,64.5C923.488,64.5,1024,165.012,1024,288.5C1024,411.988,923.488,512.5,800,512.5C800,512.5,800,512.468,800,512.468M512,640.468C420.128,640.468,335.008,600.852,275.264,533.972C263.392,556.308,256,581.396,256,608.468C256,696.852,327.616,768.468,416,768.468C495.616,768.468,561.12,710.132,573.408,633.972C553.376,637.972,532.896,640.468,512,640.468C512,640.468,512,640.468,512,640.468" /><glyph unicode="&#x0066;" d="M475.108,475.108C326.522,623.77,286.623,838.579,352.468,1024.5C280.589,999.082,212.631,959.258,155.158,901.86C-51.053,695.649,-51.053,361.293,155.158,155.158C361.293,-50.977,695.499,-51.128,901.709,155.158C959.333,212.631,999.007,280.589,1024.349,352.468C838.579,286.698,623.694,326.522,475.033,475.108C475.033,475.108,475.108,475.108,475.108,475.108" /><glyph unicode="&#x0067;" d="M898.212,153.86C693.263,-51.287,359.506,-51.287,154.36,153.86C-50.787,359.006,-50.787,692.698,154.36,897.778C208.671,951.958,274.817,993.316,350.893,1020.274C374.892,1028.69,401.39,1022.575,419.209,1004.691C437.225,986.741,443.274,960.177,434.792,936.374C383.242,790.997,418.354,633.652,526.253,525.753C633.955,417.986,791.3,382.94,936.874,434.292C960.677,442.774,987.306,436.659,1005.191,418.709C1023.141,400.89,1029.19,374.26,1020.708,350.393C993.881,274.317,952.458,208.105,898.212,153.86C898.212,153.86,898.212,153.86,898.212,153.86M247.333,804.805C93.473,650.945,93.473,400.627,247.333,246.833C411.713,82.387,691.685,97.181,834.959,280.367C687.214,271.096,541.639,324.486,433.28,432.78C324.92,541.073,271.661,686.648,280.867,834.393C269.031,825.122,257.853,815.325,247.333,804.739C247.333,804.739,247.333,804.805,247.333,804.805" /><glyph unicode="&#x0068;" d="M905.846,709.385C840.625,709.385,787.692,656.452,787.692,591.231C787.692,577.328,790.567,564.252,794.939,551.846C794.939,551.846,39.385,551.846,39.385,551.846C17.644,551.846,0,534.202,0,512.462C0,490.721,17.644,473.077,39.385,473.077C39.385,473.077,905.846,473.077,905.846,473.077C971.067,473.077,1024,526.01,1024,591.231C1024,656.452,971.067,709.385,905.846,709.385C905.846,709.385,905.846,709.385,905.846,709.385M39.385,630.615C39.385,630.615,512,630.615,512,630.615C577.221,630.615,630.154,683.548,630.154,748.769C630.154,813.99,577.221,866.923,512,866.923C446.779,866.923,393.846,813.99,393.846,748.769C393.846,734.866,396.721,721.791,401.093,709.385C401.093,709.385,39.385,709.385,39.385,709.385C17.644,709.385,0,691.74,0,670C0,648.26,17.644,630.615,39.385,630.615C39.385,630.615,39.385,630.615,39.385,630.615M669.538,394.308C667.215,394.308,665.009,393.796,662.686,393.599C661.15,393.717,659.85,394.308,658.314,394.308C658.314,394.308,50.688,394.308,50.688,394.308C22.686,394.308,0,376.663,0,354.923C0,333.183,22.686,315.538,50.688,315.538C50.688,315.538,558.631,315.538,558.631,315.538C554.26,303.132,551.385,290.017,551.385,276.154C551.385,210.933,604.318,158,669.538,158C734.759,158,787.692,210.933,787.692,276.154C787.692,341.375,734.759,394.308,669.538,394.308C669.538,394.308,669.538,394.308,669.538,394.308" /><glyph unicode="&#x0069;" d="M512,651.707C434.917,651.707,372.357,589.147,372.357,512.064C372.357,434.981,434.917,372.421,512,372.421C589.083,372.421,651.643,434.981,651.643,512.064C651.643,589.147,589.083,651.707,512,651.707C512,651.707,512,651.707,512,651.707M941.681,634.67C926.564,639.558,912.914,647.343,901.219,657.607C882.402,622.975,859.222,587.471,834.226,551.862C795.37,601.819,750.998,652.23,701.53,701.699C652.411,750.818,601.825,795.364,551.379,834.534C671.332,919.053,786.642,969.952,868.682,969.952C902.022,969.952,927.507,961.33,944.473,944.398C962.906,925.965,971.041,897.024,969.609,860.333C972.262,860.508,974.741,861.171,977.429,861.171C990.835,861.171,1003.577,858.413,1015.552,854.293C1018.449,906.485,1006.056,948.657,977.394,977.354C951.386,1003.362,914.834,1016.558,868.717,1016.558C773.621,1016.558,644.73,959.828,512.07,864.033C379.409,959.828,250.519,1016.628,155.422,1016.628C145.543,1016.628,136.291,1015.685,127.319,1014.498C140.027,1002.21,149.627,987.024,155.702,970.057C237.777,969.952,352.982,919.088,472.83,834.604C422.28,795.329,371.624,750.783,322.575,701.664C273.7,652.754,229.154,602.064,189.635,551.129C149.837,607.51,117.021,663.402,93.526,716.501C77.432,752.773,66.679,786.043,60.395,816.101C55.787,815.508,51.319,814.67,46.571,814.67C34.562,814.67,23.216,817.044,12.323,820.395C18.572,783.355,31.175,742.3,51.005,697.614C77.397,637.987,114.542,575.113,160.17,511.994C114.612,448.98,77.537,386.071,51.109,326.514C-5.167,199.579,-6.668,100.258,46.885,46.705C72.893,20.696,109.445,7.5,155.562,7.5C296.147,7.5,510.534,131.119,701.809,322.499C750.824,371.549,795.405,422.378,834.889,473.453C963.814,291.254,1000.784,135.971,944.508,79.695C927.577,62.764,902.057,54.141,868.717,54.141C824.835,54.141,771.212,68.943,712.597,95.44C706.418,80.533,697.236,67.337,685.82,56.235C753.687,24.816,816.351,7.605,868.717,7.605C914.834,7.605,951.386,20.766,977.394,46.809C1058.282,127.697,1007.243,313.562,863.411,512.797C892.98,553.817,919.966,594.767,941.75,634.74C941.75,634.74,941.681,634.67,941.681,634.67M155.492,54.001C122.152,54.001,96.668,62.624,79.701,79.556C41.299,117.957,46.326,201.045,93.561,307.557C117.056,360.622,149.837,416.444,189.53,472.79C229.049,421.925,273.56,371.234,322.365,322.429C371.764,273.031,422.629,229.288,473.459,189.943C353.226,105.04,237.602,53.966,155.457,53.966C155.457,53.966,155.492,54.001,155.492,54.001M668.819,355.35C617.884,304.415,564.925,258.438,512.244,218.395C459.425,258.508,406.395,304.38,355.321,355.35C304.386,406.285,258.548,459.105,218.331,511.924C258.548,564.849,304.526,617.739,355.461,668.708C406.325,719.643,459.355,765.62,512.105,805.733C564.785,765.655,617.779,719.678,668.644,668.778C721.534,615.888,767.057,563.348,806.053,512.378C765.836,459.314,719.893,406.389,668.819,355.315C668.819,355.315,668.819,355.35,668.819,355.35M977.464,791.349C951.735,791.349,930.928,770.543,930.928,744.814C930.928,719.084,951.735,698.278,977.464,698.278C1003.193,698.278,1024,719.084,1024,744.814C1024,770.543,1003.193,791.349,977.464,791.349C977.464,791.349,977.464,791.349,977.464,791.349M605.107,186.243C579.378,186.243,558.571,165.436,558.571,139.707C558.571,113.978,579.378,93.171,605.107,93.171C630.836,93.171,651.643,113.978,651.643,139.707C651.643,165.436,630.836,186.243,605.107,186.243C605.107,186.243,605.107,186.243,605.107,186.243M46.536,884.456C72.265,884.456,93.072,905.263,93.072,930.992C93.072,956.721,72.265,977.528,46.536,977.528C20.807,977.528,0,956.721,0,930.992C0,905.263,20.807,884.456,46.536,884.456C46.536,884.456,46.536,884.456,46.536,884.456" /><glyph unicode="&#x006a;" d="M981.312,85.344C981.312,85.344,981.312,128,981.312,128C981.312,128,938.656,128,938.656,128C938.656,128,938.656,85.344,938.656,85.344C938.656,85.344,896,85.344,896,85.344C896,85.344,896,512,896,512C896,512,682.656,512,682.656,512C682.656,512,682.656,85.344,682.656,85.344C682.656,85.344,640,85.344,640,85.344C640,85.344,640,938.688,640,938.688C640,938.688,426.656,938.688,426.656,938.688C426.656,938.688,426.656,85.344,426.656,85.344C426.656,85.344,384,85.344,384,85.344C384,85.344,384,597.344,384,597.344C384,597.344,341.344,597.344,341.344,597.344C341.344,597.344,341.344,640,341.344,640C341.344,640,298.688,640,298.688,640C298.688,640,298.688,597.344,298.688,597.344C298.688,597.344,213.344,597.344,213.344,597.344C213.344,597.344,213.344,640,213.344,640C213.344,640,170.688,640,170.688,640C170.688,640,170.688,85.344,170.688,85.344C170.688,85.344,85.344,85.344,85.344,85.344C85.344,85.344,85.344,1024,85.344,1024C85.344,1024,0,1024,0,1024C0,1024,0,0,0,0C0,0,1024,0,1024,0C1024,0,1024,85.344,1024,85.344C1024,85.344,981.344,85.344,981.344,85.344C981.344,85.344,981.312,85.344,981.312,85.344M298.624,85.344C298.624,85.344,255.968,85.344,255.968,85.344C255.968,85.344,255.968,512,255.968,512C255.968,512,298.624,512,298.624,512C298.624,512,298.624,85.344,298.624,85.344C298.624,85.344,298.624,85.344,298.624,85.344M554.624,85.344C554.624,85.344,511.968,85.344,511.968,85.344C511.968,85.344,511.968,853.344,511.968,853.344C511.968,853.344,554.624,853.344,554.624,853.344C554.624,853.344,554.624,85.344,554.624,85.344C554.624,85.344,554.624,85.344,554.624,85.344M810.624,85.344C810.624,85.344,767.968,85.344,767.968,85.344C767.968,85.344,767.968,426.688,767.968,426.688C767.968,426.688,810.624,426.688,810.624,426.688C810.624,426.688,810.624,85.344,810.624,85.344C810.624,85.344,810.624,85.344,810.624,85.344M170.624,1024C170.624,1024,213.28,1024,213.28,1024C213.28,1024,213.28,981.344,213.28,981.344C213.28,981.344,170.624,981.344,170.624,981.344C170.624,981.344,170.624,1024,170.624,1024M298.624,1024C298.624,1024,341.28,1024,341.28,1024C341.28,1024,341.28,981.344,341.28,981.344C341.28,981.344,298.624,981.344,298.624,981.344C298.624,981.344,298.624,1024,298.624,1024M426.624,1024C426.624,1024,469.28,1024,469.28,1024C469.28,1024,469.28,981.344,469.28,981.344C469.28,981.344,426.624,981.344,426.624,981.344C426.624,981.344,426.624,1024,426.624,1024M554.624,1024C554.624,1024,597.28,1024,597.28,1024C597.28,1024,597.28,981.344,597.28,981.344C597.28,981.344,554.624,981.344,554.624,981.344C554.624,981.344,554.624,1024,554.624,1024M682.624,1024C682.624,1024,725.28,1024,725.28,1024C725.28,1024,725.28,981.344,725.28,981.344C725.28,981.344,682.624,981.344,682.624,981.344C682.624,981.344,682.624,1024,682.624,1024M810.624,1024C810.624,1024,853.28,1024,853.28,1024C853.28,1024,853.28,981.344,853.28,981.344C853.28,981.344,810.624,981.344,810.624,981.344C810.624,981.344,810.624,1024,810.624,1024M938.624,1024C938.624,1024,981.28,1024,981.28,1024C981.28,1024,981.28,981.344,981.28,981.344C981.28,981.344,938.624,981.344,938.624,981.344C938.624,981.344,938.624,1024,938.624,1024M938.624,896C938.624,896,981.28,896,981.28,896C981.28,896,981.28,853.344,981.28,853.344C981.28,853.344,938.624,853.344,938.624,853.344C938.624,853.344,938.624,896,938.624,896M810.624,896C810.624,896,853.28,896,853.28,896C853.28,896,853.28,853.344,853.28,853.344C853.28,853.344,810.624,853.344,810.624,853.344C810.624,853.344,810.624,896,810.624,896M682.624,896C682.624,896,725.28,896,725.28,896C725.28,896,725.28,853.344,725.28,853.344C725.28,853.344,682.624,853.344,682.624,853.344C682.624,853.344,682.624,896,682.624,896M682.624,768C682.624,768,725.28,768,725.28,768C725.28,768,725.28,725.344,725.28,725.344C725.28,725.344,682.624,725.344,682.624,725.344C682.624,725.344,682.624,768,682.624,768M810.624,768C810.624,768,853.28,768,853.28,768C853.28,768,853.28,725.344,853.28,725.344C853.28,725.344,810.624,725.344,810.624,725.344C810.624,725.344,810.624,768,810.624,768M938.624,768C938.624,768,981.28,768,981.28,768C981.28,768,981.28,725.344,981.28,725.344C981.28,725.344,938.624,725.344,938.624,725.344C938.624,725.344,938.624,768,938.624,768M938.624,639.904C938.624,639.904,981.28,639.904,981.28,639.904C981.28,639.904,981.28,597.248,981.28,597.248C981.28,597.248,938.624,597.248,938.624,597.248C938.624,597.248,938.624,639.904,938.624,639.904M810.624,640C810.624,640,853.28,640,853.28,640C853.28,640,853.28,597.344,853.28,597.344C853.28,597.344,810.624,597.344,810.624,597.344C810.624,597.344,810.624,640,810.624,640M682.624,640C682.624,640,725.28,640,725.28,640C725.28,640,725.28,597.344,725.28,597.344C725.28,597.344,682.624,597.344,682.624,597.344C682.624,597.344,682.624,640,682.624,640M938.624,512C938.624,512,981.28,512,981.28,512C981.28,512,981.28,469.344,981.28,469.344C981.28,469.344,938.624,469.344,938.624,469.344C938.624,469.344,938.624,512,938.624,512M938.624,384C938.624,384,981.28,384,981.28,384C981.28,384,981.28,341.344,981.28,341.344C981.28,341.344,938.624,341.344,938.624,341.344C938.624,341.344,938.624,384,938.624,384M938.624,256C938.624,256,981.28,256,981.28,256C981.28,256,981.28,213.344,981.28,213.344C981.28,213.344,938.624,213.344,938.624,213.344C938.624,213.344,938.624,256,938.624,256M298.624,896C298.624,896,341.28,896,341.28,896C341.28,896,341.28,853.344,341.28,853.344C341.28,853.344,298.624,853.344,298.624,853.344C298.624,853.344,298.624,896,298.624,896M298.624,768C298.624,768,341.28,768,341.28,768C341.28,768,341.28,725.344,341.28,725.344C341.28,725.344,298.624,725.344,298.624,725.344C298.624,725.344,298.624,768,298.624,768M170.624,768C170.624,768,213.28,768,213.28,768C213.28,768,213.28,725.344,213.28,725.344C213.28,725.344,170.624,725.344,170.624,725.344C170.624,725.344,170.624,768,170.624,768M170.624,896C170.624,896,213.28,896,213.28,896C213.28,896,213.28,853.344,213.28,853.344C213.28,853.344,170.624,853.344,170.624,853.344C170.624,853.344,170.624,896,170.624,896" /><glyph unicode="&#x006b;" d="M948.147,388.828C944.588,390.923,940.963,392.819,937.204,394.714C937.204,394.714,928.956,400.069,928.956,400.069C928.956,400.069,748.16,527.019,748.16,527.019C748.16,527.019,800.676,566.165,800.676,566.165C850.298,545.112,916.185,586.786,944.721,604.712C1017.126,650.444,1038.778,746.496,993.046,818.801C951.373,884.787,867.826,908.7,798.514,877.703C798.514,877.703,797.749,879.033,797.749,879.033C758.603,941.028,676.254,959.653,614.192,920.541C573.483,894.831,543.683,821.695,576.177,739.179C576.177,739.179,513.218,691.984,513.218,691.984C513.218,691.984,441.145,742.571,441.145,742.571C471.045,826.085,439.05,898.224,397.609,922.702C334.383,959.953,252.599,938.8,215.482,875.608C215.482,875.608,214.584,874.31,214.584,874.31C144.374,903.013,61.592,876.572,21.948,809.355C-21.456,735.653,3.09,640.3,76.858,596.797C105.894,579.735,173.177,540.156,222.101,562.739C222.101,562.739,283.431,519.769,283.431,519.769C283.431,519.769,99.042,381.71,99.042,381.71C99.042,381.71,90.96,376.123,90.96,376.123C87.335,374.127,83.776,372.132,80.317,369.87C7.846,324.238,-13.739,228.086,31.892,155.781C77.623,83.443,173.676,61.725,245.981,107.456C280.603,129.274,304.517,163.231,313.796,202.71C313.796,202.71,518.306,355.402,518.306,355.402C518.306,355.402,719.756,214.384,719.756,214.384C730.266,175.238,755.244,142.045,790.498,121.258C864.201,77.789,959.621,102.467,1002.991,176.169C1046.527,249.971,1021.849,345.291,948.147,388.794C948.147,388.794,948.147,388.828,948.147,388.828M594.536,634.878C594.536,634.878,695.111,709.379,695.111,709.379C695.111,709.379,671.464,746.895,671.464,746.895C638.105,799.611,654.535,839.754,661.586,845.575C682.207,858.645,709.646,852.393,722.75,831.772C722.75,831.772,770.111,756.773,770.111,756.773C770.111,756.773,826.352,792.294,826.352,792.294C857.316,811.85,898.491,802.571,918.147,771.573C937.703,740.576,928.357,699.334,897.36,679.778C863.402,658.326,846.274,651.275,837.627,649.812C837.627,649.812,817.505,681.707,817.505,681.707C817.505,681.707,659.491,566.863,659.491,566.863C659.491,566.863,576.909,621.774,576.909,621.774C576.909,621.774,594.569,634.912,594.569,634.912C594.569,634.912,594.536,634.878,594.536,634.878M392.387,372.73C392.387,372.73,230.848,255.292,230.848,255.292C230.848,255.292,228.985,233.375,228.985,233.375C227.256,212.089,216.181,193.564,198.653,182.555C167.656,162.998,126.414,172.278,106.858,203.275C87.302,234.273,96.581,275.414,127.578,294.97C131.337,297.398,135.394,299.394,139.552,300.957C139.552,300.957,183.886,330.591,183.886,330.591C183.886,330.591,381.611,477.164,381.611,477.164C381.611,477.164,462.065,423.45,462.065,423.45C462.065,423.45,392.387,372.73,392.387,372.73C392.387,372.73,392.387,372.73,392.387,372.73M926.661,221.335C908.036,189.705,867.094,179.162,835.498,197.787C817.671,208.331,806.097,226.424,803.669,247.676C803.669,247.676,801.042,269.594,801.042,269.594C801.042,269.594,201.713,677.749,201.713,677.749C201.713,677.749,182.522,645.122,182.522,645.122C173.842,646.319,156.547,652.938,121.858,673.293C90.295,692.017,79.785,732.793,98.31,764.422C117.035,796.052,157.811,806.595,189.407,787.97C189.407,787.97,291.845,830.575,291.845,830.575C304.217,851.728,331.523,858.645,352.543,846.273C359.627,840.719,377.321,801.041,345.725,747.394C345.725,747.394,323.142,709.179,323.142,709.179C323.142,709.179,845.742,346.289,845.742,346.289C845.742,346.289,890.974,318.052,890.974,318.052C895.231,316.689,899.322,314.693,903.047,312.498C934.71,293.74,945.22,252.931,926.694,221.368C926.694,221.368,926.661,221.335,926.661,221.335" /><glyph unicode="&#x006c;" d="M517.203,1024.5C517.203,1024.5,22.5,781.773,22.5,781.773C22.5,781.773,22.5,290.51,22.5,290.51C22.5,290.51,512.261,0.5,512.261,0.5C512.261,0.5,1002.022,290.51,1002.022,290.51C1002.022,290.51,1002.022,781.773,1002.022,781.773C1002.022,781.773,517.203,1024.5,517.203,1024.5C517.203,1024.5,517.203,1024.5,517.203,1024.5M467.749,130.328C467.749,130.328,111.557,341.266,111.557,341.266C111.557,341.266,111.557,638.455,111.557,638.455C111.557,638.455,467.749,462.445,467.749,462.445C467.749,462.445,467.749,130.295,467.749,130.295C467.749,130.295,467.749,130.328,467.749,130.328M132.226,730.383C132.226,730.383,517.971,924.758,517.971,924.758C517.971,924.758,903.716,730.383,903.716,730.383C903.716,730.383,517.971,539.781,517.971,539.781C517.971,539.781,132.226,730.383,132.226,730.383C132.226,730.383,132.226,730.383,132.226,730.383M912.965,341.266C912.965,341.266,512.261,103.949,512.261,103.949C512.261,103.949,512.261,447.753,512.261,447.753C512.261,447.753,912.965,638.455,912.965,638.455C912.965,638.455,912.965,341.266,912.965,341.266C912.965,341.266,912.965,341.266,912.965,341.266" /><glyph unicode="&#x006d;" d="M544.751,532.212C544.751,532.212,349.299,727.663,349.299,727.663C349.299,727.663,349.299,605.1,349.299,605.1C349.299,605.1,23.5,605.1,23.5,605.1C23.5,605.1,23.5,465.467,23.5,465.467C23.5,465.467,349.299,465.467,349.299,465.467C349.299,465.467,349.299,336.725,349.299,336.725C349.299,336.725,544.751,532.212,544.751,532.212C544.751,532.212,544.751,532.212,544.751,532.212M395.867,1024C395.867,1024,395.867,867.297,395.867,867.297C395.867,867.297,488.967,774.196,488.967,774.196C488.967,774.196,488.967,930.9,488.967,930.9C488.967,930.9,865.453,930.9,865.453,930.9C865.453,930.9,582.033,837.799,582.033,837.799C582.033,837.799,582.033,279.266,582.033,279.266C582.033,279.266,488.932,279.266,488.932,279.266C488.932,279.266,488.932,290.158,488.932,290.158C488.932,290.158,395.832,197.057,395.832,197.057C395.832,197.057,395.832,186.166,395.832,186.166C395.832,186.166,581.998,186.166,581.998,186.166C581.998,186.166,581.998,0,581.998,0C581.998,0,1000.897,139.633,1000.897,139.633C1000.897,139.633,1000.897,1023.965,1000.897,1023.965C1000.897,1023.965,395.867,1024,395.867,1024" /><glyph unicode="&#x006e;" d="M460,415.132C460,415.132,426.688,85.5,426.688,85.5C426.688,85.5,630.208,336.924,630.208,336.924C630.208,336.924,824.928,249.02,824.928,249.02C824.928,249.02,1024,938.812,1024,938.812C1024,938.812,460,415.132,460,415.132C460,415.132,460,415.132,460,415.132M1024,938.812C1024,938.812,0,517.916,0,517.916C0,517.916,241.76,469.5,241.76,469.5C241.76,469.5,426.688,85.5,426.688,85.5C426.688,85.5,293.344,469.5,293.344,469.5C293.344,469.5,1024,938.844,1024,938.844C1024,938.844,1024,938.812,1024,938.812" /><glyph unicode="&#x006f;" d="M874.08,873.984C781.408,966.656,653.408,1024,512,1024C370.688,1024,242.688,966.656,150.016,873.984C57.344,781.312,0,653.312,0,512C0,370.592,57.344,242.592,150.016,149.92C242.688,57.344,370.688,0,512,0C653.408,0,781.408,57.344,874.08,149.92C966.656,242.592,1024,370.592,1024,512C1024,653.312,966.656,781.312,874.08,873.984C874.08,873.984,874.08,873.984,874.08,873.984M682.656,512C682.656,464.896,663.488,422.24,632.64,391.328C601.76,360.48,559.072,341.312,511.968,341.312C464.96,341.312,422.272,360.48,391.392,391.328C360.448,422.208,341.312,464.896,341.312,512C341.312,559.008,360.48,601.696,391.392,632.576C422.304,663.456,464.96,682.656,511.968,682.656C559.072,682.656,601.728,663.488,632.64,632.576C663.488,601.696,682.656,559.008,682.656,512C682.656,512,682.656,512,682.656,512M85.344,512C85.344,629.6,133.184,736.256,210.432,813.568C210.432,813.568,331.008,692.992,331.008,692.992C284.672,646.656,256,582.656,256,512C256,441.344,284.672,377.344,331.008,331.008C331.008,331.008,210.432,210.432,210.432,210.432C133.152,287.648,85.344,394.336,85.344,512C85.344,512,85.344,512,85.344,512M813.568,210.432C813.568,210.432,692.992,331.008,692.992,331.008C739.328,377.344,768,441.344,768,512C768,582.656,739.328,646.656,692.992,692.992C692.992,692.992,813.568,813.568,813.568,813.568C890.848,736.256,938.656,629.6,938.656,512C938.656,394.336,890.816,287.648,813.568,210.432C813.568,210.432,813.568,210.432,813.568,210.432" /><glyph unicode="&#x0070;" d="M936.292,936.703C819.291,1053.666,628.977,1053.666,511.939,936.703C511.939,936.703,87.736,512.462,87.736,512.462C-29.227,395.462,-29.264,205.148,87.736,88.222C204.737,-28.741,394.976,-28.741,511.977,88.222C511.977,88.222,936.292,512.462,936.292,512.462C1053.18,629.463,1053.292,819.777,936.292,936.703C936.292,936.703,936.292,936.703,936.292,936.703M865.566,866.015C943.529,788.014,943.529,661.113,865.566,583.15C865.566,583.15,653.352,371.049,653.352,371.049C653.352,371.049,370.563,653.838,370.563,653.838C370.563,653.838,582.664,865.977,582.664,865.977C660.702,943.978,787.566,943.978,865.566,865.977C865.566,865.977,865.566,866.015,865.566,866.015" /><glyph unicode="&#x0071;" d="M981.249,85.745C981.249,85.745,896.004,85.745,896.004,85.745C896.004,85.745,896.004,128.496,896.004,128.496C896.004,128.496,853.253,128.496,853.253,128.496C853.253,128.496,853.253,85.745,853.253,85.745C853.253,85.745,768.136,85.745,768.136,85.745C768.136,85.745,768.136,128.496,768.136,128.496C768.136,128.496,725.385,128.496,725.385,128.496C725.385,128.496,725.385,85.745,725.385,85.745C725.385,85.745,640.14,85.745,640.14,85.745C640.14,85.745,640.14,128.496,640.14,128.496C640.14,128.496,597.389,128.496,597.389,128.496C597.389,128.496,597.389,85.745,597.389,85.745C597.389,85.745,512.144,85.745,512.144,85.745C512.144,85.745,512.144,128.496,512.144,128.496C512.144,128.496,469.393,128.496,469.393,128.496C469.393,128.496,469.393,85.745,469.393,85.745C469.393,85.745,384.148,85.745,384.148,85.745C384.148,85.745,384.148,128.496,384.148,128.496C384.148,128.496,341.397,128.496,341.397,128.496C341.397,128.496,341.397,85.745,341.397,85.745C341.397,85.745,153.627,85.745,153.627,85.745C153.627,85.745,378.484,220.877,378.484,220.877C378.484,220.877,489.745,546.083,489.745,546.083C489.745,546.083,655.02,255.564,655.02,255.564C655.02,255.564,975.298,789.211,975.298,789.211C975.298,789.211,902.18,833.146,902.18,833.146C902.18,833.146,656.971,424.583,656.971,424.583C656.971,424.583,470.257,752.732,470.257,752.732C470.257,752.732,307.734,277.963,307.734,277.963C307.734,277.963,85.245,144.24,85.245,144.24C85.245,144.24,85.245,1024.468,85.245,1024.468C85.245,1024.468,0,1024.468,0,1024.468C0,1024.468,0,0.5,0,0.5C0,0.5,1023.968,0.5,1023.968,0.5C1023.968,0.5,1023.968,128.496,1023.968,128.496C1023.968,128.496,981.217,128.496,981.217,128.496C981.217,128.496,981.249,85.745,981.249,85.745M981.249,1024.468C981.249,1024.468,1024,1024.468,1024,1024.468C1024,1024.468,1024,981.717,1024,981.717C1024,981.717,981.249,981.717,981.249,981.717C981.249,981.717,981.249,1024.468,981.249,1024.468M853.253,1024.468C853.253,1024.468,896.004,1024.468,896.004,1024.468C896.004,1024.468,896.004,981.717,896.004,981.717C896.004,981.717,853.253,981.717,853.253,981.717C853.253,981.717,853.253,1024.468,853.253,1024.468M725.385,1024.468C725.385,1024.468,768.136,1024.468,768.136,1024.468C768.136,1024.468,768.136,981.717,768.136,981.717C768.136,981.717,725.385,981.717,725.385,981.717C725.385,981.717,725.385,1024.468,725.385,1024.468M597.389,1024.468C597.389,1024.468,640.14,1024.468,640.14,1024.468C640.14,1024.468,640.14,981.717,640.14,981.717C640.14,981.717,597.389,981.717,597.389,981.717C597.389,981.717,597.389,1024.468,597.389,1024.468M469.393,1024.468C469.393,1024.468,512.144,1024.468,512.144,1024.468C512.144,1024.468,512.144,981.717,512.144,981.717C512.144,981.717,469.393,981.717,469.393,981.717C469.393,981.717,469.393,1024.468,469.393,1024.468M341.397,1024.468C341.397,1024.468,384.148,1024.468,384.148,1024.468C384.148,1024.468,384.148,981.717,384.148,981.717C384.148,981.717,341.397,981.717,341.397,981.717C341.397,981.717,341.397,1024.468,341.397,1024.468M213.401,1024.468C213.401,1024.468,256.152,1024.468,256.152,1024.468C256.152,1024.468,256.152,981.717,256.152,981.717C256.152,981.717,213.401,981.717,213.401,981.717C213.401,981.717,213.401,1024.468,213.401,1024.468M85.405,1024.468C85.405,1024.468,128.156,1024.468,128.156,1024.468C128.156,1024.468,128.156,981.717,128.156,981.717C128.156,981.717,85.405,981.717,85.405,981.717C85.405,981.717,85.405,1024.468,85.405,1024.468M981.249,896.472C981.249,896.472,1024,896.472,1024,896.472C1024,896.472,1024,853.721,1024,853.721C1024,853.721,981.249,853.721,981.249,853.721C981.249,853.721,981.249,896.472,981.249,896.472M853.253,896.472C853.253,896.472,896.004,896.472,896.004,896.472C896.004,896.472,896.004,853.721,896.004,853.721C896.004,853.721,853.253,853.721,853.253,853.721C853.253,853.721,853.253,896.472,853.253,896.472M725.385,896.472C725.385,896.472,768.136,896.472,768.136,896.472C768.136,896.472,768.136,853.721,768.136,853.721C768.136,853.721,725.385,853.721,725.385,853.721C725.385,853.721,725.385,896.472,725.385,896.472M597.389,896.472C597.389,896.472,640.14,896.472,640.14,896.472C640.14,896.472,640.14,853.721,640.14,853.721C640.14,853.721,597.389,853.721,597.389,853.721C597.389,853.721,597.389,896.472,597.389,896.472M469.393,896.472C469.393,896.472,512.144,896.472,512.144,896.472C512.144,896.472,512.144,853.721,512.144,853.721C512.144,853.721,469.393,853.721,469.393,853.721C469.393,853.721,469.393,896.472,469.393,896.472M341.397,896.472C341.397,896.472,384.148,896.472,384.148,896.472C384.148,896.472,384.148,853.721,384.148,853.721C384.148,853.721,341.397,853.721,341.397,853.721C341.397,853.721,341.397,896.472,341.397,896.472M213.401,896.472C213.401,896.472,256.152,896.472,256.152,896.472C256.152,896.472,256.152,853.721,256.152,853.721C256.152,853.721,213.401,853.721,213.401,853.721C213.401,853.721,213.401,896.472,213.401,896.472M85.405,896.472C85.405,896.472,128.156,896.472,128.156,896.472C128.156,896.472,128.156,853.721,128.156,853.721C128.156,853.721,85.405,853.721,85.405,853.721C85.405,853.721,85.405,896.472,85.405,896.472M981.249,768.604C981.249,768.604,1024,768.604,1024,768.604C1024,768.604,1024,725.853,1024,725.853C1024,725.853,981.249,725.853,981.249,725.853C981.249,725.853,981.249,768.604,981.249,768.604M725.385,768.604C725.385,768.604,768.136,768.604,768.136,768.604C768.136,768.604,768.136,725.853,768.136,725.853C768.136,725.853,725.385,725.853,725.385,725.853C725.385,725.853,725.385,768.604,725.385,768.604M597.389,768.604C597.389,768.604,640.14,768.604,640.14,768.604C640.14,768.604,640.14,725.853,640.14,725.853C640.14,725.853,597.389,725.853,597.389,725.853C597.389,725.853,597.389,768.604,597.389,768.604M341.397,768.604C341.397,768.604,384.148,768.604,384.148,768.604C384.148,768.604,384.148,725.853,384.148,725.853C384.148,725.853,341.397,725.853,341.397,725.853C341.397,725.853,341.397,768.604,341.397,768.604M213.401,768.604C213.401,768.604,256.152,768.604,256.152,768.604C256.152,768.604,256.152,725.853,256.152,725.853C256.152,725.853,213.401,725.853,213.401,725.853C213.401,725.853,213.401,768.604,213.401,768.604M85.405,768.604C85.405,768.604,128.156,768.604,128.156,768.604C128.156,768.604,128.156,725.853,128.156,725.853C128.156,725.853,85.405,725.853,85.405,725.853C85.405,725.853,85.405,768.604,85.405,768.604M981.249,640.608C981.249,640.608,1024,640.608,1024,640.608C1024,640.608,1024,597.857,1024,597.857C1024,597.857,981.249,597.857,981.249,597.857C981.249,597.857,981.249,640.608,981.249,640.608M597.389,640.608C597.389,640.608,640.14,640.608,640.14,640.608C640.14,640.608,640.14,597.857,640.14,597.857C640.14,597.857,597.389,597.857,597.389,597.857C597.389,597.857,597.389,640.608,597.389,640.608M341.397,640.608C341.397,640.608,384.148,640.608,384.148,640.608C384.148,640.608,384.148,597.857,384.148,597.857C384.148,597.857,341.397,597.857,341.397,597.857C341.397,597.857,341.397,640.608,341.397,640.608M213.401,640.608C213.401,640.608,256.152,640.608,256.152,640.608C256.152,640.608,256.152,597.857,256.152,597.857C256.152,597.857,213.401,597.857,213.401,597.857C213.401,597.857,213.401,640.608,213.401,640.608M85.405,640.608C85.405,640.608,128.156,640.608,128.156,640.608C128.156,640.608,128.156,597.857,128.156,597.857C128.156,597.857,85.405,597.857,85.405,597.857C85.405,597.857,85.405,640.608,85.405,640.608M981.249,512.516C981.249,512.516,1024,512.516,1024,512.516C1024,512.516,1024,469.765,1024,469.765C1024,469.765,981.249,469.765,981.249,469.765C981.249,469.765,981.249,512.516,981.249,512.516M853.253,512.516C853.253,512.516,896.004,512.516,896.004,512.516C896.004,512.516,896.004,469.765,896.004,469.765C896.004,469.765,853.253,469.765,853.253,469.765C853.253,469.765,853.253,512.516,853.253,512.516M213.401,512.516C213.401,512.516,256.152,512.516,256.152,512.516C256.152,512.516,256.152,469.765,256.152,469.765C256.152,469.765,213.401,469.765,213.401,469.765C213.401,469.765,213.401,512.516,213.401,512.516M85.405,512.516C85.405,512.516,128.156,512.516,128.156,512.516C128.156,512.516,128.156,469.765,128.156,469.765C128.156,469.765,85.405,469.765,85.405,469.765C85.405,469.765,85.405,512.516,85.405,512.516M981.249,384.52C981.249,384.52,1024,384.52,1024,384.52C1024,384.52,1024,341.769,1024,341.769C1024,341.769,981.249,341.769,981.249,341.769C981.249,341.769,981.249,384.52,981.249,384.52M853.253,384.52C853.253,384.52,896.004,384.52,896.004,384.52C896.004,384.52,896.004,341.769,896.004,341.769C896.004,341.769,853.253,341.769,853.253,341.769C853.253,341.769,853.253,384.52,853.253,384.52M469.393,384.52C469.393,384.52,512.144,384.52,512.144,384.52C512.144,384.52,512.144,341.769,512.144,341.769C512.144,341.769,469.393,341.769,469.393,341.769C469.393,341.769,469.393,384.52,469.393,384.52M213.401,384.52C213.401,384.52,256.152,384.52,256.152,384.52C256.152,384.52,256.152,341.769,256.152,341.769C256.152,341.769,213.401,341.769,213.401,341.769C213.401,341.769,213.401,384.52,213.401,384.52M85.405,384.52C85.405,384.52,128.156,384.52,128.156,384.52C128.156,384.52,128.156,341.769,128.156,341.769C128.156,341.769,85.405,341.769,85.405,341.769C85.405,341.769,85.405,384.52,85.405,384.52M981.249,256.652C981.249,256.652,1024,256.652,1024,256.652C1024,256.652,1024,213.901,1024,213.901C1024,213.901,981.249,213.901,981.249,213.901C981.249,213.901,981.249,256.652,981.249,256.652M853.253,256.652C853.253,256.652,896.004,256.652,896.004,256.652C896.004,256.652,896.004,213.901,896.004,213.901C896.004,213.901,853.253,213.901,853.253,213.901C853.253,213.901,853.253,256.652,853.253,256.652M725.385,256.652C725.385,256.652,768.136,256.652,768.136,256.652C768.136,256.652,768.136,213.901,768.136,213.901C768.136,213.901,725.385,213.901,725.385,213.901C725.385,213.901,725.385,256.652,725.385,256.652M469.393,256.652C469.393,256.652,512.144,256.652,512.144,256.652C512.144,256.652,512.144,213.901,512.144,213.901C512.144,213.901,469.393,213.901,469.393,213.901C469.393,213.901,469.393,256.652,469.393,256.652M85.405,256.652C85.405,256.652,128.156,256.652,128.156,256.652C128.156,256.652,128.156,213.901,128.156,213.901C128.156,213.901,85.405,213.901,85.405,213.901C85.405,213.901,85.405,256.652,85.405,256.652" /><glyph unicode="&#x0072;" d="M923.927,533.361C923.927,533.361,853.817,533.361,853.817,533.361C853.817,533.361,853.817,960.004,853.817,960.004C853.817,960.004,128.496,960.004,128.496,960.004C128.496,960.004,128.496,533.361,128.496,533.361C128.496,533.361,70.61,533.361,70.61,533.361C23.667,533.361,0.5,494.963,0.5,448.02C0.5,448.02,0.5,362.679,0.5,362.679C0.5,315.736,23.667,277.337,70.61,277.337C70.61,277.337,128.496,277.337,128.496,277.337C128.496,277.337,128.496,64,128.496,64C128.496,64,384.488,64,384.488,64C384.488,64,384.488,277.337,384.488,277.337C384.488,277.337,469.829,277.337,469.829,277.337C469.829,277.337,469.829,64,469.829,64C469.829,64,811.163,64,811.163,64C811.163,64,811.163,277.337,811.163,277.337C811.163,277.337,923.927,277.337,923.927,277.337C970.87,277.337,1024.5,315.736,1024.5,362.679C1024.5,362.679,1024.5,448.02,1024.5,448.02C1024.5,494.963,970.838,533.361,923.927,533.361C923.927,533.361,923.927,533.361,923.927,533.361M299.179,149.373C299.179,149.373,213.837,149.373,213.837,149.373C213.837,149.373,213.837,277.369,213.837,277.369C213.837,277.369,299.179,277.369,299.179,277.369C299.179,277.369,299.179,149.373,299.179,149.373C299.179,149.373,299.179,149.373,299.179,149.373M597.857,149.373C597.857,149.373,555.203,149.373,555.203,149.373C555.203,149.373,555.203,277.369,555.203,277.369C555.203,277.369,597.857,277.369,597.857,277.369C597.857,277.369,597.857,149.373,597.857,149.373C597.857,149.373,597.857,149.373,597.857,149.373M725.853,149.373C725.853,149.373,683.199,149.373,683.199,149.373C683.199,149.373,683.199,277.369,683.199,277.369C683.199,277.369,725.853,277.369,725.853,277.369C725.853,277.369,725.853,149.373,725.853,149.373C725.853,149.373,725.853,149.373,725.853,149.373M768.508,533.361C768.508,533.361,213.869,533.361,213.869,533.361C213.869,533.361,213.869,874.695,213.869,874.695C213.869,874.695,768.508,874.695,768.508,874.695C768.508,874.695,768.508,533.361,768.508,533.361C768.508,533.361,768.508,533.361,768.508,533.361M865.273,337.655C829.338,337.655,800.283,366.807,800.283,402.677C800.283,438.548,829.37,467.699,865.273,467.699C901.176,467.699,930.327,438.548,930.327,402.677C930.327,366.807,901.144,337.655,865.273,337.655C865.273,337.655,865.273,337.655,865.273,337.655M299.179,746.699C299.179,746.699,555.171,746.699,555.171,746.699C555.171,746.699,555.171,661.357,555.171,661.357C555.171,661.357,299.179,661.357,299.179,661.357C299.179,661.357,299.179,746.699,299.179,746.699M299.179,618.703C299.179,618.703,683.167,618.703,683.167,618.703C683.167,618.703,683.167,576.048,683.167,576.048C683.167,576.048,299.179,576.048,299.179,576.048C299.179,576.048,299.179,618.703,299.179,618.703M43.187,832.008C43.187,832.008,85.841,832.008,85.841,832.008C85.841,832.008,85.841,618.671,85.841,618.671C85.841,618.671,43.187,618.671,43.187,618.671C43.187,618.671,43.187,832.008,43.187,832.008M896.504,746.699C896.504,746.699,939.159,746.699,939.159,746.699C939.159,746.699,939.159,618.703,939.159,618.703C939.159,618.703,896.504,618.703,896.504,618.703C896.504,618.703,896.504,746.699,896.504,746.699" /><glyph unicode="&#x0073;" d="M640.237,834.374C640.237,834.374,640.237,919.715,640.237,919.715C640.237,966.818,576.591,1024,529.393,1024C529.393,1024,495.186,1024,495.186,1024C448.051,1024,384.341,966.818,384.341,919.715C384.341,919.715,384.341,834.374,384.341,834.374C341.687,834.374,299,795.975,299,749.033C299,749.033,299,706.378,299,706.378C299,675.051,299,647.788,341.655,632.94C341.655,632.94,341.655,170.651,341.655,170.651C341.655,170.651,384.309,170.651,384.309,170.651C384.309,170.651,384.309,0,384.309,0C384.309,0,640.205,0,640.205,0C640.205,0,640.205,170.651,640.205,170.651C640.205,170.651,682.86,170.651,682.86,170.651C682.86,170.651,682.86,632.94,682.86,632.94C725.515,647.788,725.515,675.019,725.515,706.378C725.515,706.378,725.515,749.033,725.515,749.033C725.515,795.911,682.86,834.374,640.173,834.374C640.173,834.374,640.237,834.374,640.237,834.374M554.896,85.341C554.896,85.341,469.651,85.341,469.651,85.341C469.651,85.341,469.651,213.337,469.651,213.337C469.651,213.337,554.896,213.337,554.896,213.337C554.896,213.337,554.896,85.341,554.896,85.341C554.896,85.341,554.896,85.341,554.896,85.341M597.583,255.992C597.583,255.992,426.996,255.992,426.996,255.992C426.996,255.992,426.996,511.984,426.996,511.984C426.996,511.984,597.583,511.984,597.583,511.984C597.583,511.984,597.583,255.992,597.583,255.992C597.583,255.992,597.583,255.992,597.583,255.992M597.583,554.639C597.583,554.639,426.996,554.639,426.996,554.639C426.996,554.639,426.996,639.98,426.996,639.98C426.996,639.98,597.583,639.98,597.583,639.98C597.583,639.98,597.583,554.639,597.583,554.639C597.583,554.639,597.583,554.639,597.583,554.639" /><glyph unicode="&#x0074;" d="M783.032,90.5C783.032,90.5,60.219,90.5,60.219,90.5C26.925,90.5,0,117.425,0,150.719C0,184.014,26.925,210.939,60.219,210.939C60.219,210.939,783.032,210.939,783.032,210.939C816.327,210.939,843.252,184.014,843.252,150.719C843.252,117.425,816.327,90.5,783.032,90.5C783.032,90.5,783.032,90.5,783.032,90.5M813.119,933.752C813.119,933.752,60.174,933.752,60.174,933.752C60.174,933.752,60.174,391.642,60.174,391.642C60.174,325.369,114.385,271.158,180.658,271.158C180.658,271.158,662.548,271.158,662.548,271.158C728.821,271.158,783.032,325.369,783.032,391.642C783.032,391.642,783.032,512.126,783.032,512.126C783.032,512.126,813.165,512.126,813.165,512.126C929.402,512.126,1024,606.679,1024,722.961C1024,839.244,929.447,933.797,813.165,933.797C813.165,933.797,813.119,933.752,813.119,933.752M662.548,391.642C662.548,391.642,180.658,391.642,180.658,391.642C180.658,391.642,180.658,813.268,180.658,813.268C180.658,813.268,662.548,813.268,662.548,813.268C662.548,813.268,662.548,391.642,662.548,391.642C662.548,391.642,662.548,391.642,662.548,391.642M813.119,632.61C813.119,632.61,722.768,632.61,722.768,632.61C722.768,632.61,722.768,813.313,722.768,813.313C722.768,813.313,813.119,813.313,813.119,813.313C862.948,813.313,903.471,772.79,903.471,722.961C903.471,673.132,862.948,632.61,813.119,632.61C813.119,632.61,813.119,632.61,813.119,632.61" /><glyph unicode="&#x0075;" d="M991.306,990.758C969.641,1012.508,940.57,1024,910.989,1024C896.815,1024,882.428,1021.318,868.765,1015.828C616.277,914.398,426.57,745.675,271.893,484.802C266.104,475.055,262.657,464.669,260.018,454.028C181.7,441.812,112.449,402.781,64.692,340.936C12.722,273.685,-8.815,188.004,4.209,99.514C4.209,99.514,16.468,15.919,16.468,15.919C16.468,15.919,100.063,3.618,100.063,3.618C116.705,1.192,133.476,0,149.99,0C305.646,0,430.869,108.325,454.577,259.001C465.26,261.682,475.646,265.513,485.436,271.387C746.394,426.191,915.117,615.813,1016.334,868.259C1033.232,910.44,1023.314,958.665,991.264,990.8C991.264,990.8,991.306,990.758,991.306,990.758M149.99,113.475C139.094,113.475,127.9,114.369,116.493,115.986C98.956,235.378,176.38,332.21,286.748,344.171C286.748,344.171,344.677,286.242,344.677,286.242C333.781,186.344,253.591,113.475,149.948,113.475C149.948,113.475,149.99,113.475,149.99,113.475M427.506,368.986C427.506,368.986,369.577,426.915,369.577,426.915C391.157,463.307,413.503,496.89,436.445,529.281C437.977,526.94,529.447,435.47,529.447,435.47C497.226,412.699,463.728,390.395,427.506,368.943C427.506,368.943,427.506,368.986,427.506,368.986M575.543,469.606C575.543,469.606,472.198,571.802,468.921,573.122C590.781,731.118,732.859,839.018,911.074,910.397C839.864,732.949,732.646,591.296,575.543,469.606C575.543,469.606,575.543,469.606,575.543,469.606" /><glyph unicode="&#x0076;" d="M312.959,256.5C312.959,240.841,300.159,228.041,284.5,228.041C268.841,228.041,256.041,240.841,256.041,256.5C256.041,256.5,256.041,597.833,256.041,597.833C256.041,613.492,268.841,626.292,284.5,626.292C300.159,626.292,312.959,613.492,312.959,597.833C312.959,597.833,312.959,256.5,312.959,256.5C312.959,256.5,312.959,256.5,312.959,256.5M426.751,256.5C426.751,240.841,413.951,228.041,398.292,228.041C382.633,228.041,369.833,240.841,369.833,256.5C369.833,256.5,369.833,597.833,369.833,597.833C369.833,613.492,382.633,626.292,398.292,626.292C413.951,626.292,426.751,613.492,426.751,597.833C426.751,597.833,426.751,256.5,426.751,256.5C426.751,256.5,426.751,256.5,426.751,256.5M540.543,256.5C540.543,240.841,527.743,228.041,512.084,228.041C496.425,228.041,483.625,240.841,483.625,256.5C483.625,256.5,483.625,597.833,483.625,597.833C483.625,613.492,496.425,626.292,512.084,626.292C527.743,626.292,540.543,613.492,540.543,597.833C540.543,597.833,540.543,256.5,540.543,256.5C540.543,256.5,540.543,256.5,540.543,256.5M796.543,853.833C796.543,853.833,768.084,853.833,768.084,853.833C768.084,853.833,768.084,910.708,768.084,910.708C768.084,973.513,717.097,1024.5,654.292,1024.5C654.292,1024.5,142.292,1024.5,142.292,1024.5C79.487,1024.5,28.5,973.513,28.5,910.708C28.5,910.708,28.5,171.167,28.5,171.167C28.5,76.959,104.959,0.5,199.167,0.5C199.167,0.5,597.375,0.5,597.375,0.5C691.583,0.5,768.041,76.959,768.041,171.167C768.041,171.167,796.5,171.167,796.5,171.167C906.281,171.167,995.625,260.468,995.625,370.292C995.625,370.292,995.625,654.751,995.625,654.751C995.625,764.532,906.324,853.876,796.5,853.876C796.5,853.876,796.543,853.833,796.543,853.833M142.292,910.708C142.292,910.708,654.292,910.708,654.292,910.708C654.292,910.708,654.292,853.833,654.292,853.833C654.292,853.833,401.492,853.833,401.492,853.833C401.492,853.833,394.793,834.932,394.793,834.932C385.449,808.863,357.076,793.417,331.263,798.068C331.263,798.068,311.465,801.353,311.465,801.353C311.465,801.353,301.609,783.903,301.609,783.903C286.42,756.895,258.089,740.041,227.668,740.041C180.607,740.041,142.335,778.313,142.335,825.375C142.335,825.375,142.335,910.708,142.335,910.708C142.335,910.708,142.292,910.708,142.292,910.708M654.292,171.167C654.292,139.764,628.82,114.292,597.417,114.292C597.417,114.292,199.209,114.292,199.209,114.292C167.807,114.292,142.335,139.764,142.335,171.167C142.335,171.167,142.335,712.18,142.335,712.18C166.185,694.132,195.583,683.167,227.668,683.167C272.255,683.167,314.196,704.543,340.82,740.041C382.249,740.041,419.497,762.271,439.593,796.916C439.593,796.916,654.335,796.916,654.335,796.916C654.335,796.916,654.335,171.124,654.335,171.124C654.335,171.124,654.292,171.167,654.292,171.167M881.876,370.292C881.876,323.231,843.604,284.959,796.543,284.959C796.543,284.959,711.209,284.959,711.209,284.959C711.209,284.959,711.209,740.084,711.209,740.084C711.209,740.084,796.543,740.084,796.543,740.084C843.604,740.084,881.876,701.812,881.876,654.751C881.876,654.751,881.876,370.292,881.876,370.292C881.876,370.292,881.876,370.292,881.876,370.292" /><glyph unicode="&#x0077;" d="M0,79.689C0,79.689,65.189,14.5,65.189,14.5C65.189,14.5,267.395,216.706,267.395,216.706C267.395,216.706,203.901,283.624,203.901,283.624C203.901,283.624,0,79.723,0,79.723C0,79.723,0,79.689,0,79.689M614.746,1009.658C388.816,1009.658,205.526,826.403,205.526,600.438C205.526,511.941,233.988,430.29,281.712,363.303C281.712,363.303,358.729,282.137,358.729,282.137C428.863,225.56,517.672,191.15,614.78,191.15C840.814,191.15,1024,374.404,1024,600.369C1024,826.334,840.814,1009.658,614.78,1009.658C614.78,1009.658,614.746,1009.658,614.746,1009.658M614.746,283.417C439.929,283.417,297.724,425.622,297.724,600.438C297.724,775.255,439.929,917.46,614.746,917.46C789.562,917.46,931.767,775.255,931.767,600.438C931.767,425.622,789.562,283.417,614.746,283.417C614.746,283.417,614.746,283.417,614.746,283.417" /><glyph unicode="&#x0078;" d="M907.766,931.4C907.766,931.4,907.766,1024.5,907.766,1024.5C907.766,1024.5,628.5,1024.5,628.5,1024.5C628.5,1024.5,628.5,931.4,628.5,931.4C628.5,931.4,721.6,931.4,721.6,931.4C721.6,931.4,721.6,93.6,721.6,93.6C721.6,93.6,628.5,93.6,628.5,93.6C628.5,93.6,628.5,0.5,628.5,0.5C628.5,0.5,907.766,0.5,907.766,0.5C907.766,0.5,907.766,93.6,907.766,93.6C907.766,93.6,814.666,93.6,814.666,93.6C814.666,93.6,814.666,931.4,814.666,931.4C814.666,931.4,907.766,931.4,907.766,931.4M628.5,822.381C628.5,827.233,619.424,833.028,613.594,837.182C587.937,856.312,559.591,868.774,528.139,874.569C496.686,880.399,459.963,883.261,417.689,883.261C387.074,883.261,355.587,878.409,323.436,868.565C291.216,858.755,263.848,846.817,241.227,832.679C215.011,816.097,193.787,797.212,177.45,776.127C161.113,755.008,152.909,732.841,152.909,709.697C152.909,687.53,158.809,667.563,170.643,649.69C182.477,631.817,200.943,622.915,226.077,622.915C254.248,622.915,276.24,630.176,292.124,644.837C308.007,659.359,315.896,675.452,315.896,693.116C315.896,709.697,313.488,727.779,308.74,747.433C303.888,767.016,301.584,781.887,301.584,791.941C309.648,800.493,323.611,808.662,343.474,816.481C363.302,824.301,384.84,828.176,407.984,828.176C441.671,828.176,467.712,821.299,486.074,807.475C504.471,793.617,518.644,777.419,528.697,758.778C537.738,742.162,535.365,704.496,535.365,704.496C535.365,704.496,535.365,593.487,535.365,593.487C535.365,580.397,472.216,562.314,402.992,539.17C333.769,516.026,291.705,500.212,269.049,491.66C251.002,484.573,233.582,475.148,212.917,463.349C192.286,451.48,176.612,438.076,164.01,422.96C147.917,404.843,136.328,384.526,128.264,361.906C120.2,339.285,116.5,313.627,116.5,284.933C116.5,229.603,134.617,184.816,170.573,150.606C206.494,116.43,252.503,99.256,308.286,99.256C361.102,99.256,406.274,119.956,443.73,139.051C481.292,158.286,516.375,186.701,549.049,233.269C549.049,233.269,553.622,233.269,553.622,233.269C560.184,186.736,574.741,160.136,598.13,141.774C598.13,141.774,628.465,140.203,628.465,140.203C628.465,140.203,628.465,822.451,628.465,822.451C628.465,822.451,628.5,822.381,628.5,822.381M547.583,269.224C528.976,245.521,506.077,225.065,478.918,207.611C451.724,190.262,420.272,181.5,384.561,181.5C350.804,181.5,323.087,191.309,301.2,211.067C279.277,230.72,268.386,261.44,268.386,303.225C268.386,335.48,275.647,363.407,290.308,386.83C304.83,410.323,324.763,430.57,349.827,447.71C377.579,465.897,407.461,480.978,439.646,493.126C471.797,505.239,504.715,516.305,547.548,528.837C547.548,528.837,547.548,269.259,547.548,269.259C547.548,269.259,547.583,269.224,547.583,269.224" /><glyph unicode="&#x0079;" d="M1000.433,845.668C1000.433,845.668,845.249,1000.852,845.249,1000.852C829.443,1016.658,808.747,1024.5,788.05,1024.5C767.313,1024.5,746.657,1016.617,730.851,1000.852C730.851,1000.852,538.962,808.923,538.962,808.923C538.962,808.923,53.884,808.923,53.884,808.923C24.133,808.923,0,784.831,0,755.039C0,755.039,0,54.384,0,54.384C0,24.592,24.133,0.5,53.884,0.5C53.884,0.5,754.539,0.5,754.539,0.5C784.291,0.5,808.423,24.592,808.423,54.384C808.423,54.384,808.423,539.462,808.423,539.462C808.423,539.462,1000.352,731.392,1000.352,731.392C1016.158,747.197,1024,767.894,1024,788.59C1024,809.287,1016.117,829.943,1000.352,845.708C1000.352,845.708,1000.433,845.668,1000.433,845.668M458.156,341.51C458.156,341.51,341.091,458.575,341.091,458.575C341.091,458.575,680.282,797.766,680.282,797.766C680.282,797.766,797.347,680.701,797.347,680.701C797.347,680.701,458.156,341.51,458.156,341.51C458.156,341.51,458.156,341.51,458.156,341.51M320.152,413.706C320.152,413.706,414.782,320.571,414.782,320.571C414.782,320.571,323.426,323.845,323.426,323.845C323.426,323.845,320.152,413.706,320.152,413.706C320.152,413.706,320.152,413.706,320.152,413.706M700.695,108.268C700.695,108.268,107.809,108.268,107.809,108.268C107.809,108.268,107.809,701.155,107.809,701.155C107.809,701.155,431.194,701.155,431.194,701.155C431.194,701.155,259.8,529.761,259.8,529.761C243.994,513.955,234.05,485.982,225.885,460.273C217.275,433.311,215.577,403.357,215.577,381.044C215.577,381.044,215.577,216.077,215.577,216.077C215.577,216.077,380.544,216.077,380.544,216.077C402.857,216.077,440.249,221.453,465.23,231.721C490.252,241.948,513.536,250.437,529.261,266.202C529.261,266.202,700.655,431.654,700.655,431.654C700.655,431.654,700.655,108.268,700.655,108.268C700.655,108.268,700.695,108.268,700.695,108.268M835.466,718.82C835.466,718.82,718.401,835.885,718.401,835.885C718.401,835.885,788.09,905.575,788.09,905.575C788.09,905.575,905.115,788.509,905.115,788.509C905.115,788.509,835.466,718.82,835.466,718.82C835.466,718.82,835.466,718.82,835.466,718.82" /><glyph unicode="&#x007a;" d="M512,1024C229.193,1024,0,794.759,0,512C0,229.241,229.193,0,512,0C794.807,0,1024,229.241,1024,512C1024,794.759,794.807,1024,512,1024C512,1024,512,1024,512,1024M749.257,365.269C774.264,340.261,774.264,299.799,749.257,274.791C736.777,262.312,720.409,256.024,703.994,256.024C687.579,256.024,671.211,262.312,658.731,274.791C658.731,274.791,512,421.523,512,421.523C512,421.523,365.269,274.791,365.269,274.791C352.789,262.312,336.421,256.024,320.006,256.024C303.591,256.024,287.223,262.312,274.743,274.791C249.736,299.799,249.736,340.261,274.743,365.269C274.743,365.269,421.475,512,421.475,512C421.475,512,274.743,658.731,274.743,658.731C249.736,683.739,249.736,724.201,274.743,749.209C299.751,774.216,340.213,774.216,365.221,749.209C365.221,749.209,511.952,602.477,511.952,602.477C511.952,602.477,658.683,749.209,658.683,749.209C683.691,774.216,724.153,774.216,749.161,749.209C774.168,724.201,774.168,683.739,749.161,658.731C749.161,658.731,602.429,512,602.429,512C602.429,512,749.161,365.269,749.161,365.269C749.161,365.269,749.257,365.269,749.257,365.269" /><glyph unicode="&#x0030;" d="M324.849,244C288.919,244,255.108,257.995,229.709,283.429C229.709,283.429,0,513.137,0,513.137C0,513.137,229.709,742.846,229.709,742.846C280.542,793.713,369.29,793.713,420.022,742.812C472.47,690.431,472.47,605.014,419.989,552.566C419.989,552.566,380.594,513.137,380.594,513.137C380.594,513.137,419.989,473.709,419.989,473.709C472.47,421.261,472.47,335.877,419.989,283.429C394.69,257.995,360.879,244,324.849,244C324.849,244,324.849,244,324.849,244M126.865,513.137C126.865,513.137,293.158,346.844,293.158,346.844C310.214,329.855,339.752,329.922,356.54,346.81C374.067,364.338,374.067,392.799,356.573,410.293C356.573,410.293,253.763,513.137,253.763,513.137C253.763,513.137,356.573,615.981,356.573,615.981C374.067,633.475,374.067,661.903,356.573,679.397C339.618,696.386,310.113,696.319,293.158,679.397C293.158,679.397,126.865,513.104,126.865,513.104C126.865,513.104,126.865,513.137,126.865,513.137M699.151,244C663.121,244,629.31,257.995,603.978,283.462C551.53,335.843,551.53,421.261,604.011,473.709C604.011,473.709,643.406,513.137,643.406,513.137C643.406,513.137,604.011,552.566,604.011,552.566C551.53,605.014,551.53,690.398,604.011,742.846C654.643,793.679,743.458,793.713,794.291,742.846C794.291,742.846,1024,513.137,1024,513.137C1024,513.137,794.291,283.429,794.291,283.429C768.892,257.995,735.081,244,699.151,244C699.151,244,699.151,244,699.151,244M699.084,692.551C687.107,692.551,675.837,687.875,667.46,679.464C649.933,661.937,649.933,633.475,667.427,615.981C667.427,615.981,770.237,513.137,770.237,513.137C770.237,513.137,667.427,410.293,667.427,410.293C649.933,392.799,649.933,364.372,667.427,346.878C684.349,329.922,713.853,329.888,730.842,346.878C730.842,346.878,897.135,513.171,897.135,513.171C897.135,513.171,730.842,679.464,730.842,679.464C722.331,687.942,711.061,692.618,699.084,692.618C699.084,692.618,699.084,692.551,699.084,692.551" /><glyph unicode="&#x0031;" d="M768.142,819.708C728.666,819.708,692.992,804.309,665.727,779.809C665.727,779.809,665.727,870.896,665.727,870.896C665.727,955.57,596.797,1024.5,512.123,1024.5C427.449,1024.5,358.519,955.57,358.519,870.896C358.519,870.896,358.519,626.205,358.519,626.205C331.293,650.667,295.58,666.104,256.104,666.104C171.43,666.104,102.5,597.174,102.5,512.5C102.5,512.5,102.5,205.292,102.5,205.292C102.5,205.292,921.708,205.292,921.708,205.292C921.708,205.292,921.708,666.104,921.708,666.104C921.708,750.778,852.778,819.708,768.104,819.708C768.104,819.708,768.142,819.708,768.142,819.708M512.123,922.123C540.348,922.123,563.312,899.198,563.312,870.935C563.312,870.935,563.312,307.708,563.312,307.708C563.312,307.708,460.896,307.708,460.896,307.708C460.896,307.708,460.896,870.935,460.896,870.935C460.896,899.198,483.898,922.123,512.085,922.123C512.085,922.123,512.123,922.123,512.123,922.123M307.331,307.708C307.331,307.708,204.915,307.708,204.915,307.708C204.915,307.708,204.915,512.5,204.915,512.5C204.915,540.763,227.918,563.688,256.104,563.688C284.29,563.688,307.292,540.763,307.292,512.5C307.292,512.5,307.292,307.708,307.292,307.708C307.292,307.708,307.331,307.708,307.331,307.708M819.331,307.708C819.331,307.708,716.915,307.708,716.915,307.708C716.915,307.708,716.915,666.104,716.915,666.104C716.915,694.367,739.918,717.292,768.104,717.292C796.29,717.292,819.292,694.367,819.292,666.104C819.292,666.104,819.292,307.708,819.292,307.708C819.292,307.708,819.331,307.708,819.331,307.708M870.519,0.5C870.519,0.5,153.688,0.5,153.688,0.5C125.425,0.5,102.5,23.387,102.5,51.688C102.5,79.99,125.425,102.877,153.688,102.877C153.688,102.877,870.519,102.877,870.519,102.877C898.782,102.877,921.708,79.99,921.708,51.688C921.708,23.387,898.782,0.5,870.519,0.5C870.519,0.5,870.519,0.5,870.519,0.5" /><glyph unicode="&#x0032;" d="M308.978,247.08C281.818,247.08,254.737,257.419,234.02,278.136C234.02,278.136,0,512.156,0,512.156C0,512.156,234.02,746.176,234.02,746.176C275.415,787.571,342.659,787.571,383.975,746.176C425.371,704.78,425.371,637.656,383.975,596.22C383.975,596.22,299.951,512.116,299.951,512.116C299.951,512.116,383.975,428.012,383.975,428.012C425.371,386.616,425.371,319.492,383.975,278.057C363.297,257.339,336.137,247,309.017,247C309.017,247,308.978,247.08,308.978,247.08M714.983,247.08C687.823,247.08,660.703,257.419,640.025,278.136C598.629,319.532,598.629,386.656,640.025,428.092C640.025,428.092,724.049,512.196,724.049,512.196C724.049,512.196,640.025,596.3,640.025,596.3C598.629,637.696,598.629,704.82,640.025,746.255C681.341,787.651,748.545,787.651,789.98,746.255C789.98,746.255,1024,512.236,1024,512.236C1024,512.236,789.98,278.216,789.98,278.216C769.302,257.498,742.143,247.159,715.022,247.159C715.022,247.159,714.983,247.08,714.983,247.08" /><glyph unicode="&#x0033;" d="M907.639,558.114C907.639,785.999,744.913,981.339,520.691,1022.43C520.691,1022.43,512.319,1024,512.319,1024C512.319,1024,503.948,1022.465,503.948,1022.465C279.725,981.339,117,785.999,117,558.114C117,343.38,261.552,157.667,465.821,102.553C465.821,102.553,465.821,46.498,465.821,46.498C465.821,20.79,486.646,0,512.319,0C537.993,0,558.817,20.79,558.817,46.498C558.817,46.498,558.817,102.553,558.817,102.553C763.087,157.667,907.639,343.38,907.639,558.114C907.639,558.114,907.639,558.114,907.639,558.114M558.817,200.014C558.817,200.014,558.817,339.229,558.817,339.229C558.817,339.229,761.308,541.72,761.308,541.72C770.377,550.789,770.377,565.544,761.308,574.613C752.239,583.683,737.483,583.683,728.414,574.613C728.414,574.613,558.782,404.982,558.782,404.982C558.782,404.982,558.782,571.753,558.782,571.753C558.782,571.753,668.277,681.248,668.277,681.248C677.347,690.317,677.347,705.073,668.277,714.142C659.208,723.211,644.453,723.211,635.383,714.142C635.383,714.142,558.782,637.541,558.782,637.541C558.782,637.541,558.782,790.708,558.782,790.708C558.782,816.416,537.958,837.206,512.284,837.206C486.611,837.206,465.786,816.416,465.786,790.708C465.786,790.708,465.786,637.541,465.786,637.541C465.786,637.541,389.22,714.142,389.22,714.142C380.151,723.211,365.396,723.211,356.326,714.142C347.257,705.073,347.257,690.317,356.326,681.248C356.326,681.248,465.821,571.753,465.821,571.753C465.821,571.753,465.821,404.982,465.821,404.982C465.821,404.982,296.259,574.544,296.259,574.544C287.19,583.613,272.435,583.613,263.365,574.544C254.296,565.474,254.296,550.719,263.365,541.65C263.365,541.65,465.856,339.159,465.856,339.159C465.856,339.159,465.856,200.014,465.856,200.014C314.747,251.919,209.961,394.377,209.961,558.149C209.961,738.315,336.618,893.052,512.284,929.33C687.951,893.052,814.608,738.315,814.608,558.149C814.608,394.377,709.822,251.919,558.817,200.014C558.817,200.014,558.817,200.014,558.817,200.014" /><glyph unicode="&#x0034;" d="M819.304,297.788C819.304,297.788,819.304,726.212,819.304,726.212C878.746,747.447,921.715,803.74,921.715,870.402C921.715,955.073,852.788,1024,768.117,1024C683.446,1024,614.519,955.073,614.519,870.402C614.519,803.74,657.488,747.485,716.931,726.289C716.931,726.289,716.931,297.788,716.931,297.788C657.488,276.553,614.519,220.26,614.519,153.598C614.519,68.927,683.446,0,768.117,0C852.788,0,921.715,68.927,921.715,153.598C921.715,220.26,878.746,276.515,819.304,297.788C819.304,297.788,819.304,297.788,819.304,297.788M768.117,921.627C796.379,921.627,819.304,898.626,819.304,870.44C819.304,842.255,796.379,819.254,768.117,819.254C739.855,819.254,716.931,842.255,716.931,870.44C716.931,898.626,739.855,921.627,768.117,921.627C768.117,921.627,768.117,921.627,768.117,921.627M768.117,102.412C739.855,102.412,716.931,125.413,716.931,153.598C716.931,181.783,739.855,204.785,768.117,204.785C796.379,204.785,819.304,181.783,819.304,153.598C819.304,125.413,796.379,102.412,768.117,102.412C768.117,102.412,768.117,102.412,768.117,102.412M409.696,870.402C409.696,955.073,340.769,1024,256.098,1024C171.427,1024,102.5,955.073,102.5,870.402C102.5,803.74,145.469,747.485,204.912,726.289C204.912,726.289,204.912,297.788,204.912,297.788C145.469,276.553,102.5,220.26,102.5,153.598C102.5,68.927,171.427,0,256.098,0C340.769,0,409.696,68.927,409.696,153.598C409.696,220.26,366.727,276.515,307.285,297.788C307.285,297.788,307.285,726.212,307.285,726.212C366.727,747.447,409.696,803.74,409.696,870.402C409.696,870.402,409.696,870.402,409.696,870.402M256.098,921.627C284.36,921.627,307.285,898.626,307.285,870.44C307.285,842.255,284.36,819.254,256.098,819.254C227.836,819.254,204.912,842.255,204.912,870.44C204.912,898.626,227.836,921.627,256.098,921.627C256.098,921.627,256.098,921.627,256.098,921.627M256.098,102.412C227.836,102.412,204.912,125.413,204.912,153.598C204.912,181.783,227.836,204.785,256.098,204.785C284.36,204.785,307.285,181.783,307.285,153.598C307.285,125.413,284.36,102.412,256.098,102.412C256.098,102.412,256.098,102.412,256.098,102.412" /><glyph unicode="&#x0035;" d="M307.323,297.788C307.323,297.788,307.323,332.809,307.323,332.809C307.323,376.238,333.55,414.484,373.217,437.601C339.079,452.039,307.745,471.738,279.944,495.507C233.673,453.844,204.95,396.283,204.95,332.809C204.95,332.809,204.95,297.788,204.95,297.788C145.507,276.553,102.538,220.26,102.538,153.598C102.538,68.927,171.466,0,256.136,0C340.807,0,409.735,68.927,409.735,153.598C409.735,220.26,366.765,276.515,307.323,297.788C307.323,297.788,307.323,297.788,307.323,297.788M256.098,102.412C227.836,102.412,204.912,125.413,204.912,153.598C204.912,181.783,227.836,204.785,256.098,204.785C284.36,204.785,307.285,181.783,307.285,153.598C307.285,125.413,284.36,102.412,256.098,102.412C256.098,102.412,256.098,102.412,256.098,102.412M716.892,726.289C716.892,726.289,716.892,708.318,716.892,708.318C716.892,657.899,689.513,613.509,648.042,587.474C682.102,573.458,713.513,554.412,741.391,531.142C789.314,576.108,819.304,638.776,819.304,708.241C819.304,708.241,819.304,726.212,819.304,726.212C878.746,747.447,921.715,803.74,921.715,870.402C921.715,955.073,852.788,1024,768.117,1024C683.446,1024,614.519,955.073,614.519,870.402C614.519,803.74,657.488,747.485,716.931,726.289C716.931,726.289,716.892,726.289,716.892,726.289M768.117,921.627C796.379,921.627,819.304,898.626,819.304,870.44C819.304,842.255,796.379,819.254,768.117,819.254C739.855,819.254,716.931,842.255,716.931,870.44C716.931,898.626,739.855,921.627,768.117,921.627C768.117,921.627,768.117,921.627,768.117,921.627M815.963,298.825C794.959,447.969,666.935,563.206,512.108,563.206C412.999,563.206,330.248,633.899,311.393,727.517C368.724,749.827,409.696,805.276,409.696,870.402C409.696,955.073,340.769,1024,256.098,1024C171.427,1024,102.5,955.073,102.5,870.402C102.5,802.512,147.043,745.488,208.214,725.213C229.218,576.07,357.242,460.833,512.069,460.833C611.178,460.833,693.929,390.139,712.784,296.521C655.453,274.211,614.481,218.762,614.481,153.636C614.481,68.966,683.408,0.038,768.079,0.038C852.75,0.038,921.677,68.966,921.677,153.636C921.677,221.527,877.134,278.55,815.963,298.825C815.963,298.825,815.963,298.825,815.963,298.825M256.098,921.627C284.36,921.627,307.285,898.626,307.285,870.44C307.285,842.255,284.36,819.254,256.098,819.254C227.836,819.254,204.912,842.255,204.912,870.44C204.912,898.626,227.836,921.627,256.098,921.627C256.098,921.627,256.098,921.627,256.098,921.627M768.117,102.412C739.855,102.412,716.931,125.413,716.931,153.598C716.931,181.783,739.855,204.785,768.117,204.785C796.379,204.785,819.304,181.783,819.304,153.598C819.304,125.413,796.379,102.412,768.117,102.412C768.117,102.412,768.117,102.412,768.117,102.412" /><glyph unicode="&#x0036;" d="M914.906,941.047C891.307,950.837,864.207,945.398,846.189,927.379C766.499,847.737,636.773,847.69,556.989,927.379C428.019,1056.207,218.367,1056.207,89.492,927.379C77.621,915.603,71,899.523,71,882.781C71,882.781,71,63.042,71,63.042C71,28.234,99.187,0,134.042,0C168.898,0,197.085,28.234,197.085,63.042C197.085,63.042,197.085,350.161,197.085,350.161C277.247,413.015,393.873,407.623,467.793,333.751C596.762,204.923,806.462,204.923,935.29,333.751C947.16,345.621,953.781,361.607,953.781,378.348C953.781,378.348,953.781,882.829,953.781,882.829C953.781,908.367,938.411,931.305,914.859,941.094C914.859,941.094,914.906,941.047,914.906,941.047" /><glyph unicode="&#x0037;" d="M520.691,1022.43C520.691,1022.43,512.319,1024,512.319,1024C512.319,1024,503.948,1022.465,503.948,1022.465C279.725,981.339,117,785.999,117,558.114C117,343.38,261.552,157.667,465.821,102.553C465.821,102.553,465.821,46.498,465.821,46.498C465.821,20.79,486.646,0,512.319,0C537.993,0,558.817,20.79,558.817,46.498C558.817,46.498,558.817,102.553,558.817,102.553C763.087,157.667,907.639,343.38,907.639,558.114C907.639,785.999,744.913,981.339,520.691,1022.43C520.691,1022.43,520.691,1022.43,520.691,1022.43M558.852,200.014C558.852,200.014,558.852,744.176,558.852,744.176C558.852,769.884,538.027,790.673,512.354,790.673C486.681,790.673,465.856,769.884,465.856,744.176C465.856,744.176,465.856,200.014,465.856,200.014C317.956,250.837,214.705,388.552,210.519,548.033C210.519,548.033,356.431,402.121,356.431,402.121C360.931,397.621,366.896,395.319,372.86,395.319C378.825,395.319,384.755,397.587,389.325,402.121C398.394,411.191,398.394,425.946,389.325,435.015C389.325,435.015,214.042,610.298,214.042,610.298C220.216,655.121,234.239,697.608,254.819,736.292C254.819,736.292,356.396,634.68,356.396,634.68C360.966,630.181,366.896,627.878,372.86,627.878C378.825,627.878,384.755,630.146,389.325,634.68C398.394,643.75,398.394,658.505,389.325,667.574C389.325,667.574,279.9,777,279.9,777C333.932,853.322,415.661,909.377,512.389,929.33C609.117,909.342,690.846,853.287,744.878,777C744.878,777,635.453,667.574,635.453,667.574C626.384,658.505,626.384,643.75,635.453,634.68C640.023,630.181,645.953,627.878,651.918,627.878C657.882,627.878,663.812,630.146,668.382,634.68C668.382,634.68,769.959,736.292,769.959,736.292C790.609,697.608,804.562,655.121,810.736,610.298C810.736,610.298,635.453,435.015,635.453,435.015C626.384,425.946,626.384,411.191,635.453,402.121C640.023,397.552,645.953,395.319,651.918,395.319C657.882,395.319,663.812,397.587,668.382,402.121C668.382,402.121,814.294,548.033,814.294,548.033C810.073,388.552,706.822,250.837,558.922,200.014C558.922,200.014,558.852,200.014,558.852,200.014" /><glyph unicode="&#x0038;" d="M999.634,784.213C999.634,784.213,784.213,999.634,784.213,999.634C767.927,1015.92,746.56,1024,725.276,1024C703.951,1024,682.667,1015.878,666.423,999.634C666.423,999.634,58.937,392.148,58.937,392.148C42.651,375.862,27.948,351.788,17.285,326.172C6.623,300.473,0,272.9,0,249.908C0,249.908,0,0,0,0C0,0,249.908,0,249.908,0C272.9,0,300.348,6.623,326.047,17.285C351.746,27.948,375.821,42.651,392.065,58.937C392.065,58.937,999.634,666.423,999.634,666.423C1015.92,682.708,1024,704.075,1024,725.359C1024,746.685,1015.878,767.969,999.634,784.213C999.634,784.213,999.634,784.213,999.634,784.213M153.735,329.838C153.735,329.838,614.275,790.377,614.275,790.377C614.275,790.377,682.708,721.944,682.708,721.944C682.708,721.944,222.169,261.404,222.169,261.404C222.169,261.404,153.735,329.838,153.735,329.838C153.735,329.838,153.735,329.838,153.735,329.838M249.908,111.084C249.908,111.084,166.606,111.084,166.606,111.084C166.606,111.084,111.084,166.606,111.084,166.606C111.084,166.606,111.084,249.908,111.084,249.908C111.084,254.199,112.917,266.861,119.873,283.521C120.414,284.646,284.646,120.373,284.646,120.373C266.777,112.917,254.199,111.084,249.95,111.084C249.95,111.084,249.908,111.084,249.908,111.084M329.838,153.735C329.838,153.735,261.404,222.169,261.404,222.169C261.404,222.169,721.944,682.708,721.944,682.708C721.944,682.708,790.377,614.275,790.377,614.275C790.377,614.275,329.838,153.735,329.838,153.735C329.838,153.735,329.838,153.735,329.838,153.735M829.655,653.552C829.655,653.552,653.511,829.696,653.511,829.696C653.511,829.696,725.318,901.503,725.318,901.503C725.318,901.503,901.378,725.359,901.378,725.359C901.378,725.359,829.696,653.552,829.696,653.552C829.696,653.552,829.655,653.552,829.655,653.552" /></font>
</defs>
</svg>
